<svg xmlns="http://www.w3.org/2000/svg" width="54" height="47.699" viewBox="0 0 54 47.699"><defs><style>.web-design-ada-a{fill:#85985a;}</style></defs><g transform="translate(-2194.73 -2827.007)"><path class="web-design-ada-a" d="M2220.195,2867.841h-22.15a1.538,1.538,0,0,1-1.536-1.536v-35.982a1.538,1.538,0,0,1,1.536-1.536h42.244a1.538,1.538,0,0,1,1.536,1.536V2860.5a.889.889,0,0,0,1.778,0v-30.183a3.318,3.318,0,0,0-3.314-3.314h-42.244a3.319,3.319,0,0,0-3.315,3.314V2866.3a3.319,3.319,0,0,0,3.315,3.315h22.15a.889.889,0,0,0,0-1.778Z" transform="translate(0 0)"></path><path class="web-design-ada-a" d="M2251.479,2857.752v-12.5a.889.889,0,0,0-.889-.889h-35.582a.889.889,0,0,0-.89.889v12.5a.889.889,0,0,0,.89.889h35.582A.889.889,0,0,0,2251.479,2857.752Zm-1.778-.889h-33.8v-10.725h33.8Z" transform="translate(-13.734 -12.293)"></path><path class="web-design-ada-a" d="M2283.8,2906.29a.889.889,0,1,0,0-1.778h-3.913a.889.889,0,1,0,0,1.778Z" transform="translate(-59.697 -54.903)"></path><path class="web-design-ada-a" d="M2214.839,2906.29h16.125a.889.889,0,0,0,0-1.778h-16.125a.889.889,0,1,0,0,1.778Z" transform="translate(-13.615 -54.903)"></path><path class="web-design-ada-a" d="M2320.957,2923.774h4.743a.889.889,0,1,0,0-1.779h-4.743a.889.889,0,0,0,0,1.779Z" transform="translate(-88.787 -67.288)"></path><path class="web-design-ada-a" d="M2309.445,2922.885a.889.889,0,0,0-.889-.889h-1.423a.889.889,0,0,0,0,1.779h1.423A.889.889,0,0,0,2309.445,2922.885Z" transform="translate(-78.995 -67.288)"></path><path class="web-design-ada-a" d="M2273.14,2922.885a.889.889,0,0,0-.889-.889h-9.841a.889.889,0,0,0,0,1.779h9.841A.889.889,0,0,0,2273.14,2922.885Z" transform="translate(-47.313 -67.288)"></path><path class="web-design-ada-a" d="M2214.839,2923.774h11.027a.889.889,0,0,0,0-1.779h-11.027a.889.889,0,1,0,0,1.779Z" transform="translate(-13.615 -67.288)"></path><path class="web-design-ada-a" d="M2280.705,2942.477h8.418a.889.889,0,0,0,0-1.779h-8.418a.889.889,0,0,0,0,1.779Z" transform="translate(-60.273 -80.537)"></path><path class="web-design-ada-a" d="M2214.839,2942.477H2231.2a.889.889,0,1,0,0-1.779h-16.362a.889.889,0,1,0,0,1.779Z" transform="translate(-13.615 -80.537)"></path><path class="web-design-ada-a" d="M2317.35,2950.468a26.324,26.324,0,0,0-4.711-3.168,16,16,0,0,0-7.335-2c-4.134,0-7.966,2.134-10.452,3.925l-.027.02a9.829,9.829,0,0,0-2.125,2.219,1.466,1.466,0,0,0,.582,1.895,26.332,26.332,0,0,0,4.686,3.148,14.477,14.477,0,0,0,14.671,0,26.376,26.376,0,0,0,4.711-3.169,1.877,1.877,0,0,0,0-2.872Zm-11.289-3.328a3.032,3.032,0,0,0-.247,1.173,3.681,3.681,0,0,0-.511-.037,3.627,3.627,0,1,0,3.627,3.627,3.672,3.672,0,0,0-.037-.511,3.052,3.052,0,0,0,1.173-.247,4.823,4.823,0,1,1-4.764-4.065c.068,0,.135,0,.2,0A4.867,4.867,0,0,1,2306.061,2947.141Zm1.091,4.763a1.848,1.848,0,1,1-1.848-1.848A1.85,1.85,0,0,1,2307.152,2951.9Zm-12.9.438Zm.217-.311a10.242,10.242,0,0,1,1.44-1.371,22.906,22.906,0,0,1,3.787-2.227,6.581,6.581,0,0,0,0,6.934A24.113,24.113,0,0,1,2294.465,2952.032Zm21.74-.053a24.131,24.131,0,0,1-5.286,3.389,6.6,6.6,0,0,0,.461-6.046.889.889,0,0,0-1.521-.2,1.266,1.266,0,1,1-1.856-1.708,21.493,21.493,0,0,1,8.2,4.413.094.094,0,0,1,.035.075A.1.1,0,0,1,2316.2,2951.979Z" transform="translate(-69.288 -83.799)"></path></g></svg>