<?xml version="1.0" encoding="UTF-8"?>
<svg version="1.1" xmlns="http://www.w3.org/2000/svg" width="1151" height="673">
<path d="M0 0 C379.83 0 759.66 0 1151 0 C1151 222.09 1151 444.18 1151 673 C771.17 673 391.34 673 0 673 C0 450.91 0 228.82 0 0 Z " fill="#FEFEFE" transform="translate(0,0)"/>
<path d="M0 0 C21.12 0 42.24 0 64 0 C64 21.12 64 42.24 64 64 C42.88 64 21.76 64 0 64 C0 42.88 0 21.76 0 0 Z " fill="#F6F6F6" transform="translate(869,378)"/>
<path d="M0 0 C21.12 0 42.24 0 64 0 C64 21.12 64 42.24 64 64 C42.88 64 21.76 64 0 64 C0 42.88 0 21.76 0 0 Z " fill="#EAEAEA" transform="translate(705,378)"/>
<path d="M0 0 C21.12 0 42.24 0 64 0 C64 21.12 64 42.24 64 64 C42.88 64 21.76 64 0 64 C0 42.88 0 21.76 0 0 Z " fill="#0D0D0D" transform="translate(705,214)"/>
<path d="M0 0 C21.12 0 42.24 0 64 0 C64 21.12 64 42.24 64 64 C42.88 64 21.76 64 0 64 C0 42.88 0 21.76 0 0 Z " fill="#F5F5F5" transform="translate(705,50)"/>
<path d="M0 0 C21.12 0 42.24 0 64 0 C64 21.12 64 42.24 64 64 C42.88 64 21.76 64 0 64 C0 42.88 0 21.76 0 0 Z " fill="#FBFBFB" transform="translate(213,50)"/>
<path d="M0 0 C1.10794922 -0.01260864 2.21589844 -0.02521729 3.35742188 -0.03820801 C4.54916016 -0.03011108 5.74089844 -0.02201416 6.96875 -0.01367188 C8.19658203 -0.01749878 9.42441406 -0.02132568 10.68945312 -0.02526855 C13.28516459 -0.02799029 15.88090336 -0.02061099 18.4765625 -0.00390625 C22.45374599 0.01749738 26.42912282 -0.0037015 30.40625 -0.02929688 C32.92708733 -0.02665365 35.44792353 -0.02152878 37.96875 -0.01367188 C39.16048828 -0.0217688 40.35222656 -0.02986572 41.58007812 -0.03820801 C43.24200195 -0.01929504 43.24200195 -0.01929504 44.9375 0 C45.91138672 0.00318237 46.88527344 0.00636475 47.88867188 0.00964355 C51.29329922 0.6799054 52.45257826 1.71348393 54.46875 4.51757812 C54.94976807 7.27642822 54.94976807 7.27642822 54.92285156 10.47949219 C54.92236816 11.69717285 54.92188477 12.91485352 54.92138672 14.16943359 C54.89069092 16.08199951 54.89069092 16.08199951 54.859375 18.03320312 C54.85534668 19.20866699 54.85131836 20.38413086 54.84716797 21.59521484 C54.82623985 25.98616138 54.77039445 30.37688543 54.71875 34.76757812 C54.63625 44.58507812 54.55375 54.40257812 54.46875 64.51757812 C33.34875 64.51757812 12.22875 64.51757812 -9.53125 64.51757812 C-9.61375 54.70007813 -9.69625 44.88257813 -9.78125 34.76757812 C-9.81766602 31.67157227 -9.85408203 28.57556641 -9.89160156 25.38574219 C-9.90328275 22.9349029 -9.91347592 20.48405586 -9.921875 18.03320312 C-9.94233887 16.75815918 -9.96280273 15.48311523 -9.98388672 14.16943359 C-9.98437012 12.95175293 -9.98485352 11.73407227 -9.98535156 10.47949219 C-9.99423401 9.42248108 -10.00311646 8.36546997 -10.01226807 7.27642822 C-8.99534413 1.44392237 -5.51575981 0.01802387 0 0 Z " fill="#EEEEEE" transform="translate(386.53125,541.482421875)"/>
<path d="M0 0 C21.12 0 42.24 0 64 0 C64 19.14 64 38.28 64 58 C42.88 58 21.76 58 0 58 C0 38.86 0 19.72 0 0 Z " fill="#FCFCFC" transform="translate(377,381)"/>
<path d="M0 0 C21.12 0 42.24 0 64 0 C64 19.14 64 38.28 64 58 C42.88 58 21.76 58 0 58 C0 38.86 0 19.72 0 0 Z " fill="#EFEFEF" transform="translate(213,381)"/>
<path d="M0 0 C21.12 0 42.24 0 64 0 C64 19.14 64 38.28 64 58 C42.88 58 21.76 58 0 58 C0 38.86 0 19.72 0 0 Z " fill="#141414" transform="translate(49,381)"/>
<path d="M0 0 C7.92 0 15.84 0 24 0 C24.66 1.98 25.32 3.96 26 6 C31.94 6.33 37.88 6.66 44 7 C44 23.17 44 39.34 44 56 C37.4 56 30.8 56 24 56 C24 57.32 24 58.64 24 60 C24.99 60 25.98 60 27 60 C27 61.32 27 62.64 27 64 C17.1 64 7.2 64 -3 64 C-3 62.68 -3 61.36 -3 60 C-2.01 60 -1.02 60 0 60 C0 58.68 0 57.36 0 56 C-6.6 56 -13.2 56 -20 56 C-20 39.83 -20 23.66 -20 7 C-14.06 6.67 -8.12 6.34 -2 6 C-1.34 4.02 -0.68 2.04 0 0 Z " fill="#121212" transform="translate(1053,214)"/>
<path d="M0 0 C21.12 0 42.24 0 64 0 C64 17.82 64 35.64 64 54 C42.88 54 21.76 54 0 54 C0 36.18 0 18.36 0 0 Z " fill="#F8F8F8" transform="translate(49,219)"/>
<path d="M0 0 C21.12 0 42.24 0 64 0 C64 17.82 64 35.64 64 54 C42.88 54 21.76 54 0 54 C0 36.18 0 18.36 0 0 Z " fill="#0D0D0D" transform="translate(49,55)"/>
<path d="M0 0 C21.12 0 42.24 0 64 0 C64 16.17 64 32.34 64 49 C56.41 49.33 48.82 49.66 41 50 C41 50.66 41 51.32 41 52 C44.3 52 47.6 52 51 52 C51 53.32 51 54.64 51 56 C38.46 56 25.92 56 13 56 C13 54.68 13 53.36 13 52 C16.3 52 19.6 52 23 52 C23 51.34 23 50.68 23 50 C11.615 49.505 11.615 49.505 0 49 C0 32.83 0 16.66 0 0 Z " fill="#191919" transform="translate(49,546)"/>
<path d="M0 0 C1.546875 0.0309375 1.546875 0.0309375 3.125 0.0625 C6.9965064 1.32494774 7.78716636 3.21274703 9.70703125 6.6796875 C11.47448628 9.85149502 13.57851989 12.76053748 15.66796875 15.7265625 C19.60863147 22.45226838 19.84072226 29.4077633 19 37 C16.97544696 44.06920379 13.96825704 49.63951214 9 55 C7.9731657 56.6502694 6.96432076 58.31243867 6 60 C2.16155931 63.83844069 -8.44719679 63.17036055 -13.5625 63.25 C-28.46078563 62.98107788 -28.46078563 62.98107788 -32.6171875 59.73828125 C-34.31537609 57.60355266 -35.64262637 55.36570832 -37 53 C-37.50660156 52.18660156 -38.01320313 51.37320313 -38.53515625 50.53515625 C-39.03917969 49.71917969 -39.54320312 48.90320313 -40.0625 48.0625 C-40.56910156 47.24910156 -41.07570313 46.43570313 -41.59765625 45.59765625 C-45.63143297 38.12561859 -46.52219466 29.67363462 -44.3125 21.4375 C-42.34987132 16.72719117 -39.5510838 12.82444987 -36.37109375 8.859375 C-34.78301297 6.84980623 -34.78301297 6.84980623 -33.5 3.5625 C-32 1 -32 1 -29.1875 0.1875 C-27.6096875 0.0946875 -27.6096875 0.0946875 -26 0 C-25.07703125 -0.16628906 -24.1540625 -0.33257812 -23.203125 -0.50390625 C-15.57807107 -1.68485972 -7.57632821 -1.39157049 0 0 Z " fill="#191919" transform="translate(422,51)"/>
<path d="M0 0 C21.12 0 42.24 0 64 0 C64 15.51 64 31.02 64 47 C58.06 47 52.12 47 46 47 C45.67 48.98 45.34 50.96 45 53 C43.4765625 54.86328125 43.4765625 54.86328125 41.625 56.3125 C40.71621094 57.04919922 40.71621094 57.04919922 39.7890625 57.80078125 C35.97944798 60.35438749 32.45953378 60.37792659 28 60 C23.68812189 57.717241 20.66303817 55.0969818 18 51 C18 49.68 18 48.36 18 47 C12.06 47 6.12 47 0 47 C0 31.49 0 15.98 0 0 Z " fill="#0C0C0C" transform="translate(541,216)"/>
<path d="M0 0 C21.12 0 42.24 0 64 0 C64 15.51 64 31.02 64 47 C58.06 47 52.12 47 46 47 C45.67 48.98 45.34 50.96 45 53 C43.4765625 54.86328125 43.4765625 54.86328125 41.625 56.3125 C40.71621094 57.04919922 40.71621094 57.04919922 39.7890625 57.80078125 C35.97944798 60.35438749 32.45953378 60.37792659 28 60 C23.68812189 57.717241 20.66303817 55.0969818 18 51 C18 49.68 18 48.36 18 47 C12.06 47 6.12 47 0 47 C0 31.49 0 15.98 0 0 Z " fill="#101010" transform="translate(377,216)"/>
<path d="M0 0 C21.12 0 42.24 0 64 0 C64 16.5 64 33 64 50 C42.88 50 21.76 50 0 50 C0 33.5 0 17 0 0 Z " fill="#101010" transform="translate(213,221)"/></svg>