<svg xmlns="http://www.w3.org/2000/svg" width="42.667" height="50.584" viewBox="0 0 42.667 50.584"><defs><style>.web-design-client-a{fill:#85985a;}</style></defs><g transform="translate(-2.648 -75.529)"><g transform="translate(2.648 80.158)"><path class="web-design-client-a" d="M40.633,100.281a.77.77,0,0,0-1.048.3,18.8,18.8,0,0,1-2.236,3.167A14.009,14.009,0,0,0,35.3,106.8a19.543,19.543,0,0,0-1.281,10.69,1.051,1.051,0,0,1-.512,1.095c-3.68,2.119-11.994,2.1-15.6-.023a1.379,1.379,0,0,1-.652-1.165v-5.566c0-.792-.582-1.654-2.259-1.654h-.21l-.559.023c-3.1,0-5.31-.629-5.473-1.584a35.16,35.16,0,0,1,.07-7.2.785.785,0,0,0-.489-.792,32.984,32.984,0,0,1-3.563-1.677,1.139,1.139,0,0,1-.559-.629,1.185,1.185,0,0,1,.163-.745C8.4,91.291,8.7,89.428,8.7,89.195c.652-5.566,2.934-9.619,6.754-12.064a.782.782,0,0,0,.233-1.072.774.774,0,0,0-1.048-.209c-4.239,2.7-6.754,7.127-7.453,13.182-.023.07-.279,1.747-4.1,7.709a2.711,2.711,0,0,0-.4,1.91A2.441,2.441,0,0,0,4,100.257a28.261,28.261,0,0,0,3.237,1.584,30.942,30.942,0,0,0,0,7.057c.466,2.469,4.588,2.818,6.987,2.818l.652-.023h.116a1.734,1.734,0,0,1,.745.14V117.4a2.836,2.836,0,0,0,1.4,2.469c2.026,1.211,5.31,1.817,8.594,1.817,3.237,0,6.474-.582,8.524-1.77a2.625,2.625,0,0,0,1.281-2.655,18.178,18.178,0,0,1,1.141-9.828,12.218,12.218,0,0,1,1.863-2.7,20.427,20.427,0,0,0,2.4-3.4A.77.77,0,0,0,40.633,100.281Z" transform="translate(-2.648 -75.728)"></path></g><g transform="translate(11.428 75.529)"><path class="web-design-client-a" d="M36.166,91.738H34.908a14.974,14.974,0,0,0-14.16-14.183V76.321a.769.769,0,1,0-1.537,0v1.234A14.974,14.974,0,0,0,5.051,91.738H3.794a.756.756,0,0,0-.769.745.775.775,0,0,0,.769.768H5.051a14.953,14.953,0,0,0,14.16,14.16v1.258a.769.769,0,0,0,1.537,0v-1.258a14.953,14.953,0,0,0,14.16-14.16h1.258a.756.756,0,0,0,.745-.768A.736.736,0,0,0,36.166,91.738Zm-2.795,0H29.179a9.3,9.3,0,0,0-8.431-8.454V79.092A13.429,13.429,0,0,1,33.371,91.738Zm-6.777,1.514h1.048a7.757,7.757,0,0,1-6.894,6.894V99.1a.769.769,0,0,0-1.537,0v1.048a7.735,7.735,0,0,1-6.894-6.894h1.048a.775.775,0,0,0,.769-.768.756.756,0,0,0-.769-.745H12.318a7.693,7.693,0,0,1,6.894-6.894V85.87a.769.769,0,0,0,1.537,0V84.845a7.714,7.714,0,0,1,6.894,6.894H26.594a.756.756,0,0,0-.769.745A.775.775,0,0,0,26.594,93.252Zm-7.383-14.16v4.192a9.284,9.284,0,0,0-8.431,8.454H6.588A13.411,13.411,0,0,1,19.211,79.092ZM6.588,93.252H10.78a9.2,9.2,0,0,0,8.431,8.407V105.9A13.448,13.448,0,0,1,6.588,93.252ZM20.748,105.9V101.66a9.219,9.219,0,0,0,8.431-8.407h4.192A13.466,13.466,0,0,1,20.748,105.9Z" transform="translate(-3.025 -75.529)"></path></g><g transform="translate(25.029 89.153)"><path class="web-design-client-a" d="M6.963,76.114a3.33,3.33,0,1,0,3.33,3.331A3.35,3.35,0,0,0,6.963,76.114Zm0,5.147a1.819,1.819,0,0,1-1.817-1.816,1.817,1.817,0,0,1,3.633,0A1.819,1.819,0,0,1,6.963,81.261Z" transform="translate(-3.609 -76.114)"></path></g></g></svg>