<svg xmlns="http://www.w3.org/2000/svg" width="49.186" height="53.249" viewBox="0 0 49.186 53.249"><defs><style>.web-content-writing-a{fill:#85985a;}</style></defs><g transform="translate(-529.652 -232.604)"><path class="web-content-writing-a" d="M575,277.895a.944.944,0,0,1-.331-.06l-1.244-.467a10.737,10.737,0,0,0-7.534,0l-1.244.466a.943.943,0,0,1-1.274-.883l0-37.284a.942.942,0,0,1,.942-.942h10.685a.943.943,0,0,1,.943.943l0,37.283a.943.943,0,0,1-.943.943Zm-5.343-3.1a12.6,12.6,0,0,1,4.4.793l0-34.98-8.8,0,0,34.98A12.624,12.624,0,0,1,569.659,274.8Z"></path><path class="web-content-writing-a" d="M569.659,285.574a.941.941,0,0,1-.774-.4l-5.341-7.679a.943.943,0,1,1,1.548-1.077l4.567,6.566,4.569-6.565a.943.943,0,1,1,1.548,1.076l-5.343,7.679A.942.942,0,0,1,569.659,285.574Z"></path><path class="web-content-writing-a" d="M569.66,276.685a.943.943,0,0,1-.943-.943l0-36.074a.943.943,0,1,1,1.885,0l0,36.074A.943.943,0,0,1,569.66,276.685Z"></path><path class="web-content-writing-a" d="M575.034,240.612l-10.74,0a2.282,2.282,0,0,1-2.279-2.278v-2.657a3.069,3.069,0,0,1,3.071-3.071h9.154a3.074,3.074,0,0,1,3.072,3.071v2.657A2.281,2.281,0,0,1,575.034,240.612Zm-9.947-6.123a1.187,1.187,0,0,0-1.185,1.186v2.657a.394.394,0,0,0,.393.393h10.74a.394.394,0,0,0,.392-.393v-2.657a1.187,1.187,0,0,0-1.186-1.186Z"></path><path class="web-content-writing-a" d="M558.645,241.444l-28.046,0a.942.942,0,1,1,0-1.885l28.046,0a.942.942,0,1,1,0,1.885Z"></path><path class="web-content-writing-a" d="M558.645,247.788l-28.046,0a.943.943,0,0,1,0-1.886l28.046,0a.943.943,0,0,1,0,1.886Z"></path><path class="web-content-writing-a" d="M558.644,254.132l-28.046,0a.942.942,0,1,1,0-1.885l28.046,0a.943.943,0,1,1,0,1.885Z"></path><path class="web-content-writing-a" d="M558.644,260.476l-28.047,0a.943.943,0,0,1,0-1.886l28.047,0a.943.943,0,0,1,0,1.886Z"></path><path class="web-content-writing-a" d="M558.643,266.82l-28.046,0a.943.943,0,0,1,0-1.886l28.046,0a.943.943,0,0,1,0,1.886Z"></path><path class="web-content-writing-a" d="M558.642,273.163l-28.046,0a.943.943,0,0,1,0-1.886l28.046,0a.942.942,0,1,1,0,1.885Z"></path><path class="web-content-writing-a" d="M558.642,279.507l-28.047,0a.943.943,0,1,1,0-1.885l28.047,0a.943.943,0,0,1,0,1.886Z"></path><path class="web-content-writing-a" d="M577.9,285.853l-47.3-.005a.943.943,0,0,1,0-1.886l47.3.005a.943.943,0,0,1,0,1.886Z"></path></g></svg>