<svg xmlns="http://www.w3.org/2000/svg" width="54.975" height="55" viewBox="0 0 54.975 55"><defs><style>.web-design-ecommerce-a{fill:#85985a;}</style></defs><g transform="translate(-8.09 -18.541)"><path class="web-design-ecommerce-a" d="M63.065,32.24l-.051-.3-.025-.051-.1-.152-5.242-6.812v-2.2a4.161,4.161,0,0,0-4.153-4.178H17.662a4.161,4.161,0,0,0-4.153,4.178v2.2L8.267,31.734l-.1.152-.025.051-.051.3v.025a5.124,5.124,0,0,0,5.267,4.963h.152V59.361a4.161,4.161,0,0,0,4.153,4.178H30.171l-.684,4.938a21.436,21.436,0,0,0-7.749,3.545.852.852,0,0,0,.506,1.519H48.91a.845.845,0,0,0,.785-.582.884.884,0,0,0-.279-.937,21.632,21.632,0,0,0-7.749-3.545l-.684-4.938H53.493a4.161,4.161,0,0,0,4.153-4.178V37.229H57.8a5.14,5.14,0,0,0,5.267-4.963ZM49.011,25.226l3.013,6.2H45.137l-1.545-6.2Zm-7.141,0,1.519,6.2H36.4v-6.2Zm-7.116,6.2H27.74l1.545-6.2h5.47Zm-8.711,0H19.131l3.013-6.2h5.419Zm-.3,1.646a3.689,3.689,0,0,1-6.989,0Zm8.888,0a3.689,3.689,0,0,1-6.989,0Zm8.888,0a3.689,3.689,0,0,1-6.989,0Zm8.888,0a3.689,3.689,0,0,1-6.989,0Zm1.469-1.646-3.013-6.2H55.8l4.761,6.2ZM17.662,20.212H53.493a2.491,2.491,0,0,1,2.482,2.507v.81H15.155v-.81A2.513,2.513,0,0,1,17.662,20.212Zm-2.3,5.014H20.3l-3.013,6.2H10.6Zm-5.495,7.85h6.989a3.582,3.582,0,0,1-3.494,2.507A3.582,3.582,0,0,1,9.863,33.076ZM25.107,71.844a23.438,23.438,0,0,1,20.942,0ZM39.92,68.1a26.468,26.468,0,0,0-8.711,0l.658-4.558h7.419Zm13.573-6.229H17.662a2.513,2.513,0,0,1-2.507-2.507h40.82A2.491,2.491,0,0,1,53.493,61.867ZM28.55,56.448a1.266,1.266,0,0,1,2.532,0,1.266,1.266,0,1,1-2.532,0Zm11.015,0a1.254,1.254,0,0,1,2.507,0,1.254,1.254,0,1,1-2.507,0Zm3.368-10.357H27.892l-.658-2.507H43.44Zm-.355,1.671-.532,2.507H28.981l-.658-2.507Zm13.4,9.952H43.44a3.1,3.1,0,0,0,.3-1.266,2.96,2.96,0,0,0-.861-2.051l.658-3.14h0l1.747-8.331h0l.076-.38a3.054,3.054,0,0,1,2.937-2.38.849.849,0,0,0,.836-.861.838.838,0,0,0-.836-.81,4.658,4.658,0,0,0-4.482,3.444H26.145a.84.84,0,0,0-.658.329.778.778,0,0,0-.152.709l2.2,8.331a.776.776,0,0,0,.81.608H41.693l-.329,1.7a1.928,1.928,0,0,0-.532-.076,2.912,2.912,0,0,0-2.912,2.912,3.079,3.079,0,0,0,.279,1.266H32.45a3.1,3.1,0,0,0,.3-1.266,2.925,2.925,0,0,0-5.849,0,2.745,2.745,0,0,0,.3,1.266H15.155V36.95a5.206,5.206,0,0,0,2.659-2.026,5.413,5.413,0,0,0,8.863,0,5.438,5.438,0,0,0,8.888,0,5.438,5.438,0,0,0,8.888,0,5.455,5.455,0,0,0,8.888.025,5.459,5.459,0,0,0,2.634,2ZM57.8,35.583a3.614,3.614,0,0,1-3.52-2.507h7.014A3.582,3.582,0,0,1,57.8,35.583Z" transform="translate(0 0)"></path></g></svg>