<svg xmlns="http://www.w3.org/2000/svg" width="50.333" height="49.637" viewBox="0 0 50.333 49.637"><defs><style>.web-design-focus-a{fill:#85985a;}</style></defs><g transform="translate(-93.227 -28.178)"><g transform="translate(93.227 28.177)"><path class="web-design-focus-a" d="M142.1,59.174a25.129,25.129,0,0,0,.788-6.167,24.8,24.8,0,0,0-3.315-12.357l-.023-.07-.023-.023a25.1,25.1,0,0,0-9.019-9.019l-.046-.046-.046-.023a24.838,24.838,0,0,0-24.715,0l-.07.023-.046.046a25.031,25.031,0,0,0-9,9.019l-.046.023-.023.07a24.831,24.831,0,0,0,9.065,33.826l.046.046.093.023a24.354,24.354,0,0,0,12.311,3.269,24.84,24.84,0,0,0,12.334-3.269l.093-.023.046-.046a25.169,25.169,0,0,0,5.657-4.5.746.746,0,0,0-1.09-1.02,25.784,25.784,0,0,1-4.706,3.895l-1.53-2.666a.75.75,0,0,0-1.02-.255.706.706,0,0,0-.278,1l1.507,2.666A23.172,23.172,0,0,1,118.8,76.308V73.294a.752.752,0,0,0-.765-.742.732.732,0,0,0-.742.742v3.014a23.171,23.171,0,0,1-10.248-2.736l1.507-2.643a.706.706,0,0,0-.278-1,.745.745,0,0,0-1.02.255l-1.507,2.62A23.291,23.291,0,0,1,94.734,53.749h3.014a.742.742,0,1,0,0-1.484H94.734a22.981,22.981,0,0,1,2.759-10.271l2.6,1.507a.607.607,0,0,0,.394.116.771.771,0,0,0,.649-.394.757.757,0,0,0-.278-1.02L98.235,40.7a23.644,23.644,0,0,1,7.512-7.489l1.507,2.6a.72.72,0,0,0,.649.371.739.739,0,0,0,.649-1.113l-1.507-2.62a23.5,23.5,0,0,1,10.248-2.759v3.037a.732.732,0,0,0,.742.742.752.752,0,0,0,.765-.742V29.684a23.5,23.5,0,0,1,10.248,2.759l-1.507,2.62a.737.737,0,0,0,.278,1.02.68.68,0,0,0,.371.093.72.72,0,0,0,.649-.371l1.507-2.6a23.644,23.644,0,0,1,7.512,7.489l-2.62,1.507a.76.76,0,0,0,.371,1.414.584.584,0,0,0,.371-.116l2.643-1.507a23.266,23.266,0,0,1,2.736,10.271h-3.037a.742.742,0,1,0,0,1.484h3.037a23.928,23.928,0,0,1-.719,5.008l-1.415-.394,1.113,4.336,3.223-3.13Z" transform="translate(-93.227 -28.177)"></path></g><g transform="translate(113.653 38.471)"><path class="web-design-focus-a" d="M102.663,32.887a4.277,4.277,0,1,0-4.289,4.266A4.274,4.274,0,0,0,102.663,32.887Zm-7.048,0a2.771,2.771,0,1,1,2.759,2.759A2.766,2.766,0,0,1,95.615,32.887Z" transform="translate(-94.108 -28.621)"></path></g><g transform="translate(99.997 48.672)"><path class="web-design-focus-a" d="M101.657,33.814v9.135h-7.4a.732.732,0,0,0-.742.742.752.752,0,0,0,.742.765h34.614a.752.752,0,0,0,.742-.765.732.732,0,0,0-.742-.742h-7.489V33.814a4.759,4.759,0,0,0-4.753-4.753H106.409A4.759,4.759,0,0,0,101.657,33.814Zm18.223,0v9.135h-2.5V34.509a.754.754,0,0,0-1.507,0v8.439h-8.694V34.509a.754.754,0,0,0-1.507,0v8.439h-2.5V33.814a3.24,3.24,0,0,1,3.246-3.246h4.405v9.088a.754.754,0,1,0,1.507,0V30.568h4.312A3.24,3.24,0,0,1,119.88,33.814Z" transform="translate(-93.519 -29.061)"></path></g></g></svg>