<svg xmlns="http://www.w3.org/2000/svg" width="47.662" height="47.688" viewBox="0 0 47.662 47.688"><defs><style>.web-design-full-service-a{fill:#85985a;}</style></defs><g transform="translate(-41.758 -18.41)"><path class="web-design-full-service-a" d="M88.015,44.473l-2.459-.659a18.728,18.728,0,0,0,0-3.139l2.459-.637a1.876,1.876,0,0,0,1.141-.9,1.855,1.855,0,0,0,.2-1.449l-.9-3.381a1.936,1.936,0,0,0-2.327-1.361l-2.459.681a18.561,18.561,0,0,0-1.559-2.722l1.778-1.8a1.856,1.856,0,0,0,0-2.678l-2.481-2.481a1.882,1.882,0,0,0-2.678,0l-1.8,1.778a19.213,19.213,0,0,0-2.7-1.559l.659-2.437a1.938,1.938,0,0,0-1.339-2.349l-3.4-.9a1.884,1.884,0,0,0-2.327,1.361l-.659,2.437a18.736,18.736,0,0,0-3.139,0l-.659-2.437a1.886,1.886,0,0,0-.878-1.164,1.855,1.855,0,0,0-1.449-.2l-3.381.9a1.934,1.934,0,0,0-1.361,2.349l.659,2.437a20.543,20.543,0,0,0-2.7,1.559l-1.8-1.778a1.882,1.882,0,0,0-2.678,0L47.29,26.427a1.882,1.882,0,0,0,0,2.678l1.778,1.8a20.791,20.791,0,0,0-1.559,2.722l-2.459-.681a1.936,1.936,0,0,0-2.327,1.361l-.9,3.381a1.855,1.855,0,0,0,.2,1.449,1.875,1.875,0,0,0,1.142.9l2.459.637a18.742,18.742,0,0,0,0,3.139l-2.459.659A1.937,1.937,0,0,0,41.824,46.8l.9,3.381a1.884,1.884,0,0,0,2.327,1.361l2.92-.768a1.014,1.014,0,0,0,.329-.2l4.7-4.72a.7.7,0,0,0,.2-.681A12.86,12.86,0,0,1,68.937,29.654l-9.4,9.374a.731.731,0,0,0-.176.7A11.973,11.973,0,0,0,68.1,48.469a.683.683,0,0,0,.7-.176l9.374-9.374A12.86,12.86,0,0,1,62.658,54.66a.7.7,0,0,0-.681.176l-4.72,4.7a.882.882,0,0,0-.176.351l-.79,2.9a1.9,1.9,0,0,0,1.361,2.327l3.381.9a2.031,2.031,0,0,0,.5.088,1.8,1.8,0,0,0,.944-.263,1.9,1.9,0,0,0,.878-1.142l.659-2.459a24.96,24.96,0,0,0,3.139,0l.659,2.459a1.882,1.882,0,0,0,2.327,1.317l3.4-.9a1.9,1.9,0,0,0,1.339-2.327l-.659-2.437a19.333,19.333,0,0,0,2.7-1.581l1.8,1.8a1.922,1.922,0,0,0,2.678,0l2.481-2.481a1.882,1.882,0,0,0,0-2.7l-1.778-1.778a18.564,18.564,0,0,0,1.559-2.722l2.459.659a1.884,1.884,0,0,0,2.327-1.361l.9-3.381a1.937,1.937,0,0,0-1.339-2.327Zm-.066,1.954-.922,3.381a.4.4,0,0,1-.527.307L83.47,49.3a.769.769,0,0,0-.878.417,18.671,18.671,0,0,1-2.02,3.535.733.733,0,0,0,.066.944l2.217,2.239a.387.387,0,0,1,.132.285.447.447,0,0,1-.132.329l-2.481,2.459a.424.424,0,0,1-.615,0l-2.217-2.2a.738.738,0,0,0-.966-.088,17.469,17.469,0,0,1-3.513,2.042.73.73,0,0,0-.417.856l.812,3.03a.439.439,0,0,1-.307.549l-3.381.9a.439.439,0,0,1-.549-.307l-.812-3.052a.731.731,0,0,0-.7-.527H67.62a17.949,17.949,0,0,1-4.061,0,.744.744,0,0,0-.79.527L61.956,64.3a.439.439,0,0,1-.549.307l-3.381-.9a.368.368,0,0,1-.263-.22.35.35,0,0,1-.044-.329l.724-2.722,4.281-4.259a14.35,14.35,0,0,0,16.509-18.88.711.711,0,0,0-1.207-.263l-9.945,9.945a10.593,10.593,0,0,1-7.2-7.2l9.945-9.945a.8.8,0,0,0,.2-.7.754.754,0,0,0-.461-.5A14.316,14.316,0,0,0,51.681,45.11L47.4,49.391l-2.722.724a.4.4,0,0,1-.527-.307l-.922-3.381a.457.457,0,0,1,.307-.549l3.052-.812a.709.709,0,0,0,.527-.79,20.916,20.916,0,0,1,0-4.061.736.736,0,0,0-.527-.79l-3.052-.812a.443.443,0,0,1-.307-.527l.922-3.4a.452.452,0,0,1,.527-.307l3.052.812a.729.729,0,0,0,.856-.417,18.49,18.49,0,0,1,2.02-3.513.762.762,0,0,0-.066-.966l-2.217-2.217a.424.424,0,0,1,0-.615l2.459-2.481a.451.451,0,0,1,.637,0l2.217,2.239a.762.762,0,0,0,.966.044,18.487,18.487,0,0,1,3.513-2.02.742.742,0,0,0,.417-.856l-.812-3.052a.408.408,0,0,1,.307-.527l3.381-.9a.439.439,0,0,1,.549.307l.812,3.03a.722.722,0,0,0,.79.527,20.927,20.927,0,0,1,4.061,0,.709.709,0,0,0,.79-.527l.812-3.03a.439.439,0,0,1,.549-.307l3.381.9a.408.408,0,0,1,.307.527l-.812,3.052a.742.742,0,0,0,.417.856,18.487,18.487,0,0,1,3.513,2.02.76.76,0,0,0,.966-.044l2.217-2.239a.424.424,0,0,1,.615,0l2.481,2.481a.434.434,0,0,1,.132.307.369.369,0,0,1-.132.307l-2.217,2.217a.762.762,0,0,0-.066.966,19.2,19.2,0,0,1,2.02,3.513.745.745,0,0,0,.878.417l3.03-.812a.44.44,0,0,1,.527.307l.922,3.4a.443.443,0,0,1-.307.527l-3.052.812a.736.736,0,0,0-.527.79,20.916,20.916,0,0,1,0,4.061.709.709,0,0,0,.527.79l3.052.812A.457.457,0,0,1,87.949,46.427Z" transform="translate(0 0)"></path></g></svg>