<svg xmlns="http://www.w3.org/2000/svg" width="42.5" height="42.5" viewBox="0 0 42.5 42.5"><defs><style>.web-design-svg-a{fill:#85985a;}</style></defs><g transform="translate(-13.477 -52.053)"><g transform="translate(23.794 52.053)"><path class="web-design-svg-a" d="M14.649,57.162a.673.673,0,0,0,.411-.157,15.17,15.17,0,0,1,19.811,0,.727.727,0,0,0,.431.157.645.645,0,0,0,.411-1.135,16.52,16.52,0,0,0-21.495,0,.645.645,0,0,0-.059.9A.621.621,0,0,0,14.649,57.162Z" transform="translate(-14.004 -52.053)"></path></g><g transform="translate(13.477 56.556)"><path class="web-design-svg-a" d="M53.412,52.283a2.545,2.545,0,0,0-2.486,1.938H37.3V52.929a.652.652,0,0,0-.646-.646H32.779a.635.635,0,0,0-.626.646v1.292H18.528a2.574,2.574,0,1,0,0,1.272H32.153V56.8a.631.631,0,0,0,.626.626h.763L27.9,66.358a.673.673,0,0,0,0,.666,22.892,22.892,0,0,1,2.76,8.868l-.078,2.839h-5.4a57.48,57.48,0,0,0-2.193-5.383C21.5,70,19.957,66.5,19.957,63.343a13.937,13.937,0,0,1,1.155-5.56.655.655,0,0,0-.333-.842.632.632,0,0,0-.842.333,15.063,15.063,0,0,0-1.272,6.069c0,3.426,1.605,7.047,3.152,10.532.7,1.605,1.449,3.25,2,4.855h-.157a.636.636,0,1,0,0,1.272h.313v2.31h-.313a.669.669,0,0,0-.646.666.652.652,0,0,0,.646.646h.313v2.31h-.313a.652.652,0,0,0-.646.646.635.635,0,0,0,.646.626h3.367v.313a2.757,2.757,0,0,0,2.76,2.76h9.964a2.77,2.77,0,0,0,2.76-2.76v-.313h3.367a.618.618,0,0,0,.626-.626.635.635,0,0,0-.626-.646h-.333v-2.31h.333a.635.635,0,0,0,.626-.646.652.652,0,0,0-.626-.666h-.333V80h.333a.636.636,0,0,0,0-1.272H45.7c.568-1.605,1.292-3.25,2-4.855,1.566-3.485,3.171-7.106,3.171-10.532a15.063,15.063,0,0,0-1.272-6.069.638.638,0,0,0-.842-.333.623.623,0,0,0-.333.842,13.937,13.937,0,0,1,1.155,5.56c0,3.152-1.547,6.636-3.054,10a57.472,57.472,0,0,0-2.193,5.383H38.848l-.059-2.839a22.173,22.173,0,0,1,2.76-8.868.628.628,0,0,0-.02-.666l-5.638-8.927h.763A.648.648,0,0,0,37.3,56.8V55.493H50.926a2.545,2.545,0,0,0,2.486,1.938,2.574,2.574,0,0,0,0-5.148ZM16.041,56.139a1.282,1.282,0,1,1,1.292-1.292A1.291,1.291,0,0,1,16.041,56.139ZM34.737,66.2a.97.97,0,0,1,.94.959.959.959,0,1,1-1.918,0A.978.978,0,0,1,34.737,66.2Zm6.48,21.318a1.466,1.466,0,0,1-1.468,1.468H29.784A1.483,1.483,0,0,1,28.3,87.52v-.313h12.92Zm3.054-1.586H25.262v-2.31H44.27ZM25.262,82.313V80H44.27v2.31ZM34.8,78.73H31.879l.039-2.212h5.6l.059,2.212Zm2.76-3.5H31.9a23.388,23.388,0,0,0-2.7-8.5l4.874-7.713v6.01a2.251,2.251,0,1,0,1.292,0v-6.01l4.874,7.713A23.477,23.477,0,0,0,37.556,75.226ZM36.009,56.139H33.425V53.575h2.584Zm17.4,0a1.282,1.282,0,1,1,1.272-1.292A1.279,1.279,0,0,1,53.412,56.139Z" transform="translate(-13.477 -52.283)"></path></g></g></svg>