<svg xmlns="http://www.w3.org/2000/svg" width="43.077" height="46" viewBox="0 0 43.077 46"><defs><style>.maintenance-cost-a{fill:#85985a;}</style></defs><g transform="translate(-214.013 -3327.366)"><path class="maintenance-cost-a" d="M316.239,3442.783a9.481,9.481,0,1,0,11.5,6.9A9.492,9.492,0,0,0,316.239,3442.783Zm9.289,13.394a8.154,8.154,0,1,1,.919-6.172A8.1,8.1,0,0,1,325.528,3456.177Z" transform="translate(-72.727 -88.101)"/><path class="maintenance-cost-a" d="M339.8,3463.9c-1.289-.192-1.552-.4-1.653-.806-.093-.374.076-.841.831-1.03a2.814,2.814,0,0,1,1.524.029.312.312,0,0,0,.4-.264l.107-.905a.314.314,0,0,0-.226-.336,3.8,3.8,0,0,0-1.6-.091l-.233-.93a.3.3,0,0,0-.37-.218l-.777.194a.281.281,0,0,0-.2.361l.254,1.018a2.348,2.348,0,0,0-1.339,2.74c.343,1.374,1.576,1.719,2.861,1.886,1.187.168,1.433.534,1.525.9.138.553-.248,1.044-.958,1.222a3.116,3.116,0,0,1-1.758-.079.313.313,0,0,0-.417.264l-.091.915a.306.306,0,0,0,.179.326,3.875,3.875,0,0,0,1.919.149l.244.978a.346.346,0,0,0,.415.219l.789-.2a.308.308,0,0,0,.222-.378l-.264-1.056a2.52,2.52,0,0,0,1.388-2.872C342.37,3465.149,341.878,3464.2,339.8,3463.9Z" transform="translate(-93.679 -100.986)"/><path class="maintenance-cost-a" d="M252.464,3370.821H237.6v-3.266h12.211a.664.664,0,1,0,0-1.329H237.6v-3.193h11.8a.664.664,0,1,0,0-1.329h-14.05v-3.193h15.89a.664.664,0,1,0,0-1.328H244.3v-1.692a.475.475,0,0,0-.949,0v1.692H237.6v-3.159h.962v1.467a.475.475,0,0,0,.949,0v-1.467h1.542v1.467a.475.475,0,0,0,.949,0v-1.467h13.8a.664.664,0,1,0,0-1.328h-3.9V3342.9a12.136,12.136,0,0,1,.328-2.8,8.4,8.4,0,0,0,1.044.065c.224,0,.462-.009.709-.031a5.519,5.519,0,0,0,4.18-2.27c2.691-3.821,1.2-9.755,1.136-10.005a.664.664,0,0,0-.791-.481,19.444,19.444,0,0,0-4.915,1.973c-3.26,1.909-4.7,4.432-4.161,7.3a.664.664,0,1,0,1.306-.246c-.43-2.287.749-4.269,3.5-5.89a18.181,18.181,0,0,1,3.91-1.661,17.381,17.381,0,0,1,.278,2.6,9.588,9.588,0,0,1-1.352,5.652,4.167,4.167,0,0,1-3.175,1.708,6.847,6.847,0,0,1-1.291,0,13.394,13.394,0,0,1,3.359-5.213.664.664,0,1,0-.864-1.01,14.4,14.4,0,0,0-3.985,6.478.671.671,0,0,0-.043.119.693.693,0,0,0-.011.075,13.649,13.649,0,0,0-.494,3.644v3.232a19.119,19.119,0,0,0-1.385-1.78c.184-.7.742-3.486-1.405-5.216-2.852-2.3-8.876-1.659-9.131-1.63a.664.664,0,0,0-.562.855c.11.358,2.661,8.462,7.68,8.462a4.779,4.779,0,0,0,.578-.036.664.664,0,1,0-.161-1.319c-1.751.212-3.419-.939-4.955-3.426a19.808,19.808,0,0,1-1.593-3.279,22.177,22.177,0,0,1,2.367,0,8.912,8.912,0,0,1,4.942,1.4,3.355,3.355,0,0,1,1.1,3,11.831,11.831,0,0,0-2.417-1.823.664.664,0,0,0-.609,1.181,15.322,15.322,0,0,1,5.551,6.149v4.016H236.931a.664.664,0,0,0-.664.664v3.823h-1.584a.664.664,0,0,0-.664.664v4.522a.665.665,0,0,0,.664.665h1.584v8.451a.664.664,0,0,0,.664.664h15.533a.664.664,0,1,0,0-1.328Z" transform="translate(-15.309)"/><path class="maintenance-cost-a" d="M382.561,3358.441a.664.664,0,0,0,.664-.665v-.593a.664.664,0,0,0-1.328,0v.593A.664.664,0,0,0,382.561,3358.441Z" transform="translate(-128.466 -22.308)"/><path class="maintenance-cost-a" d="M382.561,3375.763a.664.664,0,0,0,.664-.664v-.593a.664.664,0,0,0-1.328,0v.593A.664.664,0,0,0,382.561,3375.763Z" transform="translate(-128.466 -35.563)"/><path class="maintenance-cost-a" d="M372.637,3367.772h.593a.664.664,0,0,0,0-1.329h-.593a.664.664,0,0,0,0,1.329Z" transform="translate(-120.872 -29.902)"/><path class="maintenance-cost-a" d="M389.959,3367.772h.593a.664.664,0,1,0,0-1.329h-.593a.664.664,0,0,0,0,1.329Z" transform="translate(-134.127 -29.902)"/><path class="maintenance-cost-a" d="M353.615,3405.581a.664.664,0,0,0,.664-.665v-.593a.664.664,0,0,0-1.329,0v.593A.664.664,0,0,0,353.615,3405.581Z" transform="translate(-106.316 -58.38)"/><path class="maintenance-cost-a" d="M353.615,3422.9a.664.664,0,0,0,.664-.664v-.593a.664.664,0,0,0-1.329,0v.593A.664.664,0,0,0,353.615,3422.9Z" transform="translate(-106.316 -71.635)"/><path class="maintenance-cost-a" d="M343.691,3414.911h.593a.665.665,0,0,0,0-1.329h-.593a.665.665,0,0,0,0,1.329Z" transform="translate(-98.722 -65.973)"/><path class="maintenance-cost-a" d="M361.013,3414.911h.593a.665.665,0,0,0,0-1.329h-.593a.665.665,0,0,0,0,1.329Z" transform="translate(-111.977 -65.973)"/><path class="maintenance-cost-a" d="M224.6,3400.764a.665.665,0,0,0-.664.664v.593a.664.664,0,1,0,1.329,0v-.593A.664.664,0,0,0,224.6,3400.764Z" transform="translate(-7.594 -56.165)"/><path class="maintenance-cost-a" d="M224.6,3418.086a.665.665,0,0,0-.664.664v.593a.664.664,0,0,0,1.329,0v-.593A.664.664,0,0,0,224.6,3418.086Z" transform="translate(-7.594 -69.42)"/><path class="maintenance-cost-a" d="M215.271,3410.688h-.593a.664.664,0,1,0,0,1.329h.593a.664.664,0,0,0,0-1.329Z" transform="translate(0 -63.759)"/><path class="maintenance-cost-a" d="M232.593,3412.017a.664.664,0,0,0,0-1.329H232a.664.664,0,1,0,0,1.329Z" transform="translate(-13.255 -63.759)"/><path class="maintenance-cost-a" d="M389.917,3410.668a.849.849,0,1,0-.849-.849A.85.85,0,0,0,389.917,3410.668Z" transform="translate(-133.953 -62.443)"/><path class="maintenance-cost-a" d="M390.744,3442.876a.85.85,0,1,0,.849.85A.849.849,0,0,0,390.744,3442.876Z" transform="translate(-134.586 -88.389)"/><path class="maintenance-cost-a" d="M224.1,3369.272a.85.85,0,1,0,.849.849A.85.85,0,0,0,224.1,3369.272Z" transform="translate(-7.07 -32.067)"/><path class="maintenance-cost-a" d="M284.181,3443.5v.5a.475.475,0,1,0,.949,0v-.5a.475.475,0,1,0-.949,0Z" transform="translate(-53.693 -88.5)"/><path class="maintenance-cost-a" d="M257.138,3463.917v.7a.474.474,0,0,0,.949,0v-.7a.474.474,0,1,0-.949,0Z" transform="translate(-33 -104.127)"/><path class="maintenance-cost-a" d="M247.346,3463.917v.7a.475.475,0,0,0,.949,0v-.7a.475.475,0,1,0-.949,0Z" transform="translate(-25.507 -104.127)"/><path class="maintenance-cost-a" d="M267.749,3463.917v.222a.475.475,0,1,0,.949,0v-.222a.475.475,0,1,0-.949,0Z" transform="translate(-41.119 -104.127)"/></g></svg>