<svg xmlns="http://www.w3.org/2000/svg" width="52" height="41.418" viewBox="0 0 52 41.418"><defs><style>.web-design-responsive-a{fill:#85985a;}</style></defs><g transform="translate(-2.699 -18.762)"><g transform="translate(2.699 18.762)"><path class="web-design-responsive-a" d="M49.959,31.858H41.771l-.5-5.913V25.9L41.22,25.7l-.024-.072-.144-.215h-.024l-6.8-6.44-.12-.072-.12-.072-.287-.072H23.7l-.311.072-.1.072-.144.072-6.8,6.44h0l-.168.215-.024.072-.048.192-.024.048-.455,5.913H7.415A4.705,4.705,0,0,0,2.7,36.55V55.464A4.741,4.741,0,0,0,7.415,60.18H49.959a4.746,4.746,0,0,0,4.74-4.716V36.55A4.71,4.71,0,0,0,49.959,31.858ZM17.59,26.782H39.784l2.035,25.5a1.583,1.583,0,0,1-.431,1.2,1.471,1.471,0,0,1-1.149.5h-23.1a1.543,1.543,0,0,1-1.149-.5,1.583,1.583,0,0,1-.431-1.2Zm6.871-6.464h8.427V25.2H24.461ZM34.469,25.2V21.372L38.515,25.2ZM22.881,21.372V25.2H18.835ZM4.279,55.464V36.55a3.147,3.147,0,0,1,3.136-3.136H9v25.21H7.415A3.168,3.168,0,0,1,4.279,55.464Zm6.3,3.16V33.414h4.908L14,52.16a3.158,3.158,0,0,0,3.136,3.4h23.1a3.243,3.243,0,0,0,2.322-1.006,3.191,3.191,0,0,0,.814-2.394L41.891,33.414h4.932v25.21Zm42.543-3.16a3.173,3.173,0,0,1-3.16,3.16h-1.58V33.414h1.58a3.152,3.152,0,0,1,3.16,3.136Z" transform="translate(-2.699 -18.762)"></path></g><g transform="translate(5.859 42.99)"><path class="web-design-responsive-a" d="M3.6,19.774a.777.777,0,0,0-.766.79v4.453a.778.778,0,1,0,1.556,0V20.564A.782.782,0,0,0,3.6,19.774Z" transform="translate(-2.831 -19.774)"></path></g><g transform="translate(49.959 42.99)"><path class="web-design-responsive-a" d="M5.463,19.774a.8.8,0,0,0-.79.79v4.453a.79.79,0,0,0,1.58,0V20.564A.8.8,0,0,0,5.463,19.774Z" transform="translate(-4.673 -19.774)"></path></g><g transform="translate(19.147 28.698)"><path class="web-design-responsive-a" d="M5.78,25.306a7.186,7.186,0,0,0,14.317,0,3.184,3.184,0,1,0-1.58-.024,5.608,5.608,0,0,1-11.157,0,3.138,3.138,0,1,0-1.58.024Zm11.971-3.017a1.581,1.581,0,0,1,3.16,0,1.457,1.457,0,0,1-.79,1.317v-.527a.79.79,0,1,0-1.58,0v.527A1.457,1.457,0,0,1,17.751,22.289Zm-11.2-1.532A1.533,1.533,0,0,1,8.1,22.289a1.457,1.457,0,0,1-.79,1.317v-.527a.762.762,0,0,0-.766-.79.787.787,0,0,0-.814.79v.527a1.481,1.481,0,0,1-.766-1.317A1.539,1.539,0,0,1,6.546,20.757Z" transform="translate(-3.386 -19.177)"></path></g></g></svg>