<svg xmlns="http://www.w3.org/2000/svg" width="69.917" height="51.667" viewBox="0 0 69.917 51.667"><defs><style>.web-design-seo-a{fill:#85985a;}</style></defs><g transform="translate(-1062.956 -1799.479)"><path class="web-design-seo-a" d="M1138.019,1831.226a19.146,19.146,0,1,0-1.689,1.689l17.88,17.88a1.194,1.194,0,1,0,1.689-1.689Zm-31.049-12.635a16.724,16.724,0,1,1,16.724,16.724A16.743,16.743,0,0,1,1106.97,1818.591Z" transform="translate(-26.112)"></path><path class="web-design-seo-a" d="M1078.68,1863.727a1.194,1.194,0,0,0-1.194,1.194v1.593a1.194,1.194,0,1,0,2.389,0v-1.593A1.194,1.194,0,0,0,1078.68,1863.727Z" transform="translate(-9.115 -40.305)"></path><path class="web-design-seo-a" d="M1064.15,1853.47a1.2,1.2,0,0,0-1.194,1.194v5.415a1.194,1.194,0,1,0,2.389,0v-5.415A1.2,1.2,0,0,0,1064.15,1853.47Z" transform="translate(0 -33.87)"></path><path class="web-design-seo-a" d="M1093.637,1845.778a1.194,1.194,0,0,0-1.194,1.194v8.282a1.194,1.194,0,1,0,2.389,0v-8.282A1.194,1.194,0,0,0,1093.637,1845.778Z" transform="translate(-18.498 -29.045)"></path><path class="web-design-seo-a" d="M1123.552,1846.2a1.194,1.194,0,0,0-1.194,1.194v8.123a1.194,1.194,0,1,0,2.389,0V1847.4A1.194,1.194,0,0,0,1123.552,1846.2Z" transform="translate(-37.263 -29.313)"></path><path class="web-design-seo-a" d="M1139.363,1838.513a1.2,1.2,0,0,0-1.194,1.195V1850.7a1.194,1.194,0,0,0,2.389,0v-10.989A1.2,1.2,0,0,0,1139.363,1838.513Z" transform="translate(-47.183 -24.487)"></path><path class="web-design-seo-a" d="M1155.174,1818.855a1.194,1.194,0,0,0-1.194,1.194v18.315a1.195,1.195,0,0,0,2.389,0v-18.315A1.194,1.194,0,0,0,1155.174,1818.855Z" transform="translate(-57.101 -12.156)"></path><path class="web-design-seo-a" d="M1170.559,1818.855a1.194,1.194,0,0,0-1.194,1.194v18.315a1.194,1.194,0,0,0,2.389,0v-18.315A1.194,1.194,0,0,0,1170.559,1818.855Z" transform="translate(-66.753 -12.156)"></path><path class="web-design-seo-a" d="M1187.566,1854.986v-8.441a1.194,1.194,0,0,0-2.389,0v8.441a1.194,1.194,0,0,0,2.389,0Z" transform="translate(-76.672 -28.777)"></path><path class="web-design-seo-a" d="M1215,1857.521a1.2,1.2,0,0,0,1.194-1.194v-7.644a1.194,1.194,0,1,0-2.389,0v7.644A1.2,1.2,0,0,0,1215,1857.521Z" transform="translate(-94.633 -30.117)"></path><path class="web-design-seo-a" d="M1229.96,1847.87a1.194,1.194,0,0,0,1.194-1.194V1833.3a1.194,1.194,0,1,0-2.389,0v13.378A1.194,1.194,0,0,0,1229.96,1847.87Z" transform="translate(-104.016 -20.466)"></path><path class="web-design-seo-a" d="M1245.345,1841.077a1.194,1.194,0,0,0-1.194,1.195v10.034a1.194,1.194,0,1,0,2.389,0v-10.034A1.2,1.2,0,0,0,1245.345,1841.077Z" transform="translate(-113.667 -26.096)"></path></g></svg>