<svg xmlns="http://www.w3.org/2000/svg" width="60" height="59.999" viewBox="0 0 60 59.999"><defs><style>.a{fill:#85985a;}</style></defs><g transform="translate(-176 -4892)"><g transform="translate(176.001 4891.999)"><g transform="translate(-1)"><path class="a" d="M4,50H20.382l-2,4H15a3,3,0,0,0,0,6H43a3,3,0,0,0,0-6H39.618l-2-4H54a3.1,3.1,0,0,0,3-3.18V11.164l.957-.957.008-.012,2.148-2.146a3.036,3.036,0,0,0,0-4.287L57.238.888a3.035,3.035,0,0,0-4.287,0L50.805,3.035l-.012.008L49.836,4H4A3.1,3.1,0,0,0,1,7.18V46.82A3.1,3.1,0,0,0,4,50Zm40,7a1,1,0,0,1-1,1H15a1,1,0,0,1,0-2H43A1,1,0,0,1,44,57Zm-6.618-3H20.618l2-4H35.382Zm4.486-38.362,3.492,3.491-5.355,1.854Zm3.868,1.04,8.639-8.639L55.836,9.5,47.2,18.139ZM54.365,2.3a1.031,1.031,0,0,1,1.459,0L58.7,5.176a1.032,1.032,0,0,1,0,1.459L57.25,8.084,52.916,3.752ZM51.5,5.164l1.461,1.461-8.639,8.639L42.861,13.8ZM4,6H47.836l-7.1,7.1a.981.981,0,0,0-.23.384H40.5l-2.387,6.847A2,2,0,0,0,39.995,23a2.064,2.064,0,0,0,.68-.116L47.522,20.5v-.007a.981.981,0,0,0,.384-.23l7.1-7.1V42H11a1,1,0,0,0,0,2H55v2.82A1.116,1.116,0,0,1,54,48H4a1.116,1.116,0,0,1-1-1.18V44H7a1,1,0,0,0,0-2H3V7.18A1.116,1.116,0,0,1,4,6Z"></path><path class="a" d="M8,22H32a3,3,0,0,0,3-3V11a3,3,0,0,0-3-3H8a3,3,0,0,0-3,3v8A3,3,0,0,0,8,22ZM33,11v3H30a1,1,0,0,1-1-1V10h3A1,1,0,0,1,33,11ZM7,11a1,1,0,0,1,1-1H27v3a3,3,0,0,0,3,3h3v3a1,1,0,0,1-1,1H8a1,1,0,0,1-1-1Z"></path><path class="a" d="M21,24H8a2,2,0,0,0-2,2V38a2,2,0,0,0,2,2H21a2,2,0,0,0,2-2V26A2,2,0,0,0,21,24Zm0,2v8H8V26ZM8,38V36H21v2Z"></path><path class="a" d="M13.293,31.707a1,1,0,0,0,1.414,0l1-1a1,1,0,0,0,0-1.414l-1-1a1,1,0,0,0-1.414,1.414l.293.293-.293.293a1,1,0,0,0,0,1.414Z"></path><path class="a" d="M25,26a1,1,0,0,0,1,1H52a1,1,0,0,0,0-2H26A1,1,0,0,0,25,26Z"></path><path class="a" d="M52,29H48a1,1,0,0,0,0,2h4a1,1,0,0,0,0-2Z"></path><path class="a" d="M26,31H44a1,1,0,0,0,0-2H26a1,1,0,0,0,0,2Z"></path><path class="a" d="M52,33H33a1,1,0,0,0,0,2H52a1,1,0,0,0,0-2Z"></path><path class="a" d="M26,35h3a1,1,0,0,0,0-2H26a1,1,0,0,0,0,2Z"></path><path class="a" d="M39,37H26a1,1,0,0,0,0,2H39a1,1,0,0,0,0-2Z"></path></g></g></g></svg>