<svg xmlns="http://www.w3.org/2000/svg" width="47.667" height="47.688" viewBox="0 0 47.667 47.688"><defs><style>.web-design-optimize-seo-a{fill:#85985a;}</style></defs><g transform="translate(-8.094 -37.805)"><g transform="translate(8.094 37.804)"><path class="web-design-optimize-seo-a" d="M52.16,37.8H11.695a3.594,3.594,0,0,0-3.6,3.623v4.7a.714.714,0,1,0,1.427,0v-4.7a2.2,2.2,0,0,1,2.174-2.2H52.16a2.179,2.179,0,0,1,2.152,2.2v4.7a.725.725,0,0,0,1.449,0v-4.7A3.608,3.608,0,0,0,52.16,37.8Z" transform="translate(-8.094 -37.804)"></path></g><g transform="translate(8.094 59.98)"><path class="web-design-optimize-seo-a" d="M55.036,38.814a.75.75,0,0,0-.725.747V52.032a2.16,2.16,0,0,1-2.152,2.174H11.695a2.179,2.179,0,0,1-2.174-2.174V39.56a.714.714,0,1,0-1.427,0V52.032a3.589,3.589,0,0,0,3.6,3.6H26.361L25.33,59.255H21.443a2.536,2.536,0,0,0,0,5.072H42.389a2.536,2.536,0,0,0,0-5.072H38.525l-1.032-3.623H52.16a3.6,3.6,0,0,0,3.6-3.6V39.56A.75.75,0,0,0,55.036,38.814ZM43.487,61.78a1.069,1.069,0,0,1-1.1,1.076H21.443a1.064,1.064,0,0,1-1.076-1.076A1.078,1.078,0,0,1,21.443,60.7H42.389A1.083,1.083,0,0,1,43.487,61.78ZM37.01,59.255H26.823l1.032-3.623h8.124Z" transform="translate(-8.094 -38.814)"></path></g><g transform="translate(37.845 42.129)"><path class="web-design-optimize-seo-a" d="M22.315,42.722a.712.712,0,0,0,.7-.725V39.45A1.443,1.443,0,0,0,21.591,38H10.174a.725.725,0,0,0,0,1.449H21.591V42A.731.731,0,0,0,22.315,42.722Z" transform="translate(-9.449 -38.001)"></path></g><g transform="translate(12.419 42.129)"><path class="web-design-optimize-seo-a" d="M9.74,42V39.45h6.631a.725.725,0,0,0,0-1.449H9.74A1.448,1.448,0,0,0,8.291,39.45V42A.725.725,0,0,0,9.74,42Z" transform="translate(-8.291 -38.001)"></path></g><g transform="translate(12.419 59.98)"><path class="web-design-optimize-seo-a" d="M9.016,38.814a.75.75,0,0,0-.725.747v10.3A1.434,1.434,0,0,0,9.74,51.307H33.8a.725.725,0,1,0,0-1.449H9.74V39.56A.75.75,0,0,0,9.016,38.814Z" transform="translate(-8.291 -38.814)"></path></g><g transform="translate(48.779 59.98)"><path class="web-design-optimize-seo-a" d="M11.155,51.307a1.429,1.429,0,0,0,1.427-1.449V39.56a.732.732,0,0,0-.7-.747.75.75,0,0,0-.725.747v10.3h-.483a.725.725,0,1,0,0,1.449Z" transform="translate(-9.947 -38.814)"></path></g><g transform="translate(8.094 42.129)"><path class="web-design-optimize-seo-a" d="M55.036,44.873H40.018a12,12,0,0,0-21.693,0H8.819a.722.722,0,0,0-.725.747V53a.712.712,0,0,0,.725.7h8.914a11.966,11.966,0,0,0,17.038,6.96l6.762,6.784a3.154,3.154,0,0,0,2.174.9,3.039,3.039,0,0,0,2.174-.9l.7-.681a3.145,3.145,0,0,0,.9-2.2,3.225,3.225,0,0,0-.9-2.2l-6.762-6.74a16.225,16.225,0,0,0,.79-1.932H55.036a.727.727,0,0,0,.725-.7V45.62A.736.736,0,0,0,55.036,44.873ZM9.521,52.251V46.322h8.212a12.267,12.267,0,0,0-.593,3.711,12.448,12.448,0,0,0,.22,2.218Zm9.068-2.218A10.583,10.583,0,1,1,29.172,60.594,10.6,10.6,0,0,1,18.589,50.033ZM45.573,63.4a1.765,1.765,0,0,1,.461,1.164,1.723,1.723,0,0,1-.461,1.164l-.7.681a1.63,1.63,0,0,1-2.305,0l-6.543-6.521a11.871,11.871,0,0,0,3.008-3.008ZM40.611,46.322h6.323v5.928h-5.95a12.448,12.448,0,0,0,.22-2.218A12.267,12.267,0,0,0,40.611,46.322Zm13.7,5.928H48.383V46.322h5.928Z" transform="translate(-8.094 -38.001)"></path></g></g></svg>