<?xml version="1.0" encoding="UTF-8"?>
<svg version="1.1" xmlns="http://www.w3.org/2000/svg" width="1151" height="673">
<path d="M0 0 C379.83 0 759.66 0 1151 0 C1151 222.09 1151 444.18 1151 673 C771.17 673 391.34 673 0 673 C0 450.91 0 228.82 0 0 Z " fill="#FEFEFE" transform="translate(0,0)"/>
<path d="M0 0 C21.12 0 42.24 0 64 0 C64 21.12 64 42.24 64 64 C42.88 64 21.76 64 0 64 C0 42.88 0 21.76 0 0 Z " fill="#F6F6F6" transform="translate(869,378)"/>
<path d="M0 0 C21.12 0 42.24 0 64 0 C64 21.12 64 42.24 64 64 C42.88 64 21.76 64 0 64 C0 42.88 0 21.76 0 0 Z " fill="#EAEAEA" transform="translate(705,378)"/>
<path d="M0 0 C21.12 0 42.24 0 64 0 C64 21.12 64 42.24 64 64 C42.88 64 21.76 64 0 64 C0 42.88 0 21.76 0 0 Z " fill="#0D0D0D" transform="translate(705,214)"/>
<path d="M0 0 C21.12 0 42.24 0 64 0 C64 21.12 64 42.24 64 64 C42.88 64 21.76 64 0 64 C0 42.88 0 21.76 0 0 Z " fill="#F5F5F5" transform="translate(705,50)"/>
<path d="M0 0 C21.12 0 42.24 0 64 0 C64 21.12 64 42.24 64 64 C42.88 64 21.76 64 0 64 C0 42.88 0 21.76 0 0 Z " fill="#FBFBFB" transform="translate(213,50)"/>
<path d="M0 0 C1.10794922 -0.01260864 2.21589844 -0.02521729 3.35742188 -0.03820801 C4.54916016 -0.03011108 5.74089844 -0.02201416 6.96875 -0.01367188 C8.19658203 -0.01749878 9.42441406 -0.02132568 10.68945312 -0.02526855 C13.28516459 -0.02799029 15.88090336 -0.02061099 18.4765625 -0.00390625 C22.45374599 0.01749738 26.42912282 -0.0037015 30.40625 -0.02929688 C32.92708733 -0.02665365 35.44792353 -0.02152878 37.96875 -0.01367188 C39.16048828 -0.0217688 40.35222656 -0.02986572 41.58007812 -0.03820801 C43.24200195 -0.01929504 43.24200195 -0.01929504 44.9375 0 C45.91138672 0.00318237 46.88527344 0.00636475 47.88867188 0.00964355 C51.29329922 0.6799054 52.45257826 1.71348393 54.46875 4.51757812 C54.94976807 7.27642822 54.94976807 7.27642822 54.92285156 10.47949219 C54.92236816 11.69717285 54.92188477 12.91485352 54.92138672 14.16943359 C54.89069092 16.08199951 54.89069092 16.08199951 54.859375 18.03320312 C54.85534668 19.20866699 54.85131836 20.38413086 54.84716797 21.59521484 C54.82623985 25.98616138 54.77039445 30.37688543 54.71875 34.76757812 C54.63625 44.58507812 54.55375 54.40257812 54.46875 64.51757812 C33.34875 64.51757812 12.22875 64.51757812 -9.53125 64.51757812 C-9.61375 54.70007813 -9.69625 44.88257813 -9.78125 34.76757812 C-9.81766602 31.67157227 -9.85408203 28.57556641 -9.89160156 25.38574219 C-9.90328275 22.9349029 -9.91347592 20.48405586 -9.921875 18.03320312 C-9.94233887 16.75815918 -9.96280273 15.48311523 -9.98388672 14.16943359 C-9.98437012 12.95175293 -9.98485352 11.73407227 -9.98535156 10.47949219 C-9.99423401 9.42248108 -10.00311646 8.36546997 -10.01226807 7.27642822 C-8.99534413 1.44392237 -5.51575981 0.01802387 0 0 Z " fill="#EEEEEE" transform="translate(386.53125,541.482421875)"/>
<path d="M0 0 C21.12 0 42.24 0 64 0 C64 19.14 64 38.28 64 58 C42.88 58 21.76 58 0 58 C0 38.86 0 19.72 0 0 Z " fill="#FCFCFC" transform="translate(377,381)"/>
<path d="M0 0 C21.12 0 42.24 0 64 0 C64 19.14 64 38.28 64 58 C42.88 58 21.76 58 0 58 C0 38.86 0 19.72 0 0 Z " fill="#EFEFEF" transform="translate(213,381)"/>
<path d="M0 0 C21.12 0 42.24 0 64 0 C64 19.14 64 38.28 64 58 C42.88 58 21.76 58 0 58 C0 38.86 0 19.72 0 0 Z " fill="#141414" transform="translate(49,381)"/>
<path d="M0 0 C7.92 0 15.84 0 24 0 C24.66 1.98 25.32 3.96 26 6 C31.94 6.33 37.88 6.66 44 7 C44 23.17 44 39.34 44 56 C37.4 56 30.8 56 24 56 C24 57.32 24 58.64 24 60 C24.99 60 25.98 60 27 60 C27 61.32 27 62.64 27 64 C17.1 64 7.2 64 -3 64 C-3 62.68 -3 61.36 -3 60 C-2.01 60 -1.02 60 0 60 C0 58.68 0 57.36 0 56 C-6.6 56 -13.2 56 -20 56 C-20 39.83 -20 23.66 -20 7 C-14.06 6.67 -8.12 6.34 -2 6 C-1.34 4.02 -0.68 2.04 0 0 Z " fill="#121212" transform="translate(1053,214)"/>
<path d="M0 0 C21.12 0 42.24 0 64 0 C64 17.82 64 35.64 64 54 C42.88 54 21.76 54 0 54 C0 36.18 0 18.36 0 0 Z " fill="#F8F8F8" transform="translate(49,219)"/>
<path d="M0 0 C21.12 0 42.24 0 64 0 C64 17.82 64 35.64 64 54 C42.88 54 21.76 54 0 54 C0 36.18 0 18.36 0 0 Z " fill="#0D0D0D" transform="translate(49,55)"/>
<path d="M0 0 C21.12 0 42.24 0 64 0 C64 16.17 64 32.34 64 49 C56.41 49.33 48.82 49.66 41 50 C41 50.66 41 51.32 41 52 C44.3 52 47.6 52 51 52 C51 53.32 51 54.64 51 56 C38.46 56 25.92 56 13 56 C13 54.68 13 53.36 13 52 C16.3 52 19.6 52 23 52 C23 51.34 23 50.68 23 50 C11.615 49.505 11.615 49.505 0 49 C0 32.83 0 16.66 0 0 Z " fill="#191919" transform="translate(49,546)"/>
<path d="M0 0 C1.546875 0.0309375 1.546875 0.0309375 3.125 0.0625 C6.9965064 1.32494774 7.78716636 3.21274703 9.70703125 6.6796875 C11.47448628 9.85149502 13.57851989 12.76053748 15.66796875 15.7265625 C19.60863147 22.45226838 19.84072226 29.4077633 19 37 C16.97544696 44.06920379 13.96825704 49.63951214 9 55 C7.9731657 56.6502694 6.96432076 58.31243867 6 60 C2.16155931 63.83844069 -8.44719679 63.17036055 -13.5625 63.25 C-28.46078563 62.98107788 -28.46078563 62.98107788 -32.6171875 59.73828125 C-34.31537609 57.60355266 -35.64262637 55.36570832 -37 53 C-37.50660156 52.18660156 -38.01320313 51.37320313 -38.53515625 50.53515625 C-39.03917969 49.71917969 -39.54320312 48.90320313 -40.0625 48.0625 C-40.56910156 47.24910156 -41.07570313 46.43570313 -41.59765625 45.59765625 C-45.63143297 38.12561859 -46.52219466 29.67363462 -44.3125 21.4375 C-42.34987132 16.72719117 -39.5510838 12.82444987 -36.37109375 8.859375 C-34.78301297 6.84980623 -34.78301297 6.84980623 -33.5 3.5625 C-32 1 -32 1 -29.1875 0.1875 C-27.6096875 0.0946875 -27.6096875 0.0946875 -26 0 C-25.07703125 -0.16628906 -24.1540625 -0.33257812 -23.203125 -0.50390625 C-15.57807107 -1.68485972 -7.57632821 -1.39157049 0 0 Z " fill="#191919" transform="translate(422,51)"/>
<path d="M0 0 C21.12 0 42.24 0 64 0 C64 15.51 64 31.02 64 47 C58.06 47 52.12 47 46 47 C45.67 48.98 45.34 50.96 45 53 C43.4765625 54.86328125 43.4765625 54.86328125 41.625 56.3125 C40.71621094 57.04919922 40.71621094 57.04919922 39.7890625 57.80078125 C35.97944798 60.35438749 32.45953378 60.37792659 28 60 C23.68812189 57.717241 20.66303817 55.0969818 18 51 C18 49.68 18 48.36 18 47 C12.06 47 6.12 47 0 47 C0 31.49 0 15.98 0 0 Z " fill="#0C0C0C" transform="translate(541,216)"/>
<path d="M0 0 C21.12 0 42.24 0 64 0 C64 15.51 64 31.02 64 47 C58.06 47 52.12 47 46 47 C45.67 48.98 45.34 50.96 45 53 C43.4765625 54.86328125 43.4765625 54.86328125 41.625 56.3125 C40.71621094 57.04919922 40.71621094 57.04919922 39.7890625 57.80078125 C35.97944798 60.35438749 32.45953378 60.37792659 28 60 C23.68812189 57.717241 20.66303817 55.0969818 18 51 C18 49.68 18 48.36 18 47 C12.06 47 6.12 47 0 47 C0 31.49 0 15.98 0 0 Z " fill="#101010" transform="translate(377,216)"/>
<path d="M0 0 C21.12 0 42.24 0 64 0 C64 16.5 64 33 64 50 C42.88 50 21.76 50 0 50 C0 33.5 0 17 0 0 Z " fill="#101010" transform="translate(213,221)"/>
<path d="M0 0 C5.61886334 0.11955028 9.70232131 1.72394834 14.09936523 5.25610352 C18.43020185 11.50841857 16.87973856 20.15298443 16.5625 27.4375 C16.51731722 29.23622828 16.47625924 31.0350652 16.43945312 32.83398438 C16.34064795 37.22535139 16.18559133 41.61147897 16 46 C13.69 46 11.38 46 9 46 C9 48.31 9 50.62 9 53 C-4.53 53 -18.06 53 -32 53 C-32 55.31 -32 57.62 -32 60 C-37.61886334 59.88044972 -41.70232131 58.27605166 -46.09936523 54.74389648 C-50.43020185 48.49158143 -48.87973856 39.84701557 -48.5625 32.5625 C-48.51731722 30.76377172 -48.47625924 28.9649348 -48.43945312 27.16601562 C-48.34064795 22.77464861 -48.18559133 18.38852103 -48 14 C-45.69 14 -43.38 14 -41 14 C-41 11.69 -41 9.38 -41 7 C-27.47 7 -13.94 7 0 7 C0 4.69 0 2.38 0 0 Z " fill="#F3F3F3" transform="translate(1081,52)"/>
<path d="M0 0 C16.83 0 33.66 0 51 0 C51 5.28 51 10.56 51 16 C52.65 16.33 54.3 16.66 56 17 C60.35062099 20.15633287 63.42251426 22.71137066 64.37109375 28.11328125 C64.53067558 33.39825611 63.66587261 36.42443209 60.38671875 40.58984375 C59 42 59 42 56 44 C55.69359492 46.68104447 55.53326942 49.18968239 55.5 51.875 C55.40746037 59.26495076 55.40746037 59.26495076 53.625 62.48046875 C52 64 52 64 49.5 64.4375 C47 64 47 64 44 61 C43.67 55.39 43.34 49.78 43 44 C28.81 43.67 14.62 43.34 0 43 C0 28.81 0 14.62 0 0 Z " fill="#131313" transform="translate(1033,378)"/>
<path d="M0 0 C17.16 0 34.32 0 52 0 C52 7.92 52 15.84 52 24 C53.32 23.34 54.64 22.68 56 22 C57.03531726 22.90027588 58.05294165 23.82093035 59.0625 24.75 C59.63097656 25.26046875 60.19945312 25.7709375 60.78515625 26.296875 C62 28 62 28 61.68359375 30.203125 C61.45800781 30.79609375 61.23242188 31.3890625 61 32 C61.99 32 62.98 32 64 32 C64 35.63 64 39.26 64 43 C63.01 43.495 63.01 43.495 62 44 C61.9175 44.5775 61.835 45.155 61.75 45.75 C60.56521939 49.30434184 57.93835387 50.74934597 55 53 C54.01 52.34 53.02 51.68 52 51 C52 51.99 52 52.98 52 54 C48.7 54 45.4 54 42 54 C42 53.01 42 52.02 42 51 C41.278125 51.268125 40.55625 51.53625 39.8125 51.8125 C37 52 37 52 34.1875 49.75 C32 47 32 47 32 44 C21.44 43.67 10.88 43.34 0 43 C0 28.81 0 14.62 0 0 Z " fill="#161616" transform="translate(213,547)"/>
<path d="M0 0 C1.32 0 2.64 0 4 0 C4 0.99 4 1.98 4 3 C4.8353125 3.12955078 4.8353125 3.12955078 5.6875 3.26171875 C15.47652107 5.06408918 22.30251487 9.81551739 28 18 C30.05526033 22.01577462 31 25.43528752 31 30 C31.99 30 32.98 30 34 30 C34 31.32 34 32.64 34 34 C33.01 34 32.02 34 31 34 C30.91363281 34.556875 30.82726562 35.11375 30.73828125 35.6875 C29.19964478 44.04413111 25.69922679 50.31913845 19.03515625 55.6796875 C14.53239396 58.60086534 9.40885108 61 4 61 C4 61.99 4 62.98 4 64 C2.68 64 1.36 64 0 64 C0 63.01 0 62.02 0 61 C-0.99 60.9175 -1.98 60.835 -3 60.75 C-9.95845019 59.71184412 -15.58424268 56.27407882 -20.390625 51.203125 C-23.93065667 46.35706222 -27 40.06208917 -27 34 C-27.99 34 -28.98 34 -30 34 C-30 32.68 -30 31.36 -30 30 C-29.01 30 -28.02 30 -27 30 C-26.9175 29.01 -26.835 28.02 -26.75 27 C-25.5576251 19.00786554 -21.22775105 12.98726406 -15 8 C-10.16482238 4.85903816 -5.71731457 3.47644288 0 3 C0 2.01 0 1.02 0 0 Z " fill="#F9F9F9" transform="translate(571,378)"/>
<path d="M0 0 C5.86370482 3.28666257 10.02765277 7.77995953 13.1875 13.6875 C13.75 16 13.75 16 13.75 21 C18.7 21 23.65 21 28.75 21 C28.75 24.63 28.75 28.26 28.75 32 C23.14 32 17.53 32 11.75 32 C11.42 33.32 11.09 34.64 10.75 36 C16.69 36 22.63 36 28.75 36 C28.75 39.63 28.75 43.26 28.75 47 C22.34542302 47.09926025 15.94129895 47.17165417 9.53613281 47.21972656 C7.35962112 47.23977764 5.18316286 47.26702571 3.00683594 47.30175781 C-0.13099393 47.35056212 -3.26810835 47.37303438 -6.40625 47.390625 C-7.37115356 47.41127014 -8.33605713 47.43191528 -9.3302002 47.45318604 C-16.61243034 47.45557658 -21.88906191 45.88505305 -27.45703125 41.10546875 C-33.05094562 34.4227146 -35.94036755 28.71304679 -35.66015625 19.84375 C-34.60665889 12.53950161 -30.90434198 6.61476978 -25.0546875 2.18359375 C-17.12953006 -3.01407444 -8.68295344 -3.91195467 0 0 Z " fill="#141414" transform="translate(576.25,52)"/>
<path d="M0 0 C21.12 0 42.24 0 64 0 C64 21.12 64 42.24 64 64 C42.88 64 21.76 64 0 64 C0 42.88 0 21.76 0 0 Z M4 19 C4 32.53 4 46.06 4 60 C22.48 60 40.96 60 60 60 C60 46.47 60 32.94 60 19 C41.52 19 23.04 19 4 19 Z " fill="#0E0E0E" transform="translate(705,50)"/>
<path d="M0 0 C21.12 0 42.24 0 64 0 C64 21.12 64 42.24 64 64 C42.88 64 21.76 64 0 64 C0 42.88 0 21.76 0 0 Z M4 19 C4 32.53 4 46.06 4 60 C22.48 60 40.96 60 60 60 C60 46.47 60 32.94 60 19 C41.52 19 23.04 19 4 19 Z " fill="#0E0E0E" transform="translate(213,50)"/>
<path d="M0 0 C1.10794922 -0.01260864 2.21589844 -0.02521729 3.35742188 -0.03820801 C4.54916016 -0.03011108 5.74089844 -0.02201416 6.96875 -0.01367188 C8.19658203 -0.01749878 9.42441406 -0.02132568 10.68945312 -0.02526855 C13.28516459 -0.02799029 15.88090336 -0.02061099 18.4765625 -0.00390625 C22.45374599 0.01749738 26.42912282 -0.0037015 30.40625 -0.02929688 C32.92708733 -0.02665365 35.44792353 -0.02152878 37.96875 -0.01367188 C39.16048828 -0.0217688 40.35222656 -0.02986572 41.58007812 -0.03820801 C43.24200195 -0.01929504 43.24200195 -0.01929504 44.9375 0 C45.91138672 0.00318237 46.88527344 0.00636475 47.88867188 0.00964355 C51.29329922 0.6799054 52.45257826 1.71348393 54.46875 4.51757812 C54.94976807 7.27642822 54.94976807 7.27642822 54.92285156 10.47949219 C54.92236816 11.69717285 54.92188477 12.91485352 54.92138672 14.16943359 C54.89069092 16.08199951 54.89069092 16.08199951 54.859375 18.03320312 C54.85534668 19.20866699 54.85131836 20.38413086 54.84716797 21.59521484 C54.82623985 25.98616138 54.77039445 30.37688543 54.71875 34.76757812 C54.63625 44.58507812 54.55375 54.40257812 54.46875 64.51757812 C33.34875 64.51757812 12.22875 64.51757812 -9.53125 64.51757812 C-9.61375 54.70007813 -9.69625 44.88257813 -9.78125 34.76757812 C-9.81766602 31.67157227 -9.85408203 28.57556641 -9.89160156 25.38574219 C-9.90328275 22.9349029 -9.91347592 20.48405586 -9.921875 18.03320312 C-9.94233887 16.75815918 -9.96280273 15.48311523 -9.98388672 14.16943359 C-9.98437012 12.95175293 -9.98485352 11.73407227 -9.98535156 10.47949219 C-9.99423401 9.42248108 -10.00311646 8.36546997 -10.01226807 7.27642822 C-8.99534413 1.44392237 -5.51575981 0.01802387 0 0 Z M-5.53125 19.51757812 C-5.53125 33.04757812 -5.53125 46.57757812 -5.53125 60.51757812 C12.94875 60.51757812 31.42875 60.51757812 50.46875 60.51757812 C50.46875 46.98757813 50.46875 33.45757813 50.46875 19.51757812 C31.98875 19.51757812 13.50875 19.51757812 -5.53125 19.51757812 Z " fill="#0E0E0E" transform="translate(386.53125,541.482421875)"/>
<path d="M0 0 C18.48 0 36.96 0 56 0 C56 10.56 56 21.12 56 32 C51.38 32 46.76 32 42 32 C41.608125 30.9275 41.21625 29.855 40.8125 28.75 C39.25137671 25.09504784 37.37098839 23.19114245 34 21 C30.38069302 19.79356434 27.80768995 19.67731441 24 20 C20.13086829 22.08337861 17.25596401 24.20048166 15 28 C14.67 29.32 14.34 30.64 14 32 C9.38 32 4.76 32 0 32 C0 21.44 0 10.88 0 0 Z " fill="#F0F0F0" transform="translate(545,227)"/>
<path d="M0 0 C12.87 0 25.74 0 39 0 C39 12.54 39 25.08 39 38 C26.13 38 13.26 38 0 38 C0 25.46 0 12.92 0 0 Z " fill="#F0F0F0" transform="translate(61,67)"/>
<path d="M0 0 C18.48 0 36.96 0 56 0 C56 8.58 56 17.16 56 26 C37.52 26 19.04 26 0 26 C0 17.42 0 8.84 0 0 Z " fill="#FEFEFE" transform="translate(709,233)"/>
<path d="M0 0 C18.48 0 36.96 0 56 0 C56 10.23 56 20.46 56 31 C51.38 31 46.76 31 42 31 C41.608125 29.9275 41.21625 28.855 40.8125 27.75 C39.25137671 24.09504784 37.37098839 22.19114245 34 20 C30.38069302 18.79356434 27.80768995 18.67731441 24 19 C20.13086829 21.08337861 17.25596401 23.20048166 15 27 C14.67 28.32 14.34 29.64 14 31 C9.38 31 4.76 31 0 31 C0 20.77 0 10.54 0 0 Z " fill="#F5F5F5" transform="translate(381,228)"/>
<path d="M0 0 C5.61886334 0.11955028 9.70232131 1.72394834 14.09936523 5.25610352 C18.43020185 11.50841857 16.87973856 20.15298443 16.5625 27.4375 C16.51731722 29.23622828 16.47625924 31.0350652 16.43945312 32.83398438 C16.34064795 37.22535139 16.18559133 41.61147897 16 46 C13.69 46 11.38 46 9 46 C9 48.31 9 50.62 9 53 C-4.53 53 -18.06 53 -32 53 C-32 55.31 -32 57.62 -32 60 C-37.61886334 59.88044972 -41.70232131 58.27605166 -46.09936523 54.74389648 C-50.43020185 48.49158143 -48.87973856 39.84701557 -48.5625 32.5625 C-48.51731722 30.76377172 -48.47625924 28.9649348 -48.43945312 27.16601562 C-48.34064795 22.77464861 -48.18559133 18.38852103 -48 14 C-45.69 14 -43.38 14 -41 14 C-41 11.69 -41 9.38 -41 7 C-27.47 7 -13.94 7 0 7 C0 4.69 0 2.38 0 0 Z M-44 18 C-44.12375 23.3625 -44.2475 28.725 -44.375 34.25 C-44.42962402 35.93641602 -44.48424805 37.62283203 -44.54052734 39.36035156 C-44.55805813 40.70374693 -44.5733458 42.04717426 -44.5859375 43.390625 C-44.6166333 44.08269043 -44.6473291 44.77475586 -44.67895508 45.48779297 C-44.7466838 47.77631299 -44.7466838 47.77631299 -44 51 C-40.45940664 54.11630803 -40.45940664 54.11630803 -36 55 C-36 53.02 -36 51.04 -36 49 C-22.47 49 -8.94 49 5 49 C5 38.77 5 28.54 5 18 C-11.17 18 -27.34 18 -44 18 Z " fill="#141414" transform="translate(1081,52)"/>
<path d="M0 0 C13.2 0 26.4 0 40 0 C40 11.55 40 23.1 40 35 C26.8 35 13.6 35 0 35 C0 23.45 0 11.9 0 0 Z " fill="#EBEBEB" transform="translate(225,232)"/>
<path d="M0 0 C21.12 0 42.24 0 64 0 C64 19.14 64 38.28 64 58 C42.88 58 21.76 58 0 58 C0 38.86 0 19.72 0 0 Z M4 12 C4 25.86 4 39.72 4 54 C22.48 54 40.96 54 60 54 C60 40.14 60 26.28 60 12 C41.52 12 23.04 12 4 12 Z " fill="#141414" transform="translate(377,381)"/>
<path d="M0 0 C21.12 0 42.24 0 64 0 C64 19.14 64 38.28 64 58 C42.88 58 21.76 58 0 58 C0 38.86 0 19.72 0 0 Z M4 12 C4 25.86 4 39.72 4 54 C22.48 54 40.96 54 60 54 C60 40.14 60 26.28 60 12 C41.52 12 23.04 12 4 12 Z " fill="#141414" transform="translate(213,381)"/>
<path d="M0 0 C21.12 0 42.24 0 64 0 C64 21.12 64 42.24 64 64 C42.88 64 21.76 64 0 64 C0 42.88 0 21.76 0 0 Z M4 11 C4 27.17 4 43.34 4 60 C22.48 60 40.96 60 60 60 C60 43.83 60 27.66 60 11 C41.52 11 23.04 11 4 11 Z " fill="#141414" transform="translate(869,378)"/>
<path d="M0 0 C21.12 0 42.24 0 64 0 C64 21.12 64 42.24 64 64 C42.88 64 21.76 64 0 64 C0 42.88 0 21.76 0 0 Z M4 11 C4 27.17 4 43.34 4 60 C22.48 60 40.96 60 60 60 C60 43.83 60 27.66 60 11 C41.52 11 23.04 11 4 11 Z " fill="#141414" transform="translate(705,378)"/>
<path d="M0 0 C21.12 0 42.24 0 64 0 C64 17.82 64 35.64 64 54 C42.88 54 21.76 54 0 54 C0 36.18 0 18.36 0 0 Z M4 11 C4 23.87 4 36.74 4 50 C22.48 50 40.96 50 60 50 C60 37.13 60 24.26 60 11 C41.52 11 23.04 11 4 11 Z " fill="#101010" transform="translate(49,219)"/>
<path d="M0 0 C6.1867119 3.3526792 10.10202431 7.21729593 12.296875 13.9765625 C13.48426318 19.74782131 12.61236441 24.10606009 9.859375 29.2890625 C6.5428961 34.22106274 2.97105856 37.14618071 -2.703125 38.9765625 C-9.00923319 40.16639423 -14.22847922 39.1348649 -19.65234375 35.71484375 C-24.16027047 31.8938392 -27.02049076 27.21165518 -28.2421875 21.421875 C-28.62183566 15.00781927 -26.66449837 9.98508194 -22.703125 4.9765625 C-16.19971765 -0.98608012 -8.39617353 -3.17889807 0 0 Z " fill="#181818" transform="translate(908.703125,63.0234375)"/>
<path d="M0 0 C15.84 0 31.68 0 48 0 C48 8.58 48 17.16 48 26 C32.16 26 16.32 26 0 26 C0 17.42 0 8.84 0 0 Z " fill="#050505" transform="translate(713,393)"/>
<path d="M0 0 C4.71872298 2.7429975 7.65280056 6.55972606 9.75 11.5625 C10.85149524 17.14129604 10.50658897 21.94771253 7.6875 26.9375 C4.04780154 31.83748186 0.86991412 35.04052203 -5.30859375 36.07421875 C-10.77999205 36.35885797 -15.20040294 36.21496334 -19.8125 33.0625 C-24.94211111 28.42090686 -27.39919459 23.4721187 -27.8125 16.5625 C-27.51437414 10.30185689 -25.07135956 6.13362811 -20.48828125 1.95703125 C-14.16119825 -2.62464954 -7.17049882 -2.95577814 0 0 Z " fill="#111111" transform="translate(922.25,215.4375)"/>
<path d="M0 0 C3.83506093 -0.16280919 7.66313843 -0.28130919 11.5 -0.375 C12.57765625 -0.42527344 13.6553125 -0.47554687 14.765625 -0.52734375 C21.38863222 -0.64849632 25.33734482 -0.00321102 30.39648438 4.40161133 C31.19022461 5.19281372 31.19022461 5.19281372 32 6 C32.52400391 6.51006592 33.04800781 7.02013184 33.58789062 7.5456543 C35.84068709 9.96554095 36.95185218 11.55704008 37.3125 14.875 C37.209375 15.57625 37.10625 16.2775 37 17 C38.051875 16.401875 39.10375 15.80375 40.1875 15.1875 C40.83074219 14.8265625 41.47398437 14.465625 42.13671875 14.09375 C44.15229612 12.95083349 44.15229612 12.95083349 46.5 11.1875 C50.09156601 9.48150615 52.22614058 9.90214999 56 11 C58.21484375 13.5625 58.21484375 13.5625 60 16 C51.38480668 24.51383811 44.09926015 29.2519188 31.6875 29.25 C23.06751201 29.02464955 17.58532245 27.89473097 11.203125 21.9140625 C7.74463175 18.90934319 4.46190607 18.58516801 0 18 C0 12.06 0 6.12 0 0 Z " fill="#101010" transform="translate(870,250)"/>
<path d="M0 0 C11.88 0 23.76 0 36 0 C37.98 4.29 39.96 8.58 42 13 C36.8462321 18.24579946 31.59373231 23.22920247 26 28 C24.98099609 28.87591797 24.98099609 28.87591797 23.94140625 29.76953125 C22.296734 31.18255952 20.64873067 32.59170922 19 34 C15.07661243 32.38393798 12.28564325 29.68702695 9.25 26.8125 C8.18695067 25.81950603 7.12314651 24.82731953 6.05859375 23.8359375 C5.54022949 23.3522168 5.02186523 22.86849609 4.48779297 22.37011719 C1.86369491 19.95357004 -0.85223266 17.64479677 -3.57421875 15.33984375 C-5 14 -5 14 -6 12 C-4.02 8.04 -2.04 4.08 0 0 Z " fill="#0F0F0F" transform="translate(391,398)"/>
<path d="M0 0 C14.52 0 29.04 0 44 0 C44 1.65 44 3.3 44 5 C42.948125 5.37125 41.89625 5.7425 40.8125 6.125 C36.87932358 7.85975464 33.84227857 10.026296 32 14 C31.32454103 18.91454631 31.80109212 23.20436847 33 28 C22.11 28 11.22 28 0 28 C0 18.76 0 9.52 0 0 Z " fill="#F7F7F7" transform="translate(1037,389)"/>
<path d="M0 0 C14.52 0 29.04 0 44 0 C44 2.97 44 5.94 44 9 C42.02 9 40.04 9 38 9 C38 9.99 38 10.98 38 12 C36.88625 12.12375 36.88625 12.12375 35.75 12.25 C32.41323787 13.16002604 31.09984303 14.27798125 29 17 C29 18.32 29 19.64 29 21 C28.01 21 27.02 21 26 21 C26 23.31 26 25.62 26 28 C17.42 28 8.84 28 0 28 C0 18.76 0 9.52 0 0 Z " fill="#FAFAFA" transform="translate(217,558)"/>
<path d="M0 0 C2.97 0 5.94 0 9 0 C9.03867188 1.37671875 9.03867188 1.37671875 9.078125 2.78125 C9.47877182 11.44979022 9.99028825 18.09580698 16.375 24.3125 C17.24125 24.869375 18.1075 25.42625 19 26 C19.928125 26.598125 20.85625 27.19625 21.8125 27.8125 C26.69449387 29.63128203 30.50445791 29.09803852 35.1484375 27.0546875 C40.24123866 24.19590321 42.52546959 21.24600448 45 16 C45.33 15.34 45.66 14.68 46 14 C46.23029956 11.62876754 46.41119942 9.25258057 46.5625 6.875 C46.64628906 5.59367188 46.73007813 4.31234375 46.81640625 2.9921875 C46.90728516 1.51105469 46.90728516 1.51105469 47 0 C49.97 0 52.94 0 56 0 C56 11.22 56 22.44 56 34 C37.52 34 19.04 34 0 34 C0 22.78 0 11.56 0 0 Z " fill="#F9F9F9" transform="translate(1037,225)"/>
<path d="M0 0 C9.24 0 18.48 0 28 0 C28 11.22 28 22.44 28 34 C18.76 34 9.52 34 0 34 C0 22.78 0 11.56 0 0 Z " fill="#F0F0F0" transform="translate(67,401)"/>
<path d="M0 0 C18.48 0 36.96 0 56 0 C56 6.6 56 13.2 56 20 C54.68 19.01 53.36 18.02 52 17 C51.34 17 50.68 17 50 17 C50.185625 17.5775 50.37125 18.155 50.5625 18.75 C51.04023546 21.20692525 50.75729364 22.64397534 50 25 C50.61875 24.690625 51.2375 24.38125 51.875 24.0625 C53.25 23.375 54.625 22.6875 56 22 C56 28.6 56 35.2 56 42 C52.7 42 49.4 42 46 42 C46 29.46 46 16.92 46 4 C34.12 4 22.24 4 10 4 C10 16.54 10 29.08 10 42 C6.7 42 3.4 42 0 42 C0 35.4 0 28.8 0 22 C1.32 22.99 2.64 23.98 4 25 C4.66 25 5.32 25 6 25 C5.814375 24.236875 5.62875 23.47375 5.4375 22.6875 C5 20 5 20 6 17 C5.071875 17.4640625 5.071875 17.4640625 4.125 17.9375 C2.75 18.625 1.375 19.3125 0 20 C0 13.4 0 6.8 0 0 Z " fill="#FCFCFC" transform="translate(53,393)"/>
<path d="M0 0 C0.680625 -0.00515625 1.36125 -0.0103125 2.0625 -0.015625 C4 0.25 4 0.25 7 2.25 C9.59606914 2.55074681 12.08553123 2.75795162 14.6875 2.875 C17.100625 2.99875 19.51375 3.1225 22 3.25 C22 9.19 22 15.13 22 21.25 C19.7725 21.37375 17.545 21.4975 15.25 21.625 C10.88251316 21.86763816 7.83455895 22.20599203 4 24.25 C1.74609375 24.515625 1.74609375 24.515625 -0.5625 24.5 C-1.32691406 24.50515625 -2.09132813 24.5103125 -2.87890625 24.515625 C-5 24.25 -5 24.25 -8 22.25 C-12.65907729 21.67507312 -17.30899966 21.5082202 -22 21.25 C-22 15.31 -22 9.37 -22 3.25 C-14.6875 2.875 -14.6875 2.875 -12.3972168 2.77197266 C-7.66289368 2.49173015 -4.60183196 -0.03486236 0 0 Z " fill="#151515" transform="translate(81,233.75)"/>
<path d="M0 0 C2.72699536 -0.35960378 5.14761717 -0.50965445 7.875 -0.5 C8.59558594 -0.52835938 9.31617188 -0.55671875 10.05859375 -0.5859375 C12.1796875 -0.59375 12.1796875 -0.59375 16 0 C18.3203125 2.46875 18.3203125 2.46875 20 5 C20.99 5.33 21.98 5.66 23 6 C23.93134578 21.8949679 23.93134578 21.8949679 19.6171875 27.4765625 C15.62110725 31.24098593 11.93664268 32.96602381 6.4375 33.0625 C0.84481069 31.33385058 -2.69833349 28.97349439 -5.9375 24.0625 C-7.89895415 18.49887848 -8.09549491 11.73693387 -7 6 C-4.59375 4.265625 -4.59375 4.265625 -2 3 C-1.34 2.01 -0.68 1.02 0 0 Z " fill="#F3F3F3" transform="translate(1057,218)"/>
<path d="M0 0 C13.86 0 27.72 0 42 0 C42 5.94 42 11.88 42 18 C28.14 18 14.28 18 0 18 C0 12.06 0 6.12 0 0 Z " fill="#EBEBEB" transform="translate(60,565)"/>
<path d="M0 0 C1.32 0 2.64 0 4 0 C4 0.99 4 1.98 4 3 C4.8353125 3.12955078 4.8353125 3.12955078 5.6875 3.26171875 C15.47652107 5.06408918 22.30251487 9.81551739 28 18 C30.05526033 22.01577462 31 25.43528752 31 30 C31.99 30 32.98 30 34 30 C34 31.32 34 32.64 34 34 C33.01 34 32.02 34 31 34 C30.91363281 34.556875 30.82726562 35.11375 30.73828125 35.6875 C29.19964478 44.04413111 25.69922679 50.31913845 19.03515625 55.6796875 C14.53239396 58.60086534 9.40885108 61 4 61 C4 61.99 4 62.98 4 64 C2.68 64 1.36 64 0 64 C0 63.01 0 62.02 0 61 C-0.99 60.9175 -1.98 60.835 -3 60.75 C-9.95845019 59.71184412 -15.58424268 56.27407882 -20.390625 51.203125 C-23.93065667 46.35706222 -27 40.06208917 -27 34 C-27.99 34 -28.98 34 -30 34 C-30 32.68 -30 31.36 -30 30 C-29.01 30 -28.02 30 -27 30 C-26.9175 29.01 -26.835 28.02 -26.75 27 C-25.5576251 19.00786554 -21.22775105 12.98726406 -15 8 C-10.16482238 4.85903816 -5.71731457 3.47644288 0 3 C0 2.01 0 1.02 0 0 Z M-15.87890625 13.64453125 C-20.23414873 18.4800511 -23 23.36883954 -23 30 C-22.01 30 -21.02 30 -20 30 C-20 31.32 -20 32.64 -20 34 C-20.99 34 -21.98 34 -23 34 C-22.71982545 40.58410193 -20.31022483 45.04189169 -16 50 C-11.04189169 54.31022483 -6.58410193 56.71982545 0 57 C0 56.01 0 55.02 0 54 C1.32 54 2.64 54 4 54 C4 54.99 4 55.98 4 57 C11.85266343 55.94570722 17.49876813 53.2831447 22.57421875 47.07421875 C25.49856752 42.75891898 26.67589095 39.18574478 27 34 C26.01 34 25.02 34 24 34 C24 32.68 24 31.36 24 30 C24.99 30 25.98 30 27 30 C26.71936094 23.404982 24.21784219 19.0293286 20 14 C15.27330353 9.70961397 10.47358834 7 4 7 C4 7.99 4 8.98 4 10 C2.68 10 1.36 10 0 10 C0 9.01 0 8.02 0 7 C-6.09935353 7 -11.2873152 9.62569584 -15.87890625 13.64453125 Z " fill="#101010" transform="translate(571,378)"/>
<path d="M0 0 C18.48 0 36.96 0 56 0 C56 3.63 56 7.26 56 11 C37.52 11 19.04 11 0 11 C0 7.37 0 3.74 0 0 Z " fill="#F4F4F4" transform="translate(381,546)"/>
<path d="M0 0 C18.48 0 36.96 0 56 0 C56 3.63 56 7.26 56 11 C37.52 11 19.04 11 0 11 C0 7.37 0 3.74 0 0 Z " fill="#F3F3F3" transform="translate(709,218)"/>
<path d="M0 0 C18.48 0 36.96 0 56 0 C56 3.63 56 7.26 56 11 C37.52 11 19.04 11 0 11 C0 7.37 0 3.74 0 0 Z " fill="#141414" transform="translate(549,103)"/>
<path d="M0 0 C11.88 0 23.76 0 36 0 C36 1.32 36 2.64 36 4 C34.35 4 32.7 4 31 4 C31 9.28 31 14.56 31 20 C22.42 20 13.84 20 5 20 C5 14.72 5 9.44 5 4 C3.35 4 1.7 4 0 4 C0 2.68 0 1.36 0 0 Z " fill="#1C1C1C" transform="translate(719,236)"/>
<path d="M0 0 C16.5 0 33 0 50 0 C50 3.63 50 7.26 50 11 C33.5 11 17 11 0 11 C0 7.37 0 3.74 0 0 Z " fill="#0E0E0E" transform="translate(712,423)"/>
<path d="M0 0 C6.27 0 12.54 0 19 0 C19 6.27 19 12.54 19 19 C17.35 18.34 15.7 17.68 14 17 C14 19.64 14 22.28 14 25 C13.21496094 25.02578125 12.42992188 25.0515625 11.62109375 25.078125 C10.57050781 25.13484375 9.51992187 25.1915625 8.4375 25.25 C7.40496094 25.29640625 6.37242188 25.3428125 5.30859375 25.390625 C1.16534731 25.96520134 1.16534731 25.96520134 -5 30 C-5 23.73 -5 17.46 -5 11 C-3.35 11 -1.7 11 0 11 C0 7.37 0 3.74 0 0 Z " fill="#030303" transform="translate(74,71)"/>
<path d="M0 0 C15.18 0 30.36 0 46 0 C46 3.63 46 7.26 46 11 C30.82 11 15.64 11 0 11 C0 7.37 0 3.74 0 0 Z " fill="#080808" transform="translate(386,231)"/>
<path d="M0 0 C13.86 0 27.72 0 42 0 C42 2.97 42 5.94 42 9 C40.02 7.35 38.04 5.7 36 4 C33.53199953 5.15173355 31.95216435 6.04783565 30 8 C29.2471875 7.75378906 28.494375 7.50757813 27.71875 7.25390625 C26.37296875 7.12822266 26.37296875 7.12822266 25 7 C22.96868429 8.93273716 21.27302951 10.79245622 19.5 12.9375 C16.27424517 16.54829731 14.16251283 18.74647327 9.328125 19.80078125 C5.75 19.75 5.75 19.75 0 19 C0 12.73 0 6.46 0 0 Z " fill="#F0F0F0" transform="translate(716,397)"/>
<path d="M0 0 C12.87 0 25.74 0 39 0 C39 1.32 39 2.64 39 4 C32.4 4 25.8 4 19 4 C19 4.99 19 5.98 19 7 C29.89 7 40.78 7 52 7 C52 6.01 52 5.02 52 4 C49.03 4 46.06 4 43 4 C43 2.68 43 1.36 43 0 C47.29 0 51.58 0 56 0 C56 3.63 56 7.26 56 11 C37.52 11 19.04 11 0 11 C0 7.37 0 3.74 0 0 Z " fill="#E2E2E2" transform="translate(709,263)"/>
<path d="M0 0 C18.48 0 36.96 0 56 0 C56 3.63 56 7.26 56 11 C51.2312159 11.12375079 46.46336923 11.21440646 41.69335938 11.2746582 C40.07144895 11.29977772 38.44965146 11.33388028 36.828125 11.37719727 C34.49450829 11.43796853 32.16238952 11.46623294 29.828125 11.48828125 C29.10506165 11.51408768 28.38199829 11.5398941 27.63702393 11.56648254 C25.57519531 11.56762695 25.57519531 11.56762695 22 11 C19.63574219 8.53198242 19.63574219 8.53198242 18 6 C14.828262 4.414131 11.36486178 4.62133555 7.875 4.4375 C7.12089844 4.39431641 6.36679687 4.35113281 5.58984375 4.30664062 C3.72678112 4.2005168 1.86341476 4.09974999 0 4 C0 2.68 0 1.36 0 0 Z " fill="#E4E4E4" transform="translate(709,54)"/>
<path d="M0 0 C18.48 0 36.96 0 56 0 C56 3.63 56 7.26 56 11 C51.2312159 11.12375079 46.46336923 11.21440646 41.69335938 11.2746582 C40.07144895 11.29977772 38.44965146 11.33388028 36.828125 11.37719727 C34.49450829 11.43796853 32.16238952 11.46623294 29.828125 11.48828125 C29.10506165 11.51408768 28.38199829 11.5398941 27.63702393 11.56648254 C25.57519531 11.56762695 25.57519531 11.56762695 22 11 C19.63574219 8.53198242 19.63574219 8.53198242 18 6 C14.828262 4.414131 11.36486178 4.62133555 7.875 4.4375 C7.12089844 4.39431641 6.36679688 4.35113281 5.58984375 4.30664062 C3.72678112 4.2005168 1.86341476 4.09974999 0 4 C0 2.68 0 1.36 0 0 Z " fill="#E4E4E4" transform="translate(217,54)"/>
<path d="M0 0 C16.83827089 -1.06936599 16.83827089 -1.06936599 21.9375 1.453125 C23.87310859 3.19810547 25.43445603 4.9229857 27 7 C27.556875 7.50917969 28.11375 8.01835937 28.6875 8.54296875 C30 10 30 10 30 13 C26.64749299 12.42424336 25.06181371 11.40693737 22.75 8.9375 C22.22921875 8.38964844 21.7084375 7.84179688 21.171875 7.27734375 C20.59179688 6.64505859 20.59179688 6.64505859 20 6 C19.01 6.33 18.02 6.66 17 7 C17.93274109 8.12894876 18.87140122 9.25300876 19.8125 10.375 C20.33457031 11.00148438 20.85664062 11.62796875 21.39453125 12.2734375 C23.74499617 14.8011881 25.44885358 15.92924472 28.890625 16.37109375 C36.58153062 16.52312328 40.12658785 15.89451012 46 11 C48.9375 10.6875 48.9375 10.6875 51 11 C51 13 51 13 49.3671875 14.9453125 C41.41864007 21.89717686 33.62795287 22.45751914 23.35546875 21.875 C16.68866923 21.09742142 12.54565962 18.39033446 7.55859375 14.06640625 C4.87635285 11.57353857 4.87635285 11.57353857 0 11 C0 7.37 0 3.74 0 0 Z " fill="#F0F0F0" transform="translate(873,253)"/>
<path d="M0 0 C3.17293023 1.42389449 5.17216242 3.02976393 7 6 C8.003361 10.6257893 7.55825173 14.5423427 5.875 18.9375 C2.73653297 22.38981374 -0.41556162 23.76893607 -5 24.4375 C-8.94665429 23.86194625 -10.96043437 22.56674431 -14 20 C-16.64201025 15.94891762 -17.70236884 12.8162435 -17 8 C-12.774687 0.42357669 -8.36864249 -1.39055993 0 0 Z " fill="#1D1D1D" transform="translate(1057,74)"/>
<path d="M0 0 C3.00646548 1.95448998 3.61154503 3.02792663 4.55078125 6.546875 C4.82873283 10.47968248 4.73975106 13.50752467 3.6875 17.3125 C0.82356157 20.49883301 -2.13265405 22.33618562 -6.3125 23.3125 C-8.875 22.55078125 -8.875 22.55078125 -11.3125 21.3125 C-12.05113281 21.03792969 -12.78976562 20.76335937 -13.55078125 20.48046875 C-15.99597106 19.32464457 -17.52371456 18.36046813 -19.3125 16.3125 C-20.63193187 11.71538445 -20.67371536 7.90157627 -19.3125 3.3125 C-13.41691581 -2.95916273 -7.53631718 -3.59074999 0 0 Z " fill="#121212" transform="translate(895.3125,403.6875)"/>
<path d="M0 0 C1.32 0 2.64 0 4 0 C4 0.99 4 1.98 4 3 C6.31 3 8.62 3 11 3 C11.28875 4.134375 11.5775 5.26875 11.875 6.4375 C12.24625 7.613125 12.6175 8.78875 13 10 C13.66 10.33 14.32 10.66 15 11 C15 12.32 15 13.64 15 15 C14.01 15.495 14.01 15.495 13 16 C12.59270772 18.32156597 12.25561323 20.6568787 12 23 C8.04 23.495 8.04 23.495 4 24 C4 24.66 4 25.32 4 26 C2.68 26 1.36 26 0 26 C0 25.34 0 24.68 0 24 C-2.31 23.67 -4.62 23.34 -7 23 C-7.28875 21.865625 -7.5775 20.73125 -7.875 19.5625 C-8.24625 18.386875 -8.6175 17.21125 -9 16 C-9.66 15.67 -10.32 15.34 -11 15 C-11 13.68 -11 12.36 -11 11 C-10 10 -9 9 -8 8 C-7.27802838 5.39388923 -7.27802838 5.39388923 -7 3 C-4.69 3 -2.38 3 0 3 C0 2.01 0 1.02 0 0 Z " fill="#ECECEC" transform="translate(258,571)"/>
<path d="M0 0 C6.1867119 3.3526792 10.10202431 7.21729593 12.296875 13.9765625 C13.48426318 19.74782131 12.61236441 24.10606009 9.859375 29.2890625 C6.5428961 34.22106274 2.97105856 37.14618071 -2.703125 38.9765625 C-9.00923319 40.16639423 -14.22847922 39.1348649 -19.65234375 35.71484375 C-24.16027047 31.8938392 -27.02049076 27.21165518 -28.2421875 21.421875 C-28.62183566 15.00781927 -26.66449837 9.98508194 -22.703125 4.9765625 C-16.19971765 -0.98608012 -8.39617353 -3.17889807 0 0 Z M-21.015625 9.6015625 C-24.17878262 14.05341396 -24.19149916 17.6225347 -23.703125 22.9765625 C-21.73878461 28.65132363 -18.07511838 32.29056581 -12.703125 34.9765625 C-7.02449575 35.56713994 -2.53389828 35.27027155 2.296875 31.9765625 C6.33315417 27.97309861 8.42145606 24.39064496 8.609375 18.6640625 C8.54924816 14.03429588 7.36278527 11.5396474 4.296875 7.9765625 C-0.47051181 3.6742866 -4.14059795 2.61373747 -10.421875 2.6953125 C-15.20291986 3.28475639 -17.95273678 6.12477047 -21.015625 9.6015625 Z " fill="#141414" transform="translate(908.703125,63.0234375)"/>
<path d="M0 0 C0.68707031 0.52980469 1.37414062 1.05960938 2.08203125 1.60546875 C4.67819937 3.49311033 7.08937409 3.81241493 10.1953125 4.375 C12 5 12 5 14 8 C14.34940459 10.79523674 14.37233787 12.3648354 12.9375 14.8125 C9.91496844 16.66501934 7.45067281 16.37643703 4 16 C2 13 2 13 1.25 9.5625 C-0.30845257 5.12091019 -1.902984 4.16900847 -6 2 C-12.77249919 -1.20070167 -20.74043818 -1.23757539 -27.890625 0.83984375 C-35.07739684 4.11357264 -40.50675204 9.39087158 -43.875 16.5625 C-45.01957114 20.0598007 -45.62693143 23.34392801 -46 27 C-47.32 27 -48.64 27 -50 27 C-50.73238266 18.39450379 -47.02113037 11.51635776 -41.76953125 4.85546875 C-30.10166909 -7.37904455 -14.3211454 -7.76184216 0 0 Z " fill="#121212" transform="translate(919,55)"/>
<path d="M0 0 C1.32 0 2.64 0 4 0 C3.37520161 9.84057464 0.55749015 18.29523551 -7 25 C-15.66679779 30.96237731 -24.53550064 33.10511662 -35 32 C-40.49789682 30.42795841 -44.80585239 27.5304322 -49.30078125 24.09375 C-51.96438832 22.3792443 -54.96815328 21.83227165 -58 21 C-60 18 -60 18 -59.75 14.9375 C-59 12 -59 12 -57 10 C-53.95639252 9.67621197 -51.87078033 9.48954256 -49.1875 11.0625 C-48 13 -48 13 -47.625 16.4375 C-47.3247776 20.06979305 -47.3247776 20.06979305 -44.875 22.25 C-36.87335721 27.12056517 -30.43107459 28.09224026 -21 27 C-12.89908025 24.6289991 -7.14157282 19.41370666 -2.94140625 12.17578125 C-1.09285953 8.23988033 -0.43835179 4.29584751 0 0 Z " fill="#101010" transform="translate(929,82)"/>
<path d="M0 0 C3.62416894 1.64734952 6.12851416 3.45402683 8 7 C8.41259969 10.78216379 8.32517815 13.24695586 6.8125 16.75 C3.79022645 20.50178785 1.33375077 21.80599989 -3.4375 22.5 C-8.19197325 21.83270551 -9.67221155 20.40702151 -13 17 C-14.21762731 13.34711807 -14.39075851 10.84245864 -14 7 C-10.35973954 0.90120542 -6.94453392 -0.47081586 0 0 Z " fill="#EBEBEB" transform="translate(576,250)"/>
<path d="M0 0 C2.87029869 1.79393668 4.49131638 2.98263276 6 6 C6.34708476 11.29304255 6.51351894 14.73358414 3 19 C-0.01002441 21.34113009 -3.27741542 21.41216607 -7.03125 21.328125 C-10.14316604 20.80947233 -11.85067869 19.21445226 -14 17 C-15.72869779 13.54260443 -15.48966895 9.78024432 -15 6 C-11.10231905 -0.23628951 -6.98983895 -0.90541955 0 0 Z " fill="#FAFAFA" transform="translate(1087,398)"/>
<path d="M0 0 C5.67476113 1.96434039 9.31400331 5.62800662 12 11 C12.59057744 16.67862925 12.29370905 21.16922672 9 26 C4.99653611 30.03627917 1.41408246 32.12458106 -4.3125 32.3125 C-8.94226662 32.25237316 -11.4369151 31.06591027 -15 28 C-19.3022759 23.23261319 -20.36282503 19.56252705 -20.28125 13.28125 C-19.69180611 8.50020514 -16.85179203 5.75038822 -13.375 2.6875 C-8.92314854 -0.47565762 -5.3540278 -0.48837416 0 0 Z M-14 8 C-16.34781141 10.98812362 -16.41825081 14.21911188 -16.3203125 17.96875 C-15.67779482 22.04325238 -13.42857538 24.87754791 -10.25 27.375 C-5.06338439 28.81572656 -1.35800186 28.67900093 3.375 26.3125 C7.22349802 22.92215651 7.82731065 20.58298572 8.375 15.5625 C7.92206591 11.25962619 6.80874181 9.26421346 4 6 C-2.42683087 2.1786411 -8.44634607 3.35042927 -14 8 Z " fill="#F2F2F2" transform="translate(905,66)"/>
<path d="M0 0 C18.48 0 36.96 0 56 0 C56 10.89 56 21.78 56 33 C55.01 33 54.02 33 53 33 C53 23.1 53 13.2 53 3 C36.5 3 20 3 3 3 C3 12.9 3 22.8 3 33 C2.01 33 1.02 33 0 33 C0 22.11 0 11.22 0 0 Z " fill="#FFFFFF" transform="translate(53,550)"/>
<path d="M0 0 C2.4375 0.75 2.4375 0.75 4.4375 2.75 C4.5625 5.875 4.5625 5.875 4.4375 8.75 C5.4275 8.75 6.4175 8.75 7.4375 8.75 C7.4375 13.04 7.4375 17.33 7.4375 21.75 C2.1575 21.75 -3.1225 21.75 -8.5625 21.75 C-8.5625 17.46 -8.5625 13.17 -8.5625 8.75 C-7.5725 8.75 -6.5825 8.75 -5.5625 8.75 C-5.624375 7.63625 -5.68625 6.5225 -5.75 5.375 C-5.688125 4.17875 -5.62625 2.9825 -5.5625 1.75 C-2.5625 -0.25 -2.5625 -0.25 0 0 Z " fill="#080808" transform="translate(1065.5625,221.25)"/>
<path d="M0 0 C7.26 0 14.52 0 22 0 C22 4.29 22 8.58 22 13 C14.74 13 7.48 13 0 13 C0 8.71 0 4.42 0 0 Z " fill="#080808" transform="translate(247,419)"/>
<path d="M0 0 C7.26 0 14.52 0 22 0 C22 4.29 22 8.58 22 13 C14.74 13 7.48 13 0 13 C0 8.71 0 4.42 0 0 Z " fill="#080808" transform="translate(221,419)"/>
<path d="M0 0 C2.9719385 1.12451727 5.33440687 2.22293791 8 4 C8.26711404 6.55395487 8.34849029 8.86274374 8.29296875 11.4140625 C8.28872391 12.14370209 8.28447906 12.87334167 8.28010559 13.62509155 C8.26329353 15.95876759 8.22563868 18.2915844 8.1875 20.625 C8.17245634 22.20571671 8.15876738 23.78644693 8.14648438 25.3671875 C8.11338201 29.24512344 8.06158404 33.12241598 8 37 C7.01 37 6.02 37 5 37 C5 27.76 5 18.52 5 9 C-10.18 9 -25.36 9 -41 9 C-41 8.01 -41 7.02 -41 6 C-27.47 6 -13.94 6 0 6 C0 4.02 0 2.04 0 0 Z " fill="#FBFBFB" transform="translate(1085,57)"/>
<path d="M0 0 C7.59 0 15.18 0 23 0 C23 3.63 23 7.26 23 11 C15.41 11 7.82 11 0 11 C0 7.37 0 3.74 0 0 Z " fill="#1E1E1E" transform="translate(903,423)"/>
<path d="M0 0 C7.59 0 15.18 0 23 0 C23 3.63 23 7.26 23 11 C15.41 11 7.82 11 0 11 C0 7.37 0 3.74 0 0 Z " fill="#212121" transform="translate(903,408)"/>
<path d="M0 0 C7.59 0 15.18 0 23 0 C23 3.63 23 7.26 23 11 C15.41 11 7.82 11 0 11 C0 7.37 0 3.74 0 0 Z " fill="#1C1C1C" transform="translate(903,393)"/>
<path d="M0 0 C1.32 0 2.64 0 4 0 C4.66 0.99 5.32 1.98 6 3 C6.99 3 7.98 3 9 3 C9.33 3.66 9.66 4.32 10 5 C9.67 5.99 9.34 6.98 9 8 C9.99 8 10.98 8 12 8 C12 9.32 12 10.64 12 12 C11.01 12.66 10.02 13.32 9 14 C9 14.99 9 15.98 9 17 C8.01 17 7.02 17 6 17 C5.34 17.99 4.68 18.98 4 20 C2.68 20 1.36 20 0 20 C0 19.01 0 18.02 0 17 C-1.32 17.33 -2.64 17.66 -4 18 C-4.66 17.01 -5.32 16.02 -6 15 C-5.67 14.34 -5.34 13.68 -5 13 C-5.99 12.67 -6.98 12.34 -8 12 C-8 10.68 -8 9.36 -8 8 C-7.01 8 -6.02 8 -5 8 C-5.33 6.68 -5.66 5.36 -6 4 C-5.01 3.34 -4.02 2.68 -3 2 C-2.01 2.33 -1.02 2.66 0 3 C0 2.01 0 1.02 0 0 Z " fill="#1B1B1B" transform="translate(258,87)"/>
<path d="M0 0 C1.32 0 2.64 0 4 0 C4 0.99 4 1.98 4 3 C5.32 2.34 6.64 1.68 8 1 C8.66 1.99 9.32 2.98 10 4 C9.67 4.99 9.34 5.98 9 7 C9.99 7 10.98 7 12 7 C12 8.32 12 9.64 12 11 C11.01 11.66 10.02 12.32 9 13 C9 13.99 9 14.98 9 16 C8.34 16.33 7.68 16.66 7 17 C6.01 16.67 5.02 16.34 4 16 C4 16.99 4 17.98 4 19 C2.68 19 1.36 19 0 19 C0 18.01 0 17.02 0 16 C-1.32 16.33 -2.64 16.66 -4 17 C-4.66 16.01 -5.32 15.02 -6 14 C-5.67 13.34 -5.34 12.68 -5 12 C-5.66 11.67 -6.32 11.34 -7 11 C-7 9.68 -7 8.36 -7 7 C-6.34 7 -5.68 7 -5 7 C-5.33 5.68 -5.66 4.36 -6 3 C-5.01 2.34 -4.02 1.68 -3 1 C-2.34 1.33 -1.68 1.66 -1 2 C-0.67 1.34 -0.34 0.68 0 0 Z " fill="#151515" transform="translate(228,73)"/>
<path d="M0 0 C18.48 0 36.96 0 56 0 C56 1.32 56 2.64 56 4 C37.52 4 19.04 4 0 4 C0 2.68 0 1.36 0 0 Z " fill="#EEEEEE" transform="translate(53,587)"/>
<path d="M0 0 C5.94 0 11.88 0 18 0 C18 3.63 18 7.26 18 11 C12.06 11 6.12 11 0 11 C0 7.37 0 3.74 0 0 Z " fill="#050505" transform="translate(415,587)"/>
<path d="M0 0 C1.65 0 3.3 0 5 0 C5 12.54 5 25.08 5 38 C3.35 38 1.7 38 0 38 C0 25.46 0 12.92 0 0 Z " fill="#F6F6F6" transform="translate(104,67)"/>
<path d="M0 0 C1.65 0 3.3 0 5 0 C5 12.54 5 25.08 5 38 C3.35 38 1.7 38 0 38 C0 25.46 0 12.92 0 0 Z " fill="#F2F2F2" transform="translate(53,67)"/>
<path d="M0 0 C3.63 0 7.26 0 11 0 C11 2.31 11 4.62 11 7 C12.32 7 13.64 7 15 7 C15 4.69 15 2.38 15 0 C15.99 0 16.98 0 18 0 C18 3.96 18 7.92 18 12 C12.06 12 6.12 12 0 12 C0 8.04 0 4.08 0 0 Z " fill="#F4F4F4" transform="translate(728,240)"/>
<path d="M0 0 C0.99 0 1.98 0 3 0 C3 0.99 3 1.98 3 3 C4.32 3 5.64 3 7 3 C7 4.32 7 5.64 7 7 C-7.52 7 -22.04 7 -37 7 C-37 5.68 -37 4.36 -37 3 C-24.79 3 -12.58 3 0 3 C0 2.01 0 1.02 0 0 Z " fill="#0F0F0F" transform="translate(96,259)"/>
<path d="M0 0 C2.375 1 2.375 1 4 3 C4.5659239 7.45665069 4.82483134 9.73102871 2.375 13.5 C-0.72140596 15.45562482 -2.39853135 15.60024477 -6 15 C-8.375 13.4375 -8.375 13.4375 -10 11 C-10.56783945 7.02512383 -10.62340519 4.93510779 -8.375 1.5625 C-5.30182885 -0.45932313 -3.61752119 -0.52755517 0 0 Z " fill="#0F0F0F" transform="translate(263,577)"/>
<path d="M0 0 C2.375 0.8125 2.375 0.8125 4.375 2.8125 C4.67578125 5.52734375 4.67578125 5.52734375 4.6875 8.75 C4.70425781 9.81089844 4.72101562 10.87179687 4.73828125 11.96484375 C4.375 14.8125 4.375 14.8125 3.01171875 16.66796875 C0.66820031 18.30675372 -0.83138061 18.23154291 -3.625 17.8125 C-5.25390625 16.6640625 -5.25390625 16.6640625 -6.625 14.8125 C-7.05859375 12 -7.05859375 12 -7.0625 8.8125 C-7.08183594 7.760625 -7.10117187 6.70875 -7.12109375 5.625 C-6.625 2.8125 -6.625 2.8125 -4.76171875 0.92578125 C-2.625 -0.1875 -2.625 -0.1875 0 0 Z " fill="#141414" transform="translate(586.625,401.1875)"/>
<path d="M0 0 C13.86 0 27.72 0 42 0 C42 1.32 42 2.64 42 4 C27.48 4 12.96 4 -2 4 C-1.34 2.68 -0.68 1.36 0 0 Z " fill="#ECECEC" transform="translate(559,220)"/>
<path d="M0 0 C13.86 0 27.72 0 42 0 C42 1.32 42 2.64 42 4 C27.48 4 12.96 4 -2 4 C-1.34 2.68 -0.68 1.36 0 0 Z " fill="#ECECEC" transform="translate(395,220)"/>
<path d="M0 0 C13.86 0 27.72 0 42 0 C42 1.32 42 2.64 42 4 C27.48 4 12.96 4 -2 4 C-1.34 2.68 -0.68 1.36 0 0 Z " fill="#EFEFEF" transform="translate(231,225)"/>
<path d="M0 0 C14.19 0 28.38 0 43 0 C43 1.32 43 2.64 43 4 C28.81 4 14.62 4 0 4 C0 2.68 0 1.36 0 0 Z " fill="#FCFCFC" transform="translate(66,59)"/>
<path d="M0 0 C1.65 0 3.3 0 5 0 C5 11.22 5 22.44 5 34 C3.35 34 1.7 34 0 34 C0 22.78 0 11.56 0 0 Z " fill="#F1F1F1" transform="translate(268,233)"/>
<path d="M0 0 C1.65 0 3.3 0 5 0 C5 11.22 5 22.44 5 34 C3.35 34 1.7 34 0 34 C0 22.78 0 11.56 0 0 Z " fill="#F1F1F1" transform="translate(217,233)"/>
<path d="M0 0 C18.48 0 36.96 0 56 0 C56 0.99 56 1.98 56 3 C37.52 3 19.04 3 0 3 C0 2.01 0 1.02 0 0 Z " fill="#FFFFFF" transform="translate(1037,263)"/>
<path d="M0 0 C0.99 0.33 1.98 0.66 3 1 C2.68289063 1.53109375 2.36578125 2.0621875 2.0390625 2.609375 C0.7629651 5.54535848 0.58292979 8.06174329 0.375 11.25 C0.30023438 12.32765625 0.22546875 13.4053125 0.1484375 14.515625 C0.09945313 15.33546875 0.05046875 16.1553125 0 17 C-1.32 17 -2.64 17 -4 17 C-4.33 15.02 -4.66 13.04 -5 11 C-7.52259061 12.97420135 -7.9929808 13.96745642 -8.6875 17.1875 C-8.790625 18.115625 -8.89375 19.04375 -9 20 C-9.99 20 -10.98 20 -12 20 C-12 18.35 -12 16.7 -12 15 C-13.65 15 -15.3 15 -17 15 C-17 14.01 -17 13.02 -17 12 C-15.3603125 11.62875 -15.3603125 11.62875 -13.6875 11.25 C-9.94091591 9.97997149 -8.89404734 9.34243648 -7 6 C-9.31 6 -11.62 6 -14 6 C-14 5.01 -14 4.02 -14 3 C-13.15695312 2.95101562 -12.31390625 2.90203125 -11.4453125 2.8515625 C-10.34960938 2.77679687 -9.25390625 2.70203125 -8.125 2.625 C-6.48917969 2.52058594 -6.48917969 2.52058594 -4.8203125 2.4140625 C-1.86953526 2.26746509 -1.86953526 2.26746509 0 0 Z " fill="#070707" transform="translate(405,567)"/>
<path d="M0 0 C13.53 0 27.06 0 41 0 C41 1.32 41 2.64 41 4 C27.47 4 13.94 4 0 4 C0 2.68 0 1.36 0 0 Z " fill="#FFFFFF" transform="translate(396,385)"/>
<path d="M0 0 C13.53 0 27.06 0 41 0 C41 1.32 41 2.64 41 4 C27.47 4 13.94 4 0 4 C0 2.68 0 1.36 0 0 Z " fill="#FFFFFF" transform="translate(232,385)"/>
<path d="M0 0 C13.53 0 27.06 0 41 0 C41 1.32 41 2.64 41 4 C27.47 4 13.94 4 0 4 C0 2.68 0 1.36 0 0 Z " fill="#FFFFFF" transform="translate(68,385)"/>
<path d="M0 0 C13.53 0 27.06 0 41 0 C41 1.32 41 2.64 41 4 C27.47 4 13.94 4 0 4 C0 2.68 0 1.36 0 0 Z " fill="#E3E3E3" transform="translate(68,223)"/>
<path d="M0 0 C13.2 0 26.4 0 40 0 C40 1.32 40 2.64 40 4 C26.8 4 13.6 4 0 4 C0 2.68 0 1.36 0 0 Z " fill="#E8E8E8" transform="translate(389,235)"/>
<path d="M0 0 C2.64 0 5.28 0 8 0 C10 2 10 2 10.265625 4.75 C10.26046875 5.8225 10.2553125 6.895 10.25 8 C10.25515625 9.0725 10.2603125 10.145 10.265625 11.25 C10 14 10 14 8 16 C5.36 16 2.72 16 0 16 C0 10.72 0 5.44 0 0 Z " fill="#020202" transform="translate(240,398)"/>
<path d="M0 0 C15.84 0 31.68 0 48 0 C48 0.99 48 1.98 48 3 C32.16 3 16.32 3 0 3 C0 2.01 0 1.02 0 0 Z " fill="#FFFFFF" transform="translate(553,107)"/>
<path d="M0 0 C3 0.25 3 0.25 5 2.25 C5.1953125 5.5078125 5.1953125 5.5078125 5.125 9.375 C5.10695312 10.65632813 5.08890625 11.93765625 5.0703125 13.2578125 C5.04710937 14.24523437 5.02390625 15.23265625 5 16.25 C4.01 16.25 3.02 16.25 2 16.25 C2 14.93 2 13.61 2 12.25 C0.68 12.25 -0.64 12.25 -2 12.25 C-2 13.57 -2 14.89 -2 16.25 C-2.99 16.25 -3.98 16.25 -5 16.25 C-5.05384521 13.95858714 -5.09272087 11.66681812 -5.125 9.375 C-5.14820313 8.09882813 -5.17140625 6.82265625 -5.1953125 5.5078125 C-4.93800038 1.21584636 -4.30756802 0.358964 0 0 Z " fill="#010101" transform="translate(231,397.75)"/>
<path d="M0 0 C1.8125 1.3125 1.8125 1.3125 3 3 C3 3.99 3 4.98 3 6 C1.68 6 0.36 6 -1 6 C-1 5.34 -1 4.68 -1 4 C-1.99 4 -2.98 4 -4 4 C-4 4.99 -4 5.98 -4 7 C-3.21625 7.12375 -2.4325 7.2475 -1.625 7.375 C1 8 1 8 3 10 C3.36487512 12.84602594 3.40199375 14.3864306 1.8125 16.8125 C-0.64907776 18.42525784 -2.11065736 18.4334014 -5 18 C-6.8125 16.6875 -6.8125 16.6875 -8 15 C-8 14.01 -8 13.02 -8 12 C-6.68 12 -5.36 12 -4 12 C-4 12.66 -4 13.32 -4 14 C-3.01 14 -2.02 14 -1 14 C-1 13.01 -1 12.02 -1 11 C-1.78375 10.87625 -2.5675 10.7525 -3.375 10.625 C-6 10 -6 10 -8 8 C-8.36487512 5.15397406 -8.40199375 3.6135694 -6.8125 1.1875 C-4.35092224 -0.42525784 -2.88934264 -0.4334014 0 0 Z " fill="#151515" transform="translate(563,401)"/>
<path d="M0 0 C1.8125 1.3125 1.8125 1.3125 3 3 C3 3.99 3 4.98 3 6 C1.68 6 0.36 6 -1 6 C-1 5.34 -1 4.68 -1 4 C-1.99 4 -2.98 4 -4 4 C-4 4.99 -4 5.98 -4 7 C-3.21625 7.12375 -2.4325 7.2475 -1.625 7.375 C1 8 1 8 3 10 C3.36487512 12.84602594 3.40199375 14.3864306 1.8125 16.8125 C-0.64907776 18.42525784 -2.11065736 18.4334014 -5 18 C-6.8125 16.6875 -6.8125 16.6875 -8 15 C-8 14.01 -8 13.02 -8 12 C-6.68 12 -5.36 12 -4 12 C-4 12.66 -4 13.32 -4 14 C-3.01 14 -2.02 14 -1 14 C-1 13.01 -1 12.02 -1 11 C-1.78375 10.87625 -2.5675 10.7525 -3.375 10.625 C-6 10 -6 10 -8 8 C-8.36487512 5.15397406 -8.40199375 3.6135694 -6.8125 1.1875 C-4.35092224 -0.42525784 -2.88934264 -0.4334014 0 0 Z " fill="#171717" transform="translate(261,397)"/>
<path d="M0 0 C10.23 0 20.46 0 31 0 C31 1.32 31 2.64 31 4 C20.77 4 10.54 4 0 4 C0 2.68 0 1.36 0 0 Z " fill="#E5E5E5" transform="translate(716,427)"/>
<path d="M0 0 C2.97 0 5.94 0 9 0 C9 1.32 9 2.64 9 4 C7.35 4 5.7 4 4 4 C4 4.99 4 5.98 4 7 C4.99 7 5.98 7 7 7 C7 8.32 7 9.64 7 11 C6.01 11 5.02 11 4 11 C4 11.99 4 12.98 4 14 C5.65 14 7.3 14 9 14 C9 15.32 9 16.64 9 18 C6.03 18 3.06 18 0 18 C0 12.06 0 6.12 0 0 Z " fill="#171717" transform="translate(569,401)"/>
<path d="M0 0 C13.53 0 27.06 0 41 0 C41 0.99 41 1.98 41 3 C27.47 3 13.94 3 0 3 C0 2.01 0 1.02 0 0 Z " fill="#FFFFFF" transform="translate(888,382)"/>
<path d="M0 0 C13.53 0 27.06 0 41 0 C41 0.99 41 1.98 41 3 C27.47 3 13.94 3 0 3 C0 2.01 0 1.02 0 0 Z " fill="#FFFFFF" transform="translate(724,382)"/>
<path d="M0 0 C8.91 0 17.82 0 27 0 C27 1.32 27 2.64 27 4 C18.09 4 9.18 4 0 4 C0 2.68 0 1.36 0 0 Z " fill="#E9E9E9" transform="translate(75,557)"/>
<path d="M0 0 C4.29 0 8.58 0 13 0 C13 3.3 13 6.6 13 10 C8.71 9.34 4.42 8.68 0 8 C0 5.36 0 2.72 0 0 Z " fill="#D6D6D6" transform="translate(77,74)"/>
<path d="M0 0 C2 2 2 2 2.3125 4.9375 C2 8 2 8 0.8125 9.875 C-1.68036381 11.42229478 -3.11967335 11.50405716 -6 11 C-7.875 9.375 -7.875 9.375 -9 7 C-8.8125 3.8125 -8.8125 3.8125 -8 1 C-5.23749964 -0.38125018 -3.05268901 -0.19079306 0 0 Z " fill="#282828" transform="translate(729,401)"/>
<path d="M0 0 C3.0625 0.3125 3.0625 0.3125 5 1.4375 C6.0625 3.3125 6.0625 3.3125 5.9375 6.375 C5.0625 9.3125 5.0625 9.3125 2.0625 11.3125 C-3.49305556 10.75694444 -3.49305556 10.75694444 -4.9375 9.3125 C-5.125 5.875 -5.125 5.875 -4.9375 2.3125 C-2.9375 0.3125 -2.9375 0.3125 0 0 Z " fill="#2A2A2A" transform="translate(235.9375,251.6875)"/>
<path d="M0 0 C3.0625 0.3125 3.0625 0.3125 5 1.4375 C6.0625 3.3125 6.0625 3.3125 5.9375 6.375 C5.0625 9.3125 5.0625 9.3125 2.0625 11.3125 C-3.49305556 10.75694444 -3.49305556 10.75694444 -4.9375 9.3125 C-5.125 5.875 -5.125 5.875 -4.9375 2.3125 C-2.9375 0.3125 -2.9375 0.3125 0 0 Z " fill="#2A2A2A" transform="translate(235.9375,236.6875)"/>
<path d="M0 0 C4.29 0 8.58 0 13 0 C13 2.31 13 4.62 13 7 C12.09507813 7.09087891 12.09507813 7.09087891 11.171875 7.18359375 C9.97304687 7.30927734 9.97304687 7.30927734 8.75 7.4375 C7.96109375 7.51871094 7.1721875 7.59992188 6.359375 7.68359375 C3.70381637 7.99511197 3.70381637 7.99511197 0 9 C0 6.03 0 3.06 0 0 Z " fill="#EAEAEA" transform="translate(72,85)"/>
<path d="M0 0 C0.99 0 1.98 0 3 0 C5.21854707 4.62197306 6.38281159 7.76824163 6 13 C3.03 13 0.06 13 -3 13 C-3.31563182 7.73946963 -2.66590937 4.55426184 0 0 Z " fill="#EAEAEA" transform="translate(912,218)"/>
<path d="M0 0 C4.95 0 9.9 0 15 0 C15 1.98 15 3.96 15 6 C10.05 6 5.1 6 0 6 C0 4.02 0 2.04 0 0 Z " fill="#F0F0F0" transform="translate(251,422)"/>
<path d="M0 0 C4.95 0 9.9 0 15 0 C15 1.98 15 3.96 15 6 C10.05 6 5.1 6 0 6 C0 4.02 0 2.04 0 0 Z " fill="#F0F0F0" transform="translate(224,422)"/>
<path d="M0 0 C3 0.25 3 0.25 5 2.25 C5.25 5.25 5.25 5.25 5 8.25 C3 10.25 3 10.25 0 10.5 C-3 10.25 -3 10.25 -5 8.25 C-5.25 5.25 -5.25 5.25 -5 2.25 C-3 0.25 -3 0.25 0 0 Z " fill="#212121" transform="translate(573,255.75)"/>
<path d="M0 0 C7.26 0 14.52 0 22 0 C22 1.32 22 2.64 22 4 C14.74 4 7.48 4 0 4 C0 2.68 0 1.36 0 0 Z " fill="#161616" transform="translate(575,231)"/>
<path d="M0 0 C7.26 0 14.52 0 22 0 C22 1.32 22 2.64 22 4 C14.74 4 7.48 4 0 4 C0 2.68 0 1.36 0 0 Z " fill="#161616" transform="translate(549,231)"/>
<path d="M0 0 C9.57 0 19.14 0 29 0 C29 0.99 29 1.98 29 3 C19.43 3 9.86 3 0 3 C0 2.01 0 1.02 0 0 Z " fill="#FFFFFF" transform="translate(232,551)"/>
<path d="M0 0 C0.33 0 0.66 0 1 0 C1.33 6.27 1.66 12.54 2 19 C2.99 18.01 3.98 17.02 5 16 C5.99 16.33 6.98 16.66 8 17 C7.814375 17.5775 7.62875 18.155 7.4375 18.75 C6.95976454 21.20692525 7.24270636 22.64397534 8 25 C6.68 25 5.36 25 4 25 C3.34 24.34 2.68 23.68 2 23 C1.67 29.27 1.34 35.54 1 42 C0.67 42 0.34 42 0 42 C0 28.14 0 14.28 0 0 Z " fill="#414141" transform="translate(52,393)"/>
<path d="M0 0 C0.33 0 0.66 0 1 0 C1 13.86 1 27.72 1 42 C0.67 42 0.34 42 0 42 C-0.33 35.73 -0.66 29.46 -1 23 C-1.99 23.99 -2.98 24.98 -4 26 C-4.99 25.67 -5.98 25.34 -7 25 C-6.835 24.2575 -6.67 23.515 -6.5 22.75 C-5.88074304 19.80993422 -5.88074304 19.80993422 -6 16 C-2.125 17.875 -2.125 17.875 -1 19 C-0.67 12.73 -0.34 6.46 0 0 Z " fill="#2C2C2C" transform="translate(109,393)"/>
<path d="M0 0 C9.24 0 18.48 0 28 0 C28 0.99 28 1.98 28 3 C18.76 3 9.52 3 0 3 C0 2.01 0 1.02 0 0 Z " fill="#FFFFFF" transform="translate(1052,382)"/>
<path d="M0 0 C6.93 0 13.86 0 21 0 C21 1.32 21 2.64 21 4 C14.07 4 7.14 4 0 4 C0 2.68 0 1.36 0 0 Z " fill="#151515" transform="translate(722,80)"/>
<path d="M0 0 C2.97 0 5.94 0 9 0 C8.74500159 1.79398884 8.47046186 3.58520875 8.1875 5.375 C7.96126953 6.87160156 7.96126953 6.87160156 7.73046875 8.3984375 C7 11 7 11 4 13 C0.88303339 8.66335081 0.44033187 5.19591612 0 0 Z " fill="#F6F6F6" transform="translate(909,235)"/>
<path d="M0 0 C1.87365234 -0.00386719 1.87365234 -0.00386719 3.78515625 -0.0078125 C6.9375 0.125 6.9375 0.125 8.9375 1.125 C8.9375 2.445 8.9375 3.765 8.9375 5.125 C7.25720703 5.10759766 7.25720703 5.10759766 5.54296875 5.08984375 C4.07031417 5.08046378 2.59765778 5.0713638 1.125 5.0625 C0.38701172 5.05412109 -0.35097656 5.04574219 -1.11132812 5.03710938 C-4.36172068 5.02240172 -6.95654895 5.08968298 -10.0625 6.125 C-10.0625 4.475 -10.0625 2.825 -10.0625 1.125 C-6.54512679 -0.04745774 -3.7049868 -0.00766285 0 0 Z " fill="#E1E1E1" transform="translate(409.0625,53.875)"/>
<path d="M0 0 C6.27 0 12.54 0 19 0 C19 1.32 19 2.64 19 4 C12.73 4 6.46 4 0 4 C0 2.68 0 1.36 0 0 Z " fill="#161616" transform="translate(415,572)"/>
<path d="M0 0 C5.94 0 11.88 0 18 0 C18 1.32 18 2.64 18 4 C15.02760209 5.48619895 12.30380422 5.13177009 9 5.125 C7.1128125 5.12886719 7.1128125 5.12886719 5.1875 5.1328125 C2 5 2 5 0 4 C0 2.68 0 1.36 0 0 Z " fill="#E6E6E6" transform="translate(400,105)"/>
<path d="M0 0 C5.94 0 11.88 0 18 0 C18 1.32 18 2.64 18 4 C12.06 4 6.12 4 0 4 C0 2.68 0 1.36 0 0 Z " fill="#101010" transform="translate(72,427)"/>
<path d="M0 0 C5.94 0 11.88 0 18 0 C18 1.32 18 2.64 18 4 C12.06 4 6.12 4 0 4 C0 2.68 0 1.36 0 0 Z " fill="#101010" transform="translate(72,412)"/>
<path d="M0 0 C3.3 0 6.6 0 10 0 C9.27467453 2.90130187 8.49882535 5.48132518 7.4375 8.25 C7.16808594 8.95640625 6.89867187 9.6628125 6.62109375 10.390625 C6.41613281 10.92171875 6.21117187 11.4528125 6 12 C5.34 12 4.68 12 4 12 C3.32645501 10.56570999 2.66140299 9.12742943 2 7.6875 C1.62875 6.88699219 1.2575 6.08648437 0.875 5.26171875 C0 3 0 3 0 0 Z " fill="#E4E4E4" transform="translate(404,412)"/>
<path d="M0 0 C3.3721049 1.44518781 5.69880363 3.12350453 8 6 C8.25 8.75 8.25 8.75 8 11 C5.087425 10.91433603 3.43201976 10.42089045 1.33203125 8.375 C-0.16091772 6.61608625 -1.60436262 4.83686981 -3 3 C-2.01 2.01 -1.02 1.02 0 0 Z " fill="#E1E1E1" transform="translate(750,405)"/>
<path d="M0 0 C2.64 0 5.28 0 8 0 C8.33 2.31 8.66 4.62 9 7 C5.7 7 2.4 7 -1 7 C-0.67 4.69 -0.34 2.38 0 0 Z " fill="#E1E1E1" transform="translate(405,402)"/>
<path d="M0 0 C1.14926266 0.95421808 2.29430541 1.91352045 3.4375 2.875 C4.39462891 3.67550781 4.39462891 3.67550781 5.37109375 4.4921875 C7 6 7 6 8 8 C3.05 8 -1.9 8 -7 8 C-1.125 1.125 -1.125 1.125 0 0 Z " fill="#E1E1E1" transform="translate(741,408)"/>
<path d="M0 0 C5.28 0 10.56 0 16 0 C16 1.32 16 2.64 16 4 C10.72 4 5.44 4 0 4 C0 2.68 0 1.36 0 0 Z " fill="#F8F8F8" transform="translate(1057,270)"/>
<path d="M0 0 C2.27057377 -0.05398987 4.54151288 -0.09278742 6.8125 -0.125 C8.07707031 -0.14820313 9.34164062 -0.17140625 10.64453125 -0.1953125 C14 0 14 0 17 2 C17 2.66 17 3.32 17 4 C11.39 4 5.78 4 0 4 C0 2.68 0 1.36 0 0 Z " fill="#EAEAEA" transform="translate(709,61)"/>
<path d="M0 0 C2.27057377 -0.05398987 4.54151288 -0.09278742 6.8125 -0.125 C8.07707031 -0.14820313 9.34164062 -0.17140625 10.64453125 -0.1953125 C14 0 14 0 17 2 C17 2.66 17 3.32 17 4 C11.39 4 5.78 4 0 4 C0 2.68 0 1.36 0 0 Z " fill="#EAEAEA" transform="translate(217,61)"/>
<path d="M0 0 C6.93 0 13.86 0 21 0 C21 0.99 21 1.98 21 3 C14.07 3 7.14 3 0 3 C0 2.01 0 1.02 0 0 Z " fill="#010101" transform="translate(576,239)"/>
<path d="M0 0 C6.93 0 13.86 0 21 0 C21 0.99 21 1.98 21 3 C14.07 3 7.14 3 0 3 C0 2.01 0 1.02 0 0 Z " fill="#010101" transform="translate(549,239)"/>
<path d="M0 0 C2.76193573 1.38096786 3.02905576 3.32884866 4.13671875 6.078125 C5.43564333 8.96984851 7.17196774 11.4155406 9 14 C7.02 14.99 7.02 14.99 5 16 C-1.70387244 6.77448747 -1.70387244 6.77448747 -2 1 C-1.34 0.67 -0.68 0.34 0 0 Z " fill="#EBEBEB" transform="translate(384,87)"/>
<path d="M0 0 C6.93 0 13.86 0 21 0 C21 0.99 21 1.98 21 3 C14.07 3 7.14 3 0 3 C0 2.01 0 1.02 0 0 Z " fill="#020202" transform="translate(713,73)"/>
<path d="M0 0 C4.49912187 3.09314629 7.00828585 5.79941304 9 11 C9 12.32 9 13.64 9 15 C8.01 15.33 7.02 15.66 6 16 C5.68546875 15.33613281 5.3709375 14.67226562 5.046875 13.98828125 C2.74698951 9.24303558 0.55857132 4.95396814 -3 1 C-2.01 0.67 -1.02 0.34 0 0 Z " fill="#F0F0F0" transform="translate(427,61)"/>
<path d="M0 0 C1.32 0.66 2.64 1.32 4 2 C3.60167969 2.42410156 3.20335937 2.84820312 2.79296875 3.28515625 C-0.85862461 7.32767445 -3.12157254 10.88650302 -5 16 C-5.99 15.67 -6.98 15.34 -8 15 C-7.39818232 8.68091431 -4.69461209 4.22515088 0 0 Z " fill="#EFEFEF" transform="translate(390,61)"/>
<path d="M0 0 C0.598125 0.226875 1.19625 0.45375 1.8125 0.6875 C1.44125 1.595 1.07 2.5025 0.6875 3.4375 C-0.49109299 6.56847015 -0.49109299 6.56847015 0.6875 9.0625 C1.05875 9.59875 1.43 10.135 1.8125 10.6875 C0.8225 11.3475 -0.1675 12.0075 -1.1875 12.6875 C-6.1875 7.32164634 -6.1875 7.32164634 -6.1875 4.5 C-3.43407534 -0.49058219 -3.43407534 -0.49058219 0 0 Z " fill="#222222" transform="translate(729.1875,93.3125)"/>
<path d="M0 0 C2.31 0 4.62 0 7 0 C7 3.3 7 6.6 7 10 C5.02 10 3.04 10 1 10 C0.67 6.7 0.34 3.4 0 0 Z " fill="#FCFCFC" transform="translate(92,241)"/>
<path d="M0 0 C2.31 0 4.62 0 7 0 C6.67 3.3 6.34 6.6 6 10 C4.02 10 2.04 10 0 10 C0 6.7 0 3.4 0 0 Z " fill="#FCFCFC" transform="translate(63,241)"/>
<path d="M0 0 C1.32 0 2.64 0 4 0 C3.521413 5.02516349 1.96747011 7.95344986 -1 12 C-1.99 13.485 -1.99 13.485 -3 15 C-4.32 14.34 -5.64 13.68 -7 13 C-6.57847656 12.39671875 -6.15695312 11.7934375 -5.72265625 11.171875 C-5.17480469 10.37265625 -4.62695312 9.5734375 -4.0625 8.75 C-3.51722656 7.96109375 -2.97195313 7.1721875 -2.41015625 6.359375 C-1.10377559 4.17363007 -0.45019489 2.4846199 0 0 Z " fill="#EDEDED" transform="translate(432,88)"/>
<path d="M0 0 C2.97 0 5.94 0 9 0 C9 2.31 9 4.62 9 7 C6.36 7 3.72 7 1 7 C0.67 4.69 0.34 2.38 0 0 Z " fill="#D9D9D9" transform="translate(555,76)"/>
<path d="M0 0 C4.95 0 9.9 0 15 0 C15 1.32 15 2.64 15 4 C10.05 4 5.1 4 0 4 C0 2.68 0 1.36 0 0 Z " fill="#181818" transform="translate(64,576)"/>
<path d="M0 0 C4.95 0 9.9 0 15 0 C15 1.32 15 2.64 15 4 C10.05 4 5.1 4 0 4 C0 2.68 0 1.36 0 0 Z " fill="#181818" transform="translate(83,568)"/>
<path d="M0 0 C1.32 0 2.64 0 4 0 C4 1.98 4 3.96 4 6 C5.65 6 7.3 6 9 6 C9 7.32 9 8.64 9 10 C6.03 10 3.06 10 0 10 C0 6.7 0 3.4 0 0 Z " fill="#222222" transform="translate(228,97)"/>
<path d="M0 0 C1.97119141 -0.34057617 1.97119141 -0.34057617 4.3515625 -0.29296875 C5.62773438 -0.2784668 5.62773438 -0.2784668 6.9296875 -0.26367188 C7.81914063 -0.23853516 8.70859375 -0.21339844 9.625 -0.1875 C10.97078125 -0.16719727 10.97078125 -0.16719727 12.34375 -0.14648438 C14.56309789 -0.11106925 16.78125188 -0.06168461 19 0 C19 0.99 19 1.98 19 3 C12.07 3 5.14 3 -2 3 C-1.34 2.01 -0.68 1.02 0 0 Z " fill="#FBFBFB" transform="translate(582,92)"/>
<path d="M0 0 C1.32 0 2.64 0 4 0 C4 4.95 4 9.9 4 15 C2.68 14.67 1.36 14.34 0 14 C0 9.38 0 4.76 0 0 Z " fill="#E0E0E0" transform="translate(1080,423)"/>
<path d="M0 0 C3.23356015 1.21258505 4.00856305 2.01284458 6 5 C5.9375 6.9375 5.9375 6.9375 5 9 C2.4375 11.25 2.4375 11.25 0 13 C-0.66 12.01 -1.32 11.02 -2 10 C-1.67 9.195625 -1.34 8.39125 -1 7.5625 C0.31205254 5.04489517 0.31205254 5.04489517 -0.875 2.6875 C-1.24625 2.130625 -1.6175 1.57375 -2 1 C-1.34 0.67 -0.68 0.34 0 0 Z " fill="#1C1C1C" transform="translate(745,93)"/>
<path d="M0 0 C2.31 0 4.62 0 7 0 C7 1.32 7 2.64 7 4 C7.33 4.99 7.66 5.98 8 7 C5 9 5 9 2 9 C0.3125 7.6875 0.3125 7.6875 -1 6 C-1 3 -1 3 0 0 Z " fill="#0C0C0C" transform="translate(250,253)"/>
<path d="M0 0 C3.3125 -0.3125 3.3125 -0.3125 7 0 C8.95578117 2.39740918 10 3.87586608 10 7 C7.03 7 4.06 7 1 7 C0.67 4.69 0.34 2.38 0 0 Z " fill="#E4E4E4" transform="translate(417,402)"/>
<path d="M0 0 C1.134375 0.020625 2.26875 0.04125 3.4375 0.0625 C3.1075 2.3725 2.7775 4.6825 2.4375 7.0625 C-0.5325 7.0625 -3.5025 7.0625 -6.5625 7.0625 C-4.33277027 0.07601351 -4.33277027 0.07601351 0 0 Z " fill="#E4E4E4" transform="translate(397.5625,401.9375)"/>
<path d="M0 0 C1.32 0 2.64 0 4 0 C4 2.97 4 5.94 4 9 C1.03 9 -1.94 9 -5 9 C-5 7.68 -5 6.36 -5 5 C-3.35 5 -1.7 5 0 5 C0 3.35 0 1.7 0 0 Z " fill="#0B0B0B" transform="translate(601,433)"/>
<path d="M0 0 C1.32 0 2.64 0 4 0 C4 1.65 4 3.3 4 5 C5.65 5 7.3 5 9 5 C9 6.32 9 7.64 9 9 C6.03 9 3.06 9 0 9 C0 6.03 0 3.06 0 0 Z " fill="#0B0B0B" transform="translate(541,433)"/>
<path d="M0 0 C2.97 0 5.94 0 9 0 C9 2.97 9 5.94 9 9 C7.68 9 6.36 9 5 9 C5 7.35 5 5.7 5 4 C3.35 4 1.7 4 0 4 C0 2.68 0 1.36 0 0 Z " fill="#0B0B0B" transform="translate(596,378)"/>
<path d="M0 0 C2.97 0 5.94 0 9 0 C9 1.32 9 2.64 9 4 C7.35 4 5.7 4 4 4 C4 5.65 4 7.3 4 9 C2.68 9 1.36 9 0 9 C0 6.03 0 3.06 0 0 Z " fill="#0B0B0B" transform="translate(541,378)"/>
<path d="M0 0 C2.64 0 5.28 0 8 0 C8 2.31 8 4.62 8 7 C5.36 7 2.72 7 0 7 C0 4.69 0 2.38 0 0 Z " fill="#DDDDDD" transform="translate(1061,233)"/>
<path d="M0 0 C0 2.31 0 4.62 0 7 C-2.97 7 -5.94 7 -9 7 C-9 5.02 -9 3.04 -9 1 C-2.25 0 -2.25 0 0 0 Z " fill="#E2E2E2" transform="translate(576,66)"/>
<path d="M0 0 C3.80013925 1.49291185 5.74918216 3.62377323 8 7 C8 8.32 8 9.64 8 11 C6.02 11 4.04 11 2 11 C1.664061 9.5422647 1.33133376 8.08378894 1 6.625 C0.814375 5.81289062 0.62875 5.00078125 0.4375 4.1640625 C0 2 0 2 0 0 Z " fill="#E7E7E7" transform="translate(920,220)"/>
<path d="M0 0 C2.64 0.33 5.28 0.66 8 1 C8 2.98 8 4.96 8 7 C5.03 7 2.06 7 -1 7 C-0.67 4.69 -0.34 2.38 0 0 Z " fill="#E7E7E7" transform="translate(556,66)"/>
<path d="M0 0 C5.94 0 11.88 0 18 0 C18 0.99 18 1.98 18 3 C12.06 3 6.12 3 0 3 C0 2.01 0 1.02 0 0 Z " fill="#000000" transform="translate(415,565)"/>
<path d="M0 0 C5.94 0 11.88 0 18 0 C18 0.99 18 1.98 18 3 C12.06 3 6.12 3 0 3 C0 2.01 0 1.02 0 0 Z " fill="#000000" transform="translate(72,420)"/>
<path d="M0 0 C0.99 0.33 1.98 0.66 3 1 C2.58846263 5.97093824 2.20399168 10.44508386 0 15 C-0.99 14.67 -1.98 14.34 -3 14 C-2.58846263 9.02906176 -2.20399168 4.55491614 0 0 Z " fill="#141414" transform="translate(737,92)"/>
<path d="M0 0 C6.15234375 -0.09765625 6.15234375 -0.09765625 8 0 C9 1 9 1 9.0625 3.5625 C9.041875 4.366875 9.02125 5.17125 9 6 C6.03 6 3.06 6 0 6 C0 4.02 0 2.04 0 0 Z " fill="#F2F2F2" transform="translate(411,74)"/>
<path d="M0 0 C2.05078125 0.03255208 4.1015625 0.06510417 6.15234375 0.09765625 C6.15234375 2.07765625 6.15234375 4.05765625 6.15234375 6.09765625 C3.18234375 6.09765625 0.21234375 6.09765625 -2.84765625 6.09765625 C-2.89037725 4.4315372 -2.88829457 2.7638274 -2.84765625 1.09765625 C-1.84765625 0.09765625 -1.84765625 0.09765625 0 0 Z " fill="#F2F2F2" transform="translate(400.84765625,73.90234375)"/>
<path d="M0 0 C4.29 0 8.58 0 13 0 C13 1.32 13 2.64 13 4 C8.71 4 4.42 4 0 4 C0 2.68 0 1.36 0 0 Z " fill="#101010" transform="translate(1068,91)"/>
<path d="M0 0 C2.97 0 5.94 0 9 0 C8.67 1.98 8.34 3.96 8 6 C5.36 6 2.72 6 0 6 C0 4.02 0 2.04 0 0 Z " fill="#F5F5F5" transform="translate(411,84)"/>
<path d="M0 0 C2.97 0 5.94 0 9 0 C9 1.98 9 3.96 9 6 C6.36 6 3.72 6 1 6 C0.67 4.02 0.34 2.04 0 0 Z " fill="#F5F5F5" transform="translate(398,84)"/>
<path d="M0 0 C4.29 0 8.58 0 13 0 C13 1.32 13 2.64 13 4 C8.71 4 4.42 4 0 4 C0 2.68 0 1.36 0 0 Z " fill="#101010" transform="translate(1068,76)"/>
<path d="M0 0 C-0.66 3.63 -1.32 7.26 -2 11 C-3.98 11 -5.96 11 -8 11 C-7.71915428 6.97454466 -7.21634296 5.25517374 -4.5625 2.125 C-2 0 -2 0 0 0 Z " fill="#F0F0F0" transform="translate(907,220)"/>
<path d="M0 0 C2.97 0 5.94 0 9 0 C9 2.97 9 5.94 9 9 C7.68 9 6.36 9 5 9 C5 7.02 5 5.04 5 3 C3.35 3 1.7 3 0 3 C0 2.01 0 1.02 0 0 Z " fill="#0F0F0F" transform="translate(253,73)"/>
<path d="M0 0 C-1.44077046 3.36179774 -3.24750021 5.59156268 -6 8 C-6.66 8 -7.32 8 -8 8 C-9.625 5.5 -9.625 5.5 -11 3 C-4.23255814 -1.51162791 -4.23255814 -1.51162791 0 0 Z " fill="#191919" transform="translate(259,239)"/>
<path d="M0 0 C1.98 0 3.96 0 6 0 C6.66 3.63 7.32 7.26 8 11 C3.98232708 8.93687066 1.94736847 7.09972309 0 3 C0 2.01 0 1.02 0 0 Z " fill="#F0F0F0" transform="translate(899,235)"/>
<path d="M0 0 C1.98 0 3.96 0 6 0 C6.33 2.64 6.66 5.28 7 8 C5.35 8.33 3.7 8.66 2 9 C0.14223235 5.86501708 -0.20140476 3.62528568 0 0 Z " fill="#E2E2E2" transform="translate(545,76)"/>
<path d="M0 0 C1.98 0 3.96 0 6 0 C4.72278474 4.99275057 2.82669043 7.57611908 -1 11 C-2.60080151 6.99799622 -1.29279692 3.95443764 0 0 Z " fill="#EFEFEF" transform="translate(922,235)"/>
<path d="M0 0 C1.85776765 3.13498292 2.20140476 5.37471432 2 9 C0.02 9 -1.96 9 -4 9 C-4.33 6.36 -4.66 3.72 -5 1 C-3 0 -3 0 0 0 Z " fill="#E4E4E4" transform="translate(584,64)"/>
<path d="M0 0 C3.96 0 7.92 0 12 0 C12 1.32 12 2.64 12 4 C8.37 4 4.74 4 1 4 C0.67 2.68 0.34 1.36 0 0 Z " fill="#D4D4D4" transform="translate(418,591)"/>
<path d="M0 0 C1.98 0 3.96 0 6 0 C5.125 6.75 5.125 6.75 4 9 C2.35 8.67 0.7 8.34 -1 8 C-0.67 5.36 -0.34 2.72 0 0 Z " fill="#E8E8E8" transform="translate(580,76)"/>
<path d="M0 0 C1.65 0.33 3.3 0.66 5 1 C4.67 3.64 4.34 6.28 4 9 C2.02 9 0.04 9 -2 9 C-1.34 6.03 -0.68 3.06 0 0 Z " fill="#E9E9E9" transform="translate(547,64)"/>
<path d="M0 0 C0.78375 0.04125 1.5675 0.0825 2.375 0.125 C3 2.5 3 2.5 3.375 5.125 C2.715 5.785 2.055 6.445 1.375 7.125 C-1.25 6.75 -1.25 6.75 -3.625 6.125 C-4.25 4.25 -4.25 4.25 -4.625 2.125 C-2.625 0.125 -2.625 0.125 0 0 Z " fill="#EDEDED" transform="translate(260.625,580.875)"/>
<path d="M0 0 C2.475 0.495 2.475 0.495 5 1 C5.33 3.31 5.66 5.62 6 8 C4.02 8 2.04 8 0 8 C0 5.36 0 2.72 0 0 Z " fill="#EDEDED" transform="translate(423,72)"/>
<path d="M0 0 C0.99 0.33 1.98 0.66 3 1 C2.814375 1.5775 2.62875 2.155 2.4375 2.75 C1.95976454 5.20692525 2.24270636 6.64397534 3 9 C1.68 9 0.36 9 -1 9 C-2.75 6.5 -2.75 6.5 -4 4 C-2.68 2.68 -1.36 1.36 0 0 Z " fill="#191919" transform="translate(57,409)"/>
<path d="M0 0 C1.98 0 3.96 0 6 0 C5.67 2.31 5.34 4.62 5 7 C3.0625 7.5625 3.0625 7.5625 1 8 C0 7 0 7 -0.0625 3.4375 C-0.041875 2.303125 -0.02125 1.16875 0 0 Z " fill="#F0F0F0" transform="translate(423,84)"/>
<path d="M0 0 C1.98 0 3.96 0 6 0 C6 2.31 6 4.62 6 7 C4.68 7.33 3.36 7.66 2 8 C-0.1519437 4.77208445 -0.20086443 3.71599191 0 0 Z " fill="#F0F0F0" transform="translate(389,84)"/>
<path d="M0 0 C2.64 0 5.28 0 8 0 C8 1.65 8 3.3 8 5 C4.94736336 5.98120464 3.05263664 5.98120464 0 5 C0 3.35 0 1.7 0 0 Z " fill="#FAFAFA" transform="translate(568,77)"/>
<path d="M0 0 C2.0625 0.4375 2.0625 0.4375 4 1 C4 3.31 4 5.62 4 8 C2.02 8 0.04 8 -2 8 C-1.125 1.125 -1.125 1.125 0 0 Z " fill="#EFEFEF" transform="translate(391,72)"/>
<path d="M0 0 C2.31 0 4.62 0 7 0 C7 2 7 2 5.3203125 3.7265625 C4.59585937 4.35304688 3.87140625 4.97953125 3.125 5.625 C2.40570313 6.25664062 1.68640625 6.88828125 0.9453125 7.5390625 C-1 9 -1 9 -3 9 C-2.01 6.03 -1.02 3.06 0 0 Z " fill="#DEDEDE" transform="translate(418,412)"/>
<path d="M0 0 C2.31 0 4.62 0 7 0 C7.99 2.97 8.98 5.94 10 9 C5.92107309 6.96053655 3.3433916 5.03944691 0 2 C0 1.34 0 0.68 0 0 Z " fill="#DEDEDE" transform="translate(393,412)"/>
<path d="M0 0 C1.98 0 3.96 0 6 0 C5.125 6.75 5.125 6.75 4 9 C3.34 9 2.68 9 2 9 C0.50178941 5.62902617 0 3.79557881 0 0 Z " fill="#E0E0E0" transform="translate(406,263)"/>
<path d="M0 0 C0.66 0 1.32 0 2 0 C3.49821059 3.37097383 4 5.20442119 4 9 C2.02 9 0.04 9 -2 9 C-1.125 2.25 -1.125 2.25 0 0 Z " fill="#E0E0E0" transform="translate(408,250)"/>
<path d="M0 0 C3.3 0 6.6 0 10 0 C10 1.32 10 2.64 10 4 C6.7 4 3.4 4 0 4 C0 2.68 0 1.36 0 0 Z " fill="#F8F8F8" transform="translate(53,59)"/>
<path d="M0 0 C3.73884332 2.65654657 5.64978174 4.58110387 7 9 C4.69 9 2.38 9 0 9 C0 6.03 0 3.06 0 0 Z " fill="#D4D4D4" transform="translate(567,54)"/>
<path d="M0 0 C0 2.97 0 5.94 0 9 C-2.31 9 -4.62 9 -7 9 C-5.99432671 5.98298013 -3.90847918 0 0 0 Z " fill="#D7D7D7" transform="translate(564,54)"/>
<path d="M0 0 C4.875 1.875 4.875 1.875 6 3 C6.04080783 4.99958364 6.04254356 7.00045254 6 9 C1.125 7.125 1.125 7.125 0 6 C-0.04080783 4.00041636 -0.04254356 1.99954746 0 0 Z " fill="#E9E9E9" transform="translate(880,412)"/>
<path d="M0 0 C1.32 0.33 2.64 0.66 4 1 C4 3.64 4 6.28 4 9 C2.68 9.33 1.36 9.66 0 10 C0 6.7 0 3.4 0 0 Z " fill="#B9B9B9" transform="translate(243,401)"/>
<path d="M0 0 C0.99 0.33 1.98 0.66 3 1 C3.1875 3.875 3.1875 3.875 3 7 C2.01 7.66 1.02 8.32 0 9 C-1.37562854 7.71034824 -2.70766393 6.37310707 -4 5 C-4 4.34 -4 3.68 -4 3 C-2.1875 1.3125 -2.1875 1.3125 0 0 Z " fill="#1B1B1B" transform="translate(1044,399)"/>
<path d="M0 0 C2.0625 0.4375 2.0625 0.4375 4 1 C4 2.98 4 4.96 4 7 C0 7 0 7 -3 5 C-1.125 1.125 -1.125 1.125 0 0 Z " fill="#191919" transform="translate(223,568)"/>
<path d="M0 0 C1.98 0 3.96 0 6 0 C6 2.97 6 5.94 6 9 C0.42857143 3.85714286 0.42857143 3.85714286 0 0 Z " fill="#DADADA" transform="translate(558,86)"/>
<path d="M0 0 C2.625 0.75 2.625 0.75 5 2 C5.33 2.66 5.66 3.32 6 4 C3 6 3 6 -0.1875 5.625 C-1.115625 5.41875 -2.04375 5.2125 -3 5 C-3 4.01 -3 3.02 -3 2 C-2.01 1.34 -1.02 0.68 0 0 Z " fill="#EEEEEE" transform="translate(887,405)"/>
<path d="M0 0 C3.96 0 7.92 0 12 0 C12 0.99 12 1.98 12 3 C8.04 3 4.08 3 0 3 C0 2.01 0 1.02 0 0 Z " fill="#000000" transform="translate(713,222)"/>
<path d="M0 0 C2.97 0.495 2.97 0.495 6 1 C4.73058503 4.91402949 3.48832306 6.79072873 0 9 C0 6.03 0 3.06 0 0 Z " fill="#D7D7D7" transform="translate(567,86)"/>
<path d="M0 0 C2.97 0 5.94 0 9 0 C8.67 1.32 8.34 2.64 8 4 C5.36 4 2.72 4 0 4 C0 2.68 0 1.36 0 0 Z " fill="#ECECEC" transform="translate(217,225)"/>
<path d="M0 0 C2.97 0 5.94 0 9 0 C8.67 1.32 8.34 2.64 8 4 C5.36 4 2.72 4 0 4 C0 2.68 0 1.36 0 0 Z " fill="#EEEEEE" transform="translate(545,220)"/>
<path d="M0 0 C2.97 0 5.94 0 9 0 C8.67 1.32 8.34 2.64 8 4 C5.36 4 2.72 4 0 4 C0 2.68 0 1.36 0 0 Z " fill="#EEEEEE" transform="translate(381,220)"/>
<path d="M0 0 C1.67542976 0.28604898 3.34385343 0.61781233 5 1 C4.67 2.65 4.34 4.3 4 6 C2.68 6 1.36 6 0 6 C-0.38218767 4.34385343 -0.71395102 2.67542976 -1 1 C-0.67 0.67 -0.34 0.34 0 0 Z " fill="#F5F5F5" transform="translate(228,79)"/>
<path d="M0 0 C3.63 0 7.26 0 11 0 C11 0.99 11 1.98 11 3 C7.37 3 3.74 3 0 3 C0 2.01 0 1.02 0 0 Z " fill="#000000" transform="translate(392,550)"/>
<path d="M0 0 C0 2.31 0 4.62 0 7 C-1.65 7.66 -3.3 8.32 -5 9 C-5 6.69 -5 4.38 -5 2 C-1.125 0 -1.125 0 0 0 Z " fill="#F4F4F4" transform="translate(895,412)"/>
<path d="M0 0 C3.63 0 7.26 0 11 0 C11 0.99 11 1.98 11 3 C7.37 3 3.74 3 0 3 C0 2.01 0 1.02 0 0 Z " fill="#FFFFFF" transform="translate(590,77)"/>
<path d="M0 0 C2.64 0 5.28 0 8 0 C8 1.32 8 2.64 8 4 C5.36 4 2.72 4 0 4 C0 2.68 0 1.36 0 0 Z " fill="#222222" transform="translate(90,576)"/>
<path d="M0 0 C2.64 0 5.28 0 8 0 C8 1.32 8 2.64 8 4 C5.36 4 2.72 4 0 4 C0 2.68 0 1.36 0 0 Z " fill="#222222" transform="translate(64,568)"/>
<path d="M0 0 C1.32 0.66 2.64 1.32 4 2 C4 3.32 4 4.64 4 6 C2.02 6.99 2.02 6.99 0 8 C-0.79953138 4.71303767 -1.09658936 3.28976808 0 0 Z " fill="#060606" transform="translate(232,568)"/>
<path d="M0 0 C1.32 0.66 2.64 1.32 4 2 C4 3.32 4 4.64 4 6 C2.02 6.99 2.02 6.99 0 8 C-0.79953138 4.71303767 -1.09658936 3.28976808 0 0 Z " fill="#070707" transform="translate(1052,399)"/>
<path d="M0 0 C2.64 0 5.28 0 8 0 C8 1.32 8 2.64 8 4 C5.36 4 2.72 4 0 4 C0 2.68 0 1.36 0 0 Z " fill="#D5D5D5" transform="translate(906,397)"/>
<path d="M0 0 C1.65 0.33 3.3 0.66 5 1 C4.67 2.65 4.34 4.3 4 6 C2.35 5.67 0.7 5.34 -1 5 C-0.67 3.35 -0.34 1.7 0 0 Z " fill="#FDFDFD" transform="translate(258,94)"/>
<path d="M0 0 C2.64 0 5.28 0 8 0 C8 1.32 8 2.64 8 4 C5.36 4 2.72 4 0 4 C0 2.68 0 1.36 0 0 Z " fill="#2C2C2C" transform="translate(754,80)"/>
<path d="M0 0 C1.98 0 3.96 0 6 0 C4.73058503 3.91402949 3.48832306 5.79072873 0 8 C0 5.36 0 2.72 0 0 Z " fill="#F1F1F1" transform="translate(411,94)"/>
<path d="M0 0 C1.98 0 3.96 0 6 0 C6 2.64 6 5.28 6 8 C1.125 3.375 1.125 3.375 0 0 Z " fill="#F1F1F1" transform="translate(401,94)"/>
<path d="M0 0 C4.875 4.625 4.875 4.625 6 8 C4.02 8 2.04 8 0 8 C0 5.36 0 2.72 0 0 Z " fill="#F6F6F6" transform="translate(411,62)"/>
<path d="M0 0 C0 2.64 0 5.28 0 8 C-1.98 8 -3.96 8 -6 8 C-3.18918919 0 -3.18918919 0 0 0 Z " fill="#F6F6F6" transform="translate(407,62)"/>
<path d="M0 0 C0.99 0 1.98 0 3 0 C3 3.3 3 6.6 3 10 C2.01 10 1.02 10 0 10 C0 6.7 0 3.4 0 0 Z " fill="#F5F5F5" transform="translate(584,405)"/>
<path d="M0 0 C3.3 0 6.6 0 10 0 C10 0.99 10 1.98 10 3 C6.7 3 3.4 3 0 3 C0 2.01 0 1.02 0 0 Z " fill="#050505" transform="translate(713,88)"/>
<path d="M0 0 C2.64 0 5.28 0 8 0 C8.33 0.99 8.66 1.98 9 3 C5.7 3 2.4 3 -1 3 C-0.67 2.01 -0.34 1.02 0 0 Z " fill="#F3F3F3" transform="translate(77,595)"/>
<path d="M0 0 C2.31 0 4.62 0 7 0 C7 1.32 7 2.64 7 4 C4.69 4 2.38 4 0 4 C0 2.68 0 1.36 0 0 Z " fill="#DEDEDE" transform="translate(915,427)"/>
<path d="M0 0 C2.31 0 4.62 0 7 0 C7 1.32 7 2.64 7 4 C4.69 4 2.38 4 0 4 C0 2.68 0 1.36 0 0 Z " fill="#DEDEDE" transform="translate(751,427)"/>
<path d="M0 0 C2.97 0 5.94 0 9 0 C9 0.99 9 1.98 9 3 C6.03 3 3.06 3 0 3 C0 2.01 0 1.02 0 0 Z " fill="#000000" transform="translate(415,580)"/>
<path d="M0 0 C2.97 0 5.94 0 9 0 C9 0.99 9 1.98 9 3 C6.03 3 3.06 3 0 3 C0 2.01 0 1.02 0 0 Z " fill="#010101" transform="translate(1072,84)"/>
<path d="M0 0 C1.98 0 3.96 0 6 0 C6 1.32 6 2.64 6 4 C4.02 4 2.04 4 0 4 C0 2.68 0 1.36 0 0 Z " fill="#DADADA" transform="translate(916,412)"/>
<path d="M0 0 C1.65 0 3.3 0 5 0 C3.75023244 3.65316671 3.32901247 4.78065836 0 7 C0 4.69 0 2.38 0 0 Z " fill="#D9D9D9" transform="translate(415,263)"/>
<path d="M0 0 C1.65 0 3.3 0 5 0 C5 2.31 5 4.62 5 7 C3.29115995 5.37660195 1.62553283 3.70680947 0 2 C0 1.34 0 0.68 0 0 Z " fill="#D9D9D9" transform="translate(398,263)"/>
<path d="M0 0 C1.70884005 1.62339805 3.37446717 3.29319053 5 5 C5 5.66 5 6.32 5 7 C3.35 7 1.7 7 0 7 C0 4.69 0 2.38 0 0 Z " fill="#DADADA" transform="translate(415,252)"/>
<path d="M0 0 C0.33 0 0.66 0 1 0 C1 2.31 1 4.62 1 7 C-0.65 7 -2.3 7 -4 7 C-2.92598892 4.08482708 -2.22189824 2.22189824 0 0 Z " fill="#D9D9D9" transform="translate(402,252)"/>
<path d="M0 0 C1.32 0 2.64 0 4 0 C4 1.98 4 3.96 4 6 C2.68 6 1.36 6 0 6 C0 4.02 0 2.04 0 0 Z " fill="#E3E3E3" transform="translate(79,248)"/>
<path d="M0 0 C1.32 0 2.64 0 4 0 C4 1.98 4 3.96 4 6 C2.68 6 1.36 6 0 6 C0 4.02 0 2.04 0 0 Z " fill="#E0E0E0" transform="translate(79,238)"/>
<path d="M0 0 C1.32 0 2.64 0 4 0 C4 1.98 4 3.96 4 6 C2.68 6 1.36 6 0 6 C0 4.02 0 2.04 0 0 Z " fill="#E3E3E3" transform="translate(899,84)"/>
<path d="M0 0 C1.98 0 3.96 0 6 0 C6 1.32 6 2.64 6 4 C4.02 4 2.04 4 0 4 C0 2.68 0 1.36 0 0 Z " fill="#2D2D2D" transform="translate(713,80)"/>
<path d="M0 0 C1.32 0 2.64 0 4 0 C4 1.98 4 3.96 4 6 C2.68 6 1.36 6 0 6 C0 4.02 0 2.04 0 0 Z " fill="#E3E3E3" transform="translate(899,74)"/>
<path d="M0 0 C0.99 0.33 1.98 0.66 3 1 C3 2.65 3 4.3 3 6 C1.68 6 0.36 6 -1 6 C-1.042721 4.33388095 -1.04063832 2.66617115 -1 1 C-0.67 0.67 -0.34 0.34 0 0 Z " fill="#B4B4B4" transform="translate(230,401)"/>
<path d="M0 0 C2.31 0 4.62 0 7 0 C7 0.99 7 1.98 7 3 C4.69 3 2.38 3 0 3 C0 2.01 0 1.02 0 0 Z " fill="#000000" transform="translate(72,405)"/>
<path d="M0 0 C0.99 0 1.98 0 3 0 C3 2.31 3 4.62 3 7 C2.01 7 1.02 7 0 7 C0 4.69 0 2.38 0 0 Z " fill="#E5E5E5" transform="translate(1051,77)"/>
<path d="M0 0 C1.32 0 2.64 0 4 0 C4 1.65 4 3.3 4 5 C2.68 5 1.36 5 0 5 C0 3.35 0 1.7 0 0 Z " fill="#BABABA" transform="translate(60,222)"/>
<path d="M0 0 C1.32 0 2.64 0 4 0 C4 1.65 4 3.3 4 5 C2.68 5 1.36 5 0 5 C0 3.35 0 1.7 0 0 Z " fill="#BABABA" transform="translate(53,222)"/>
<path d="M0 0 C2.475 0.495 2.475 0.495 5 1 C4.34 2.32 3.68 3.64 3 5 C2.01 4.67 1.02 4.34 0 4 C0 2.68 0 1.36 0 0 Z " fill="#DBDBDB" transform="translate(873,96)"/>
<path d="M0 0 C0.99 0.33 1.98 0.66 3 1 C3 2.32 3 3.64 3 5 C1.68 5 0.36 5 -1 5 C-0.67 3.35 -0.34 1.7 0 0 Z " fill="#CECECE" transform="translate(1064,225)"/>
<path d="M0 0 C0.99 0 1.98 0 3 0 C3 1.98 3 3.96 3 6 C2.01 6 1.02 6 0 6 C0 4.02 0 2.04 0 0 Z " fill="#F3F3F3" transform="translate(1051,88)"/>
<path d="M0 0 C1.32 0.33 2.64 0.66 4 1 C3.67 2.32 3.34 3.64 3 5 C2.01 4.67 1.02 4.34 0 4 C0 2.68 0 1.36 0 0 Z " fill="#EDEDED" transform="translate(925,63)"/>
</svg>
