<svg xmlns="http://www.w3.org/2000/svg" width="49.409" height="49.5" viewBox="0 0 49.409 49.5"><defs><style>.web-design-shopify-a{fill:#85985a;}</style></defs><g transform="translate(-13.541 -18.541)"><g transform="translate(13.541 18.541)"><path class="web-design-shopify-a" d="M62.2,18.541h-47.9a.759.759,0,0,0-.752.752V63.916a.744.744,0,0,0,.752.752h27.53a.725.725,0,0,0,.729-.752.734.734,0,0,0-.729-.729H15.045V27.543h46.4V63.187H59.964a.76.76,0,0,0-.775.729.75.75,0,0,0,.775.752H62.2a.744.744,0,0,0,.752-.752V19.293A.759.759,0,0,0,62.2,18.541Zm-47.153,7.5V20.045h46.4v5.994Z" transform="translate(-13.541 -18.541)"></path></g><g transform="translate(57.526 22.301)"><path class="web-design-shopify-a" d="M15.676,18.911a.722.722,0,0,0-.205.524.817.817,0,0,0,.205.547.761.761,0,0,0,.524.205.817.817,0,0,0,.547-.205.8.8,0,0,0,.228-.547.742.742,0,0,0-.228-.524A.8.8,0,0,0,15.676,18.911Z" transform="translate(-15.471 -18.706)"></path></g><g transform="translate(53.401 22.279)"><path class="web-design-shopify-a" d="M16.042,18.705a.759.759,0,0,0-.752.752.744.744,0,0,0,.752.752.725.725,0,0,0,.729-.752A.739.739,0,0,0,16.042,18.705Z" transform="translate(-15.29 -18.705)"></path></g><g transform="translate(49.276 22.301)"><path class="web-design-shopify-a" d="M15.337,18.911a.742.742,0,0,0-.228.524.8.8,0,0,0,.228.547.722.722,0,0,0,.524.205.706.706,0,0,0,.752-.752.722.722,0,0,0-.205-.524A.8.8,0,0,0,15.337,18.911Z" transform="translate(-15.109 -18.706)"></path></g><g transform="translate(21.677 33.251)"><path class="web-design-shopify-a" d="M39.7,38.844l-.068-.046-.068-.068h-.068l-.137-.068-.137-.023h-.137l-.137.046-.137.046-.114.091-.046.023-.068.091L38.534,39A12.43,12.43,0,1,1,24.723,20.68a.753.753,0,0,0,.524-.912.778.778,0,0,0-.912-.57A13.944,13.944,0,0,0,27.8,46.638a13.738,13.738,0,0,0,6.541-1.664l7.954,7.976a3.544,3.544,0,0,0,2.461,1.026,3.6,3.6,0,0,0,2.484-1.026l.8-.8a3.553,3.553,0,0,0,1.026-2.507,3.447,3.447,0,0,0-1.026-2.461Zm7.293,12.238-.82.8a2.052,2.052,0,0,1-2.826,0l-7.68-7.7a14.041,14.041,0,0,0,3.646-3.6l7.68,7.68a2.03,2.03,0,0,1,.593,1.39A2.1,2.1,0,0,1,46.989,51.082Z" transform="translate(-13.898 -19.186)"></path></g><g transform="translate(25.848 38.083)"><path class="web-design-shopify-a" d="M18,22.259a9.216,9.216,0,0,1,1.96-1.436A.782.782,0,0,0,20.28,19.8a.748.748,0,0,0-1-.319,9.1,9.1,0,0,0-2.325,1.732A9.724,9.724,0,0,0,29.875,35.705a.715.715,0,0,0,.114-1.048.776.776,0,0,0-1.048-.137A8.229,8.229,0,0,1,18,22.259Z" transform="translate(-14.081 -19.398)"></path></g><g transform="translate(33.619 30.642)"><path class="web-design-shopify-a" d="M25.293,40.7l.046.023.273.068h0l.273-.068.023-.023,10.438-4.649a.723.723,0,0,0,.456-.684V24.5l-.046-.205v-.046l-.068-.137-.023-.068-.114-.091-.046-.046-.046-.046-.068-.023-.046-.046L25.908,19.14a.726.726,0,0,0-.615,0L14.855,23.79l-.046.046-.068.023-.023.046-.068.046-.091.091-.023.068-.068.137-.023.046-.023.205V35.367a.7.7,0,0,0,.433.684ZM15.9,34.888V25.636l3.168,1.436,5.789,2.575v9.23Zm19.394,0-8.934,3.988v-9.23L35.3,25.636Zm-9.686-6.541-3.669-1.664,8.592-3.829L34.2,24.5Zm0-7.68,3.077,1.345L20.1,25.863,17,24.5Z" transform="translate(-14.422 -19.072)"></path></g></g></svg>