<svg xmlns="http://www.w3.org/2000/svg" width="42.667" height="45.997" viewBox="0 0 42.667 45.997"><defs><style>.web-design-technical-seo-a{fill:#85985a;}</style></defs><g transform="translate(-1346.965 -1769.759)"><path class="web-design-technical-seo-a" d="M1415.93,1877.713l-7.839-7.839a10.724,10.724,0,0,0,2.272-9.831.744.744,0,1,0-1.437.387,9.249,9.249,0,1,1-1.516-3.115l-1.6,1.017a1.638,1.638,0,0,0-2.433,1.79l-4.856,4.117a1.632,1.632,0,0,0-1.717.22l-3.514-1.48a.744.744,0,0,0-.578,1.372l3.489,1.47a1.642,1.642,0,1,0,3.248-.417l4.889-4.145a1.643,1.643,0,0,0,2.279-1.515c0-.053,0-.1-.008-.156l6.379-4.048a1.642,1.642,0,1,0-.807-1.412c0,.052,0,.1.008.156l-3.519,2.233a10.724,10.724,0,0,0-19.369,5.636l-5.271,3.1a1.642,1.642,0,1,0,.759,1.383c0-.033,0-.066,0-.1l4.543-2.668a10.718,10.718,0,0,0,17.713,7.062l7.839,7.839a.744.744,0,0,0,1.053-1.052Z" transform="translate(-26.517 -63.228)"></path><path class="web-design-technical-seo-a" d="M1381.634,1812.2a.744.744,0,0,0-.744.744v1.269h-28.816v-1.915s0-.008,0-.013,0-.008,0-.012v-37.9h28.816V1789.2a.744.744,0,1,0,1.489,0v-15.576a.745.745,0,0,0-.744-.745h-4.005V1770.5a.745.745,0,0,0-.745-.744h-29.175a.744.744,0,0,0-.744.744v41.778a.744.744,0,0,0,.744.745h2.876v1.927a.744.744,0,0,0,.744.744h30.3a.744.744,0,0,0,.744-.744v-2.013A.744.744,0,0,0,1381.634,1812.2Zm-33.18-.658v-40.29h27.687v1.637h-24.81a.745.745,0,0,0-.744.745v37.908Z"></path><path class="web-design-technical-seo-a" d="M1408.516,1808.964a.744.744,0,0,0-.744-.744H1388.52a.744.744,0,1,0,0,1.488h19.252A.744.744,0,0,0,1408.516,1808.964Z" transform="translate(-31.334 -29.53)"></path><path class="web-design-technical-seo-a" d="M1398.593,1824.348a.744.744,0,0,0-.744-.744h-9.328a.744.744,0,1,0,0,1.489h9.328A.744.744,0,0,0,1398.593,1824.348Z" transform="translate(-31.334 -41.341)"></path><path class="web-design-technical-seo-a" d="M1388.52,1839.844a.744.744,0,1,0,0,1.489h5.061a.744.744,0,1,0,0-1.489Z" transform="translate(-31.334 -53.81)"></path></g></svg>