<svg xmlns="http://www.w3.org/2000/svg" width="59.919" height="47.332" viewBox="0 0 59.919 47.332"><defs><style>.web-video-production-a{fill:#85985a;}</style></defs><g transform="translate(-1049.574 -2303.292)"><path class="web-video-production-a" d="M1110.014,2416.143a6.249,6.249,0,0,0-6.242-6.242H1084.9a6.249,6.249,0,0,0-6.242,6.242v4.77a6.249,6.249,0,0,0,6.242,6.242h18.869a6.249,6.249,0,0,0,6.242-6.242Zm-1.875,4.77a4.372,4.372,0,0,1-4.367,4.367H1084.9a4.372,4.372,0,0,1-4.367-4.367v-4.77a4.372,4.372,0,0,1,4.367-4.367h18.869a4.372,4.372,0,0,1,4.367,4.367Z" transform="translate(-20.88 -76.531)"></path><path class="web-video-production-a" d="M1146.24,2421.621a5.321,5.321,0,1,0,5.321,5.321A5.327,5.327,0,0,0,1146.24,2421.621Zm0,8.767a3.445,3.445,0,1,1,3.445-3.446A3.45,3.45,0,0,1,1146.24,2430.388Z" transform="translate(-65.573 -84.944)"></path><path class="web-video-production-a" d="M1096.943,2429.622a.937.937,0,0,0-.938.938v2.875a.938.938,0,0,0,1.875,0v-2.875A.937.937,0,0,0,1096.943,2429.622Z" transform="translate(-33.331 -90.687)"></path><path class="web-video-production-a" d="M1107.577,2429.622a.937.937,0,0,0-.937.938v2.875a.938.938,0,0,0,1.875,0v-2.875A.937.937,0,0,0,1107.577,2429.622Z" transform="translate(-40.965 -90.687)"></path><path class="web-video-production-a" d="M1056.6,2405.055l-4.605-1.948a.938.938,0,1,0-.731,1.727l4.606,1.949a.938.938,0,0,0,.731-1.728Z" transform="translate(-0.803 -71.6)"></path><path class="web-video-production-a" d="M1077.245,2383.668a.938.938,0,0,0,.869-1.29l-1.853-4.573a.938.938,0,1,0-1.738.7l1.853,4.573A.939.939,0,0,0,1077.245,2383.668Z" transform="translate(-17.86 -53.07)"></path><path class="web-video-production-a" d="M1054.531,2434.1l-4.257,1.122a.938.938,0,0,0,.238,1.845.924.924,0,0,0,.24-.031l4.257-1.123a.937.937,0,1,0-.478-1.813Z" transform="translate(0 -93.877)"></path><path class="web-video-production-a" d="M1146.913,2332.219v-22.575a.852.852,0,0,0,0-.553v-.319a5.486,5.486,0,0,0-5.48-5.48h-34.187a5.487,5.487,0,0,0-5.48,5.48v22.606a.938.938,0,1,0,1.875,0v-21.073h41.4v21.253h-19.769a.938.938,0,0,0,0,1.875h19.714a3.608,3.608,0,0,1-3.55,3H1128.51a.938.938,0,0,0,0,1.875h1.759v5.436a6.859,6.859,0,0,0,2.166,5h-5.916a.937.937,0,1,0,0,1.875h16.154a.937.937,0,1,0,0-1.875h-5.525a5.009,5.009,0,0,1-5-5v-5.436h9.288a5.486,5.486,0,0,0,5.48-5.48v-.055a.855.855,0,0,0,0-.554Zm-39.667-27.052h34.187a3.61,3.61,0,0,1,3.588,3.263h-41.363A3.61,3.61,0,0,1,1107.245,2305.167Z" transform="translate(-37.466)"></path></g></svg>