<svg xmlns="http://www.w3.org/2000/svg" width="67.667" height="48.521" viewBox="0 0 45.667 48.521"><defs><style>.web-design-optimize-a{fill:#85985a;}</style></defs><g transform="translate(-3051.679 -1776.836)"><path class="web-design-optimize-a" d="M3095.283,1787.754a2.048,2.048,0,0,0-2.039,2.355l-5.021,3.186v-11.821a4.645,4.645,0,0,0-4.639-4.639h-18.77a4.645,4.645,0,0,0-4.64,4.639V1782a.77.77,0,0,0,0,.422v19.566l-5.241,3.078a2.067,2.067,0,1,0,.858,1.457l4.383-2.574v12.436a.77.77,0,0,0,0,.422v3.909a4.645,4.645,0,0,0,4.64,4.639h18.77a4.645,4.645,0,0,0,4.639-4.639v-21.629a.845.845,0,0,0-1.691,0v16.664h-24.666v-32.695h24.666v11.158a.847.847,0,0,0,.014.144l-2.113,1.341a2.058,2.058,0,0,0-3.114,2.291l-6.734,5.709a2.048,2.048,0,0,0-2.21.2l-7.113-3.564a.846.846,0,0,0-.757,1.512l7.078,3.546c0,.044-.007.088-.007.132a2.063,2.063,0,1,0,4.06-.5l6.778-5.746a2.043,2.043,0,0,0,.886.2,2.065,2.065,0,0,0,2.063-2.062,2.033,2.033,0,0,0-.023-.293l8.81-5.591a2.062,2.062,0,1,0,1.134-3.784Zm-30.469-9.227h18.77a2.95,2.95,0,0,1,2.943,2.84h-24.655A2.949,2.949,0,0,1,3064.813,1778.527Zm21.718,38.917v3.274a2.952,2.952,0,0,1-2.948,2.948h-18.77a2.951,2.951,0,0,1-2.948-2.948v-3.274Z" transform="translate(0 0)"/><path class="web-design-optimize-a" d="M3128.2,1940.145h3.382a.845.845,0,0,0,0-1.691H3128.2a.845.845,0,1,0,0,1.691Z" transform="translate(-55.713 -118.981)"/></g></svg>