<svg xmlns="http://www.w3.org/2000/svg" width="48.042" height="36.793" viewBox="0 0 48.042 36.793"><defs><style>.a{fill:#85985a;}</style></defs><g transform="translate(-483.9 -1790.169)"><path class="a" d="M496.039,1807.411a.75.75,0,0,0,.75-.75V1792.6a.935.935,0,0,1,.934-.935h37.115a.936.936,0,0,1,.935.935v1.047a.75.75,0,0,0,1.5,0V1792.6a2.437,2.437,0,0,0-2.434-2.434H497.723a2.437,2.437,0,0,0-2.434,2.434v14.058A.75.75,0,0,0,496.039,1807.411Z" transform="translate(-8.724 0)"/><path class="a" d="M536.522,1840.969a.75.75,0,0,0-.75.75v10.86H498.724a.75.75,0,0,0,0,1.5h37.048v1.283a.935.935,0,0,1-.935.934H497.723a.935.935,0,0,1-.934-.934v-1.607a.75.75,0,1,0-1.5,0v1.607a2.437,2.437,0,0,0,2.434,2.434h13.546v3.616a2.962,2.962,0,0,1-2.958,2.958h-4.137a.75.75,0,1,0,0,1.5h4.08c.023,0,.045.007.068.007h15.9c.023,0,.046-.005.068-.007h4.058a.75.75,0,1,0,0-1.5h-4.1a2.962,2.962,0,0,1-2.958-2.958v-3.616h13.546a2.437,2.437,0,0,0,2.434-2.434v-13.642A.75.75,0,0,0,536.522,1840.969Zm-15.592,23.408h-9.3a4.435,4.435,0,0,0,1.139-2.966v-3.616h7.022v3.616A4.435,4.435,0,0,0,520.93,1864.377Z" transform="translate(-8.724 -38.914)"/><path class="a" d="M529.495,1813.216a2.441,2.441,0,0,0-2.284,3.317l-10.237,7.845a2.441,2.441,0,0,0-3.87.191l-9.934-4.789c0-.047.007-.094.007-.143a2.447,2.447,0,1,0-4.861.384l-10.478,6.474a2.443,2.443,0,1,0,.853,1.236L499,1821.363a2.443,2.443,0,0,0,3.628-.181l10.043,4.842a2.446,2.446,0,0,0,4.891-.061c0-.046,0-.092-.007-.139l10.6-8.119a2.446,2.446,0,1,0,1.347-4.488Zm-43.148,16.162a.947.947,0,1,1,.947-.947A.949.949,0,0,1,486.347,1829.378Zm14.383-8.795a.947.947,0,1,1,.947-.947A.948.948,0,0,1,500.73,1820.583Zm14.382,6.326a.947.947,0,1,1,.947-.948A.948.948,0,0,1,515.112,1826.909Zm14.383-10.3a.947.947,0,1,1,.947-.947A.949.949,0,0,1,529.495,1816.61Z" transform="translate(0 -17.655)"/></g></svg>