<svg xmlns="http://www.w3.org/2000/svg" width="46.17" height="58.667" viewBox="0 0 46.17 58.667"><defs><style>.web-design-drive-a{fill:#85985a;}</style></defs><g transform="translate(-226.52 -1766.982)"><path class="web-design-drive-a" d="M271.766,1812.035H252.253V1806.3a.923.923,0,0,0-1.847,0v1.175h-2.162v-3.873a.923.923,0,0,0-1.847,0v8.428H227.443a.923.923,0,0,0-.923.923v5.351a.924.924,0,0,0,.361.733l18.722,14.364v5.777a.923.923,0,0,0,.923.923h6.156a.923.923,0,0,0,.923-.923v-5.777l18.722-14.364a.925.925,0,0,0,.361-.733v-5.351A.923.923,0,0,0,271.766,1812.035Zm-23.522-2.708h2.162v2.708h-2.162Zm3.877,22.891a.923.923,0,0,0-.361.733v5.309H247.45v-5.309a.924.924,0,0,0-.361-.733l-17.24-13.227h22.9a.923.923,0,1,0,0-1.847H228.367v-3.262h42.476v3.262h-8.126a.923.923,0,1,0,0,1.847h6.643Z" transform="translate(0 -25.415)"/><path class="web-design-drive-a" d="M243.8,1788.3h5.708a.924.924,0,0,0,.923-.924v-5.316a.924.924,0,0,0-.923-.923h-2.462a.923.923,0,0,0,0,1.847h1.538v3.469h-3.861v-7.536a.923.923,0,0,0-1.847,0v8.46A.924.924,0,0,0,243.8,1788.3Z" transform="translate(-11.647 -7.839)"/><path class="web-design-drive-a" d="M340.375,1786.131a.923.923,0,0,0-.923.923v6.051a.923.923,0,0,0,.923.923h7.473a.923.923,0,0,0,.923-.923v-5.148c0-.016,0-.031,0-.047v-5.048a.923.923,0,0,0-1.847,0v4.88c0,.016,0,.031,0,.047v4.393H341.3v-5.128A.923.923,0,0,0,340.375,1786.131Z" transform="translate(-80.396 -10.648)"/><path class="web-design-drive-a" d="M366.331,1771.516a.923.923,0,0,0,.923-.923v-.123a.924.924,0,0,0-1.847,0v.123A.923.923,0,0,0,366.331,1771.516Z" transform="translate(-98.873 -1.825)"/><path class="web-design-drive-a" d="M244.537,1769.806a.923.923,0,0,0,.923-.923v-.123a.923.923,0,0,0-1.847,0v.123A.923.923,0,0,0,244.537,1769.806Z" transform="translate(-12.169 -0.608)"/><path class="web-design-drive-a" d="M340.262,1789.037a.923.923,0,0,0,.924-.923v-.123a.924.924,0,0,0-1.847,0v.123A.923.923,0,0,0,340.262,1789.037Z" transform="translate(-80.316 -14.299)"/><path class="web-design-drive-a" d="M353.083,1777.939a.923.923,0,0,0,.923-.923v-9.111a.923.923,0,0,0-1.847,0v9.111A.923.923,0,0,0,353.083,1777.939Z" transform="translate(-89.443 0)"/><path class="web-design-drive-a" d="M296.246,1789.66a.923.923,0,0,0,.923-.923v-1.6a.923.923,0,0,0-1.847,0v1.6A.923.923,0,0,0,296.246,1789.66Z" transform="translate(-48.981 -13.69)"/><path class="web-design-drive-a" d="M310.348,1801.553a.923.923,0,0,0,.923-.923v-.246a.923.923,0,1,0-1.847,0v.246A.923.923,0,0,0,310.348,1801.553Z" transform="translate(-59.02 -23.121)"/><path class="web-design-drive-a" d="M336.087,1852.878h-.739a.923.923,0,1,0,0,1.847h.739a.923.923,0,1,0,0-1.847Z" transform="translate(-76.817 -61.149)"/><path class="web-design-drive-a" d="M296.626,1942.423a4.061,4.061,0,1,0,4.061,4.061A4.065,4.065,0,0,0,296.626,1942.423Zm0,6.274a2.214,2.214,0,1,1,2.214-2.214A2.216,2.216,0,0,1,296.626,1948.7Z" transform="translate(-47.017 -124.896)"/></g></svg>