<svg xmlns="http://www.w3.org/2000/svg" width="44.667" height="43.364" viewBox="0 0 44.667 43.364"><defs><style>.web-design-leads-a{fill:#85985a;}</style></defs><g transform="translate(-5588.348 -1255.315)"><path class="web-design-leads-a" d="M5664.565,1346.832a4.555,4.555,0,1,0,4.555-4.555A4.56,4.56,0,0,0,5664.565,1346.832Zm7.747,0a3.191,3.191,0,1,1-3.191-3.191A3.195,3.195,0,0,1,5672.312,1346.832Z" transform="translate(-59.334 -67.7)"/><path class="web-design-leads-a" d="M5667.945,1393.264a.682.682,0,0,0,.535-.8,6.847,6.847,0,0,0-13.408-.1.682.682,0,0,0,1.333.287,5.483,5.483,0,0,1,10.736.078.682.682,0,0,0,.8.535Z" transform="translate(-51.933 -102.483)"/><path class="web-design-leads-a" d="M5725.4,1360.152a4.555,4.555,0,1,0,4.556-4.555A4.561,4.561,0,0,0,5725.4,1360.152Zm7.747,0a3.191,3.191,0,1,1-3.191-3.191A3.195,3.195,0,0,1,5733.144,1360.152Z" transform="translate(-106.691 -78.069)"/><path class="web-design-leads-a" d="M5725.557,1405.782a6.847,6.847,0,0,0-13.408-.1l-1.068,5.021a.682.682,0,0,0,.525.809.668.668,0,0,0,.142.015.683.683,0,0,0,.667-.54l1.068-5.02a5.483,5.483,0,0,1,10.736.076l.974,4.934a.682.682,0,1,0,1.338-.264Z" transform="translate(-95.535 -112.853)"/><path class="web-design-leads-a" d="M5609.14,1364.708a4.555,4.555,0,1,0-4.556-4.556A4.56,4.56,0,0,0,5609.14,1364.708Zm0-7.747a3.191,3.191,0,1,1-3.191,3.191A3.195,3.195,0,0,1,5609.14,1356.961Z" transform="translate(-12.64 -78.069)"/><path class="web-design-leads-a" d="M5604.747,1405.782a6.847,6.847,0,0,0-13.408-.1l-1.069,5.021a.682.682,0,0,0,.525.809.67.67,0,0,0,.143.015.683.683,0,0,0,.667-.54l1.068-5.02a5.483,5.483,0,0,1,10.736.076l.973,4.934a.682.682,0,0,0,1.339-.264Z" transform="translate(-1.484 -112.853)"/><path class="web-design-leads-a" d="M5632.333,1255.315h-43.3a.682.682,0,0,0-.682.682v25.819a.682.682,0,0,0,1.364,0v-25.137h41.938v25.137a.682.682,0,1,0,1.364,0V1256A.682.682,0,0,0,5632.333,1255.315Z"/><path class="web-design-leads-a" d="M5607.211,1275.2h3.553a.682.682,0,1,0,0-1.364h-3.553a.682.682,0,0,0,0,1.364Z" transform="translate(-14.154 -14.418)"/><path class="web-design-leads-a" d="M5607.211,1289.235h8.291a.682.682,0,1,0,0-1.364h-8.291a.682.682,0,1,0,0,1.364Z" transform="translate(-14.154 -25.345)"/><path class="web-design-leads-a" d="M5607.211,1303.271h5.478a.682.682,0,1,0,0-1.364h-5.478a.682.682,0,1,0,0,1.364Z" transform="translate(-14.154 -36.272)"/><path class="web-design-leads-a" d="M5656.915,1278.443a.682.682,0,0,0-.965,0l-7.027,7.037-3.353-2.465a.682.682,0,0,0-.843.028l-5.6,4.712-4.147-3.047a.681.681,0,0,0-.858.041l-8.612,7.7a.682.682,0,0,0,.91,1.017l8.2-7.33,4.134,3.038a.682.682,0,0,0,.843-.028l5.6-4.712,3.392,2.495a.682.682,0,0,0,.887-.068l7.441-7.452A.683.683,0,0,0,5656.915,1278.443Z" transform="translate(-28.756 -17.85)"/></g></svg>