<svg xmlns="http://www.w3.org/2000/svg" width="46.187" height="46" viewBox="0 0 46.187 46"><defs><style>.web-design-online-a{fill:#85985a;}</style></defs><g transform="translate(-201.576 -2287.435)"><path class="web-design-online-a" d="M291.093,2299.572a9.721,9.721,0,0,1,3.367,5.351.766.766,0,0,0,1.493-.346,11.21,11.21,0,0,0-10.2-8.646v-3.115a14.322,14.322,0,0,1,13.431,12.082.767.767,0,0,0,.756.648.755.755,0,0,0,.119-.009.766.766,0,0,0,.639-.875,15.858,15.858,0,0,0-14.945-13.382V2288.2a.766.766,0,0,0-1.533,0v10.832a.766.766,0,0,0,1.533,0v-1.568A9.556,9.556,0,0,1,291.093,2299.572Z" transform="translate(-63.583)"/><path class="web-design-online-a" d="M306.023,2381.01a15.5,15.5,0,0,0,3.706-9.4h3.07a.766.766,0,1,0,0-1.533H301.967a.766.766,0,1,0,0,1.533h1.576a9.437,9.437,0,0,1-7.235,8.469.766.766,0,1,0,.382,1.484,11.428,11.428,0,0,0,6.014-3.826,10.7,10.7,0,0,0,2.375-6.128h3.115a13.761,13.761,0,0,1-3.335,8.4,14.486,14.486,0,0,1-8.36,4.774.766.766,0,0,0,.138,1.52.734.734,0,0,0,.139-.013A16.023,16.023,0,0,0,306.023,2381.01Z" transform="translate(-72.445 -63.583)"/><path class="web-design-online-a" d="M348.637,2429.932l-10.964-10.964a.766.766,0,0,0-1.084,1.084l10.964,10.964a1.122,1.122,0,0,1-1.587,1.587L335,2421.639a.766.766,0,0,0-1.084,1.083l10.964,10.964a2.655,2.655,0,0,0,3.754-3.754Z" transform="translate(-101.652 -101.029)"/><path class="web-design-online-a" d="M235.35,2385.693a.767.767,0,0,0-.767.766v1.4a9.409,9.409,0,0,1-5.443-2.069,9.162,9.162,0,0,1-3.222-5.358.766.766,0,1,0-1.5.306,10.768,10.768,0,0,0,10.166,8.656v3.112a14.162,14.162,0,0,1-8.683-3.383,13.969,13.969,0,0,1-4.668-8.551.766.766,0,1,0-1.516.224,15.5,15.5,0,0,0,5.183,9.488,15.7,15.7,0,0,0,9.684,3.755v3.254a.766.766,0,0,0,1.533,0v-10.831A.766.766,0,0,0,235.35,2385.693Z" transform="translate(-13.951 -71.078)"/><path class="web-design-online-a" d="M213.94,2320.6a.766.766,0,0,0-.766-.766h-1.388a9.459,9.459,0,0,1,7.487-8.854.767.767,0,0,0-.31-1.5,10.982,10.982,0,0,0-8.713,10.356h-3.112a14.324,14.324,0,0,1,12.149-13.534.766.766,0,1,0-.229-1.516,15.854,15.854,0,0,0-13.453,15.05h-3.263a.766.766,0,1,0,0,1.532h10.831A.766.766,0,0,0,213.94,2320.6Z" transform="translate(0 -13.341)"/></g></svg>