<svg xmlns="http://www.w3.org/2000/svg" width="47.002" height="48" viewBox="0 0 47.002 48"><defs><style>.web-design-brand-a{fill:#85985a;}</style></defs><g transform="translate(-1346.615 -2811.415)"><path class="web-design-brand-a" d="M1362.913,2834.066a7.331,7.331,0,0,1,.25-.741,16.645,16.645,0,0,0,.111-12.2c-2.343-6.441-7.43-9.708-15.12-9.708a.752.752,0,1,0,0,1.5,16.548,16.548,0,0,1,8.119,1.83,12.413,12.413,0,0,1,5.589,6.888,15.042,15.042,0,0,1-.109,11.169,4.2,4.2,0,0,0-.343,1.223c-.021.889,1.762,5.746,2.781,8.444l-3.044,1.043a.751.751,0,0,0-.471.943,11.5,11.5,0,0,0,.479,1.223l-4.946.393a.752.752,0,0,0-.307,1.405l4.429,2.475-1.145.665a.753.753,0,0,0-.331.4l-1.7,4.8a1.974,1.974,0,0,1-2.389.895l-5.378-1.947a.752.752,0,0,0-.914.344l-1.764,3.194a.752.752,0,1,0,1.316.727l1.453-2.632,4.774,1.729a3.482,3.482,0,0,0,4.256-1.655.712.712,0,0,0,.042-.1l1.628-4.59.984-.572a1.461,1.461,0,0,0,.211-2.377.743.743,0,0,0-.12-.083l-2.457-1.373,2.888-.23a1.242,1.242,0,0,0,.949-1.877,4.515,4.515,0,0,1-.275-.582l3.053-1.045a.752.752,0,0,0,.459-.979A86.683,86.683,0,0,1,1362.913,2834.066Z"/><path class="web-design-brand-a" d="M1444.1,2831.1h-6.351a10.125,10.125,0,0,0-10.372,9.833v5.995a9.526,9.526,0,0,0,2.461,6.343,10.492,10.492,0,0,0,4.58,2.963l-4.213,3.554a.751.751,0,0,0,.76,1.274l10.908-4.3h2.227a10.125,10.125,0,0,0,10.372-9.833v-5.995A10.125,10.125,0,0,0,1444.1,2831.1Zm8.869,15.827a8.622,8.622,0,0,1-8.869,8.33h-2.392l-.044,0-.036,0-.037.006-.043.01-.029.007-.047.016-.018.006-6.777,2.673,1.833-1.546,0,0c.013-.011.025-.023.037-.034l.017-.017a.7.7,0,0,0,.046-.052l.014-.019c.011-.014.022-.029.031-.045s.013-.022.019-.033.012-.021.018-.031.018-.038.026-.058l0-.01a.673.673,0,0,0,.024-.071s0-.01,0-.016.009-.038.013-.057v0c0-.008,0-.016,0-.024s0-.03.005-.046,0-.025,0-.037,0-.024,0-.036,0-.027,0-.041,0-.021,0-.032,0-.027-.006-.04,0-.022-.006-.033-.006-.024-.009-.036-.006-.023-.01-.035-.008-.022-.012-.032l-.015-.037-.014-.03-.018-.036-.019-.031c-.007-.01-.013-.021-.02-.031s-.018-.024-.027-.036l-.015-.02,0,0c-.012-.014-.024-.027-.037-.04l-.014-.015c-.016-.016-.033-.03-.051-.044l-.033-.024-.031-.023-.044-.025-.02-.011a.756.756,0,0,0-.138-.054l-.013,0-.06-.013h0a9.047,9.047,0,0,1-5.194-2.852,8.025,8.025,0,0,1-2.078-5.341v-5.995a8.622,8.622,0,0,1,8.869-8.33h6.351a8.622,8.622,0,0,1,8.869,8.33Z" transform="translate(-60.861 -14.833)"/><path class="web-design-brand-a" d="M1466.155,2860.048h-13.328a.751.751,0,0,0,0,1.5h13.328a.751.751,0,0,0,0-1.5Z" transform="translate(-79.468 -36.647)"/><path class="web-design-brand-a" d="M1466.155,2879.97h-13.328a.752.752,0,0,0,0,1.5h13.328a.752.752,0,0,0,0-1.5Z" transform="translate(-79.468 -51.658)"/><path class="web-design-brand-a" d="M1460.943,2899.486h-8.117a.752.752,0,0,0,0,1.5h8.117a.752.752,0,1,0,0-1.5Z" transform="translate(-79.468 -66.364)"/></g></svg>