<svg xmlns="http://www.w3.org/2000/svg" width="52.667" height="46.704" viewBox="0 0 52.667 46.704"><defs><style>.web-design-cust-a{fill:#85985a;}</style></defs><g transform="translate(-4452.023 -1776.381)"><path class="web-design-cust-a" d="M4503.864,1889.4h-2.749a22.809,22.809,0,0,0-5.812-14.421.824.824,0,0,0-.183-.2,22.863,22.863,0,0,0-33.772,0,.825.825,0,0,0-.183.2,22.808,22.808,0,0,0-5.813,14.421h-2.5a.825.825,0,0,0,0,1.65h51.017a.825.825,0,1,0,0-1.65Zm-18.5-14.411a24.094,24.094,0,0,1,1.069,2.463,40.526,40.526,0,0,1-7.379.807v-9.21C4481.4,1869.447,4483.618,1871.52,4485.369,1874.992Zm-7.96-5.941v9.21a40.527,40.527,0,0,1-7.379-.807,24.311,24.311,0,0,1,1.069-2.463C4472.85,1871.52,4475.065,1869.447,4477.409,1869.051Zm0,10.86v9.491h-9.475a38.159,38.159,0,0,1,1.563-10.377A42.08,42.08,0,0,0,4477.409,1879.911Zm1.65,0a42.075,42.075,0,0,0,7.911-.886,38.141,38.141,0,0,1,1.563,10.377h-9.474Zm9.519-1.266a28.369,28.369,0,0,0,5.833-2.177,21.152,21.152,0,0,1,5.053,12.934h-9.28A39.946,39.946,0,0,0,4488.578,1878.645Zm4.669-3.439a27.343,27.343,0,0,1-5.191,1.872,26.054,26.054,0,0,0-1.214-2.831,16.334,16.334,0,0,0-3.295-4.6A21.251,21.251,0,0,1,4493.248,1875.207Zm-23.623-.958a25.942,25.942,0,0,0-1.214,2.831,27.342,27.342,0,0,1-5.19-1.873,21.25,21.25,0,0,1,9.7-5.554A16.334,16.334,0,0,0,4469.625,1874.248Zm-7.568,2.22a28.355,28.355,0,0,0,5.833,2.177,39.965,39.965,0,0,0-1.605,10.757H4457A21.152,21.152,0,0,1,4462.057,1876.468Z" transform="translate(0 -67.968)"/><path class="web-design-cust-a" d="M4539.811,1787.4a5.51,5.51,0,1,0-5.51-5.51A5.517,5.517,0,0,0,4539.811,1787.4Zm0-9.37a3.86,3.86,0,1,1-3.86,3.86A3.864,3.864,0,0,1,4539.811,1778.031Z" transform="translate(-61.488)"/><path class="web-design-cust-a" d="M4522.683,1834.517a.825.825,0,0,0,.96-.663l.792-4.316a5.274,5.274,0,0,1,5.126-4.132h2.254a5.259,5.259,0,0,1,5.144,4.21l.807,4.243a.825.825,0,0,0,1.621-.308l-.809-4.251a6.915,6.915,0,0,0-6.763-5.544h-2.254a6.933,6.933,0,0,0-6.742,5.446.224.224,0,0,0,0,.025l-.795,4.329A.825.825,0,0,0,4522.683,1834.517Z" transform="translate(-52.3 -35.405)"/><path class="web-design-cust-a" d="M4474.26,1807.279a4.851,4.851,0,1,0-4.851-4.851A4.857,4.857,0,0,0,4474.26,1807.279Zm0-8.052a3.2,3.2,0,1,1-3.2,3.2A3.2,3.2,0,0,1,4474.26,1799.227Z" transform="translate(-12.993 -15.84)"/><path class="web-design-cust-a" d="M4456.9,1851.084a.824.824,0,0,0,.965-.656l1.341-7.031a4.415,4.415,0,0,1,4.292-3.459h1.938a4.4,4.4,0,0,1,4.307,3.531.825.825,0,0,0,1.618-.324,6.059,6.059,0,0,0-5.925-4.857H4463.5a6.074,6.074,0,0,0-5.907,4.772c0,.006,0,.013,0,.019l-1.343,7.04A.825.825,0,0,0,4456.9,1851.084Z" transform="translate(-3.147 -46.264)"/><path class="web-design-cust-a" d="M4608.3,1807.279a4.851,4.851,0,1,0-4.851-4.851A4.857,4.857,0,0,0,4608.3,1807.279Zm0-8.052a3.2,3.2,0,1,1-3.2,3.2A3.2,3.2,0,0,1,4608.3,1799.227Z" transform="translate(-113.167 -15.84)"/><path class="web-design-cust-a" d="M4595.743,1844.116a.825.825,0,0,0,.971-.647,4.4,4.4,0,0,1,4.307-3.531h1.937a4.416,4.416,0,0,1,4.292,3.46l1.341,7.03a.825.825,0,0,0,.809.671.835.835,0,0,0,.156-.015.824.824,0,0,0,.656-.965l-1.343-7.04c0-.006,0-.013,0-.019a6.075,6.075,0,0,0-5.908-4.772h-1.937a6.058,6.058,0,0,0-5.925,4.857A.825.825,0,0,0,4595.743,1844.116Z" transform="translate(-106.909 -46.264)"/></g></svg>