<svg xmlns="http://www.w3.org/2000/svg" width="57.927" height="47.768" viewBox="0 0 57.927 47.768"><defs><style>.web-design-analytics-a{fill:#85985a;}</style></defs><g transform="translate(-2470.875 -2303.688)"><path class="web-design-analytics-a" d="M2521.353,2392.968c-.012-.015-.025-.028-.038-.042a28.98,28.98,0,0,0-2.4-2.366.875.875,0,1,0-1.153,1.316q.774.678,1.488,1.408c-.542.271-1.1.533-1.686.781a.875.875,0,1,0,.683,1.61c.777-.329,1.524-.683,2.231-1.053a27.235,27.235,0,0,1,6.079,12.573h-11.914a51.342,51.342,0,0,0-.818-5.583.875.875,0,0,0-1.714.352,49.443,49.443,0,0,1,.776,5.232h-12.174v-5.408a.875.875,0,1,0-1.75,0v5.408H2486.79a49.443,49.443,0,0,1,.776-5.232.875.875,0,0,0-1.714-.352,51.223,51.223,0,0,0-.817,5.583h-11.916a27.2,27.2,0,0,1,6.081-12.573c.716.375,1.473.732,2.259,1.065a.875.875,0,0,0,.682-1.611c-.593-.251-1.164-.517-1.713-.793q.78-.794,1.63-1.529a.875.875,0,1,0-1.144-1.324,29.032,29.032,0,0,0-2.553,2.5l-.033.037a28.949,28.949,0,0,0-7.452,19.391.875.875,0,0,0,1.75,0,27.221,27.221,0,0,1,.216-3.412H2484.9c-.067,1.126-.105,2.264-.105,3.412a.875.875,0,1,0,1.75,0c0-1.149.039-2.286.108-3.412h12.309v3.412a.875.875,0,1,0,1.75,0v-3.412h12.31c.069,1.125.108,2.263.108,3.412a.875.875,0,1,0,1.75,0c0-1.148-.038-2.286-.105-3.412h12.061a27.138,27.138,0,0,1,.217,3.412.875.875,0,1,0,1.75,0A28.97,28.97,0,0,0,2521.353,2392.968Z" transform="translate(0 -61.775)"></path><path class="web-design-analytics-a" d="M2505.78,2335.958a.875.875,0,1,0,0,1.75h36.42a.875.875,0,0,0,0-1.75h-1.8v-22a.875.875,0,0,0-.875-.875h-4.968a.875.875,0,0,0-.875.875v22h-1.852v-31.395a.875.875,0,0,0-.875-.875h-4.969a.875.875,0,0,0-.875.875v31.395h-1.853v-20.835a.875.875,0,0,0-.875-.875h-4.968a.875.875,0,0,0-.875.875v20.835h-1.852v-12.937a.875.875,0,0,0-.875-.875h-4.968a.875.875,0,0,0-.875.875v12.937Zm29.651-21.126h3.219v21.126h-3.219Zm-8.57-9.394h3.219v30.52h-3.219ZM2518.29,2316h3.219v19.96h-3.219Zm-8.57,7.9h3.219v12.062h-3.219Z" transform="translate(-24.295)"></path></g></svg>