<svg xmlns="http://www.w3.org/2000/svg" width="52.066" height="49.333" viewBox="0 0 52.066 49.333"><defs><style>.web-design-maintenance-a{fill:#85985a;}</style></defs><g transform="translate(-3334.469 -1783.759)"><path class="web-design-maintenance-a" d="M3383.517,1783.759H3337.5a3.021,3.021,0,0,0-3.018,3.018v29.464a.907.907,0,0,0,0,.358v3.457a3.022,3.022,0,0,0,3.018,3.018H3354.3v4.483a3.672,3.672,0,0,1-3.667,3.668H3345.5a.93.93,0,0,0,0,1.859h5.058c.028,0,.056.008.084.008h19.709c.029,0,.056-.006.084-.008h5.031a.93.93,0,0,0,0-1.859h-5.08a3.672,3.672,0,0,1-3.668-3.668v-4.483h16.794a3.021,3.021,0,0,0,3.018-3.018v-33.279A3.021,3.021,0,0,0,3383.517,1783.759Zm-46.013,1.859h46.013a1.16,1.16,0,0,1,1.158,1.159v28.713h-11.941l-1.3-1.281a1.5,1.5,0,0,1,1.064-2.561h2.187a3.381,3.381,0,0,0,3.355-3.4v-.178a3.264,3.264,0,0,0-3.355-3.24h-2.194a1.47,1.47,0,0,1-1.387-.948,1.533,1.533,0,0,1,.33-1.7l1.573-1.6a3.387,3.387,0,0,0,.08-4.706,1.009,1.009,0,0,0-.077-.087,3.351,3.351,0,0,0-2.386-.99h0a3.337,3.337,0,0,0-2.375.985l-1.613,1.595a1.525,1.525,0,0,1-2.6-1.065V1794.1a3.262,3.262,0,0,0-3.32-3.275h-.03a3.275,3.275,0,0,0-3.344,3.275v2.252a1.516,1.516,0,0,1-2.585,1.067l-1.654-1.643a3.38,3.38,0,0,0-4.733-.023l-.012.012-.021.021a3.367,3.367,0,0,0-.021,4.774l1.56,1.62.013.013a1.53,1.53,0,0,1,.322,1.691,1.47,1.47,0,0,1-1.387.948h-2.256a3.264,3.264,0,0,0-3.355,3.24v.178a3.381,3.381,0,0,0,3.355,3.4h2.248a1.5,1.5,0,0,1,1.065,2.559l-1.3,1.284h-12.233v-28.713A1.16,1.16,0,0,1,3337.5,1785.618Zm14.42,26.248a3.313,3.313,0,0,0-3.114-2.078h-2.248a1.52,1.52,0,0,1-1.5-1.54v-.178a1.394,1.394,0,0,1,1.5-1.38h2.256a3.319,3.319,0,0,0,3.106-2.1,3.4,3.4,0,0,0-.72-3.711l-1.56-1.62-.013-.013a1.508,1.508,0,0,1,0-2.132l.01-.01.022-.021a1.515,1.515,0,0,1,2.127.006l1.654,1.643a3.375,3.375,0,0,0,5.756-2.385V1794.1a1.42,1.42,0,0,1,1.485-1.416h.03a1.392,1.392,0,0,1,1.46,1.416v2.217a3.384,3.384,0,0,0,5.773,2.382l1.613-1.595a1.494,1.494,0,0,1,1.063-.442h0a1.5,1.5,0,0,1,1.017.393c.018.022.037.043.058.063a1.528,1.528,0,0,1-.01,2.157l-1.573,1.6a3.4,3.4,0,0,0-.73,3.719,3.319,3.319,0,0,0,3.106,2.1h2.194a1.394,1.394,0,0,1,1.5,1.38v.178a1.52,1.52,0,0,1-1.5,1.54H3372.5a3.355,3.355,0,0,0-2.41,5.7H3351.22A3.3,3.3,0,0,0,3351.925,1811.866Zm14.351,19.367h-11.529a5.5,5.5,0,0,0,1.411-3.676v-4.483h8.706v4.483A5.5,5.5,0,0,0,3366.275,1831.233Zm17.242-10.019H3337.5a1.16,1.16,0,0,1-1.158-1.158v-2.706h48.329v2.706A1.16,1.16,0,0,1,3383.517,1821.214Z"></path><path class="web-design-maintenance-a" d="M3412.988,1861.312a4.569,4.569,0,1,0-4.569-4.569A4.574,4.574,0,0,0,3412.988,1861.312Zm0-7.279a2.71,2.71,0,1,1-2.71,2.71A2.713,2.713,0,0,1,3412.988,1854.033Z" transform="translate(-52.5 -48.57)"></path><path class="web-design-maintenance-a" d="M3357.131,1839.451a2.739,2.739,0,1,0-2.739-2.739A2.741,2.741,0,0,0,3357.131,1839.451Zm0-3.618a.879.879,0,1,1-.879.879A.88.88,0,0,1,3357.131,1835.833Z" transform="translate(-14.144 -35.649)"></path><path class="web-design-maintenance-a" d="M3477.424,1839.451a2.739,2.739,0,1,0-2.738-2.739A2.742,2.742,0,0,0,3477.424,1839.451Zm0-3.618a.879.879,0,1,1-.879.879A.88.88,0,0,1,3477.424,1835.833Z" transform="translate(-99.545 -35.649)"></path><path class="web-design-maintenance-a" d="M3443.155,1803.782a2.739,2.739,0,1,0-2.739-2.739A2.741,2.741,0,0,0,3443.155,1803.782Zm0-3.618a.879.879,0,1,1-.879.879A.88.88,0,0,1,3443.155,1800.165Z" transform="translate(-75.216 -10.327)"></path><path class="web-design-maintenance-a" d="M3392.008,1803.782a2.739,2.739,0,1,0-2.739-2.739A2.742,2.742,0,0,0,3392.008,1803.782Zm0-3.618a.879.879,0,1,1-.879.879A.88.88,0,0,1,3392.008,1800.165Z" transform="translate(-38.904 -10.327)"></path></g></svg>