<svg xmlns="http://www.w3.org/2000/svg" width="49.977" height="50" viewBox="0 0 49.977 50"><defs><style>.web-design-communication-a{fill:#85985a;}</style></defs><g transform="translate(-47.163 -37.855)"><g transform="translate(47.163 37.856)"><path class="web-design-communication-a" d="M96.38,59.748a.747.747,0,0,0-.76.737V71.6H84.271a.762.762,0,0,0-.76.737.771.771,0,0,0,.76.783H95.62v1.865a2.265,2.265,0,0,1-2.279,2.256h-42.4a2.279,2.279,0,0,1-2.279-2.256V73.123H72.232a.776.776,0,0,0,.783-.783.768.768,0,0,0-.783-.737H48.659V41.654A2.279,2.279,0,0,1,50.938,39.4H61.527a.771.771,0,0,0,0-1.542H50.938a3.8,3.8,0,0,0-3.775,3.8V74.987a3.782,3.782,0,0,0,3.775,3.8H66.316l-1.082,3.775H62.679a2.647,2.647,0,1,0,0,5.295H81.624a2.647,2.647,0,0,0,0-5.295H79.046l-1.059-3.775H93.341a3.8,3.8,0,0,0,3.8-3.8v-14.5A.747.747,0,0,0,96.38,59.748ZM82.729,85.208a1.125,1.125,0,0,1-1.1,1.128H62.679a1.13,1.13,0,0,1-1.128-1.128,1.15,1.15,0,0,1,1.128-1.151H81.624A1.146,1.146,0,0,1,82.729,85.208ZM77.48,82.561H66.8l1.082-3.775H76.4Z" transform="translate(-47.163 -37.856)"></path></g><g transform="translate(57.913 54.891)"><path class="web-design-communication-a" d="M48.413,40.092H51.06a.762.762,0,0,0,.76-.737.752.752,0,0,0-.76-.76H48.413a.757.757,0,0,0-.783.76A.768.768,0,0,0,48.413,40.092Z" transform="translate(-47.63 -38.596)"></path></g><g transform="translate(57.913 60.439)"><path class="web-design-communication-a" d="M55.779,38.837H48.413a.771.771,0,0,0-.783.76.757.757,0,0,0,.783.76h7.366a.752.752,0,0,0,.76-.76A.766.766,0,0,0,55.779,38.837Z" transform="translate(-47.63 -38.837)"></path></g><g transform="translate(53.217 37.856)"><path class="web-design-communication-a" d="M90.589,37.856H60.271a.753.753,0,0,0-.737.783V49.113H48.163a.733.733,0,0,0-.737.76V67.184a.747.747,0,0,0,.737.76H66.187l6.63,5.018a.857.857,0,0,0,.46.161.649.649,0,0,0,.345-.092.751.751,0,0,0,.414-.691v-4.4H78.48a.766.766,0,0,0,.76-.76V56.709H90.589a.766.766,0,0,0,.76-.76V38.639A.772.772,0,0,0,90.589,37.856ZM77.72,66.447H73.278a.733.733,0,0,0-.76.737v3.66L66.9,66.585a.83.83,0,0,0-.46-.138h-17.5V50.632H59.535V55.95a.747.747,0,0,0,.737.76h4.466v4.4a.751.751,0,0,0,.414.691.816.816,0,0,0,.783-.069l6.63-5.018H77.72ZM89.829,55.19H72.311a.83.83,0,0,0-.46.138L66.256,59.61V55.95a.771.771,0,0,0-.783-.76H61.031V39.4h28.8Z" transform="translate(-47.426 -37.856)"></path></g><g transform="translate(70.022 43.634)"><path class="web-design-communication-a" d="M48.916,39.626H69.795a.76.76,0,1,0,0-1.519H48.916a.76.76,0,1,0,0,1.519Z" transform="translate(-48.156 -38.107)"></path></g><g transform="translate(70.022 49.113)"><path class="web-design-communication-a" d="M48.916,39.864h16a.752.752,0,0,0,.76-.76.738.738,0,0,0-.76-.76h-16a.752.752,0,0,0-.76.76A.766.766,0,0,0,48.916,39.864Z" transform="translate(-48.156 -38.345)"></path></g><g transform="translate(76.997 60.439)"><path class="web-design-communication-a" d="M48.459,39.6a.752.752,0,0,0,.76.76h1.934a.733.733,0,0,0,.737-.76.747.747,0,0,0-.737-.76H49.219A.766.766,0,0,0,48.459,39.6Z" transform="translate(-48.459 -38.837)"></path></g></g></svg>